{"glyphs":{"0":{"ha":814,"x_min":53,"x_max":761,"o":"m 407 96 q 568 188 517 96 q 619 482 619 281 q 568 774 619 681 q 407 867 517 867 q 246 774 297 867 q 194 482 194 681 q 246 189 194 282 q 407 96 297 96 m 407 -21 q 144 109 236 -21 q 53 482 53 239 q 144 853 53 724 q 407 983 235 983 q 669 854 578 983 q 761 482 761 725 q 670 109 761 239 q 407 -21 579 -21 z "},"1":{"ha":814,"x_min":143,"x_max":550,"o":"m 411 0 l 411 825 l 143 721 l 143 832 l 421 963 l 550 963 l 550 0 l 411 0 z "},"2":{"ha":814,"x_min":93,"x_max":736,"o":"m 93 0 l 93 108 q 385 419 293 311 q 513 592 478 526 q 547 715 547 657 q 505 824 547 785 q 390 864 463 864 q 119 760 267 864 l 119 878 q 258 958 188 932 q 411 983 328 983 q 615 913 538 983 q 692 725 692 842 q 650 567 692 647 q 515 382 608 488 q 253 115 421 276 l 736 115 l 736 0 l 93 0 z "},"3":{"ha":814,"x_min":88,"x_max":707,"o":"m 381 550 q 394 551 388 551 q 408 551 401 551 q 626 477 546 551 q 707 278 707 403 q 609 60 707 142 q 346 -21 511 -21 q 88 35 215 -21 l 88 146 q 346 96 239 96 q 508 143 451 96 q 565 278 565 190 q 353 446 565 446 q 221 439 286 446 l 221 531 l 513 849 l 101 849 l 101 963 l 667 963 l 667 853 l 381 550 z "},"4":{"ha":814,"x_min":42,"x_max":767,"o":"m 503 0 l 503 207 l 42 207 l 42 314 l 499 963 l 632 963 l 632 319 l 767 319 l 767 207 l 632 207 l 632 0 l 503 0 m 503 319 l 503 781 l 181 319 l 503 319 z "},"5":{"ha":814,"x_min":94,"x_max":718,"o":"m 94 146 q 358 96 249 96 q 520 144 464 96 q 576 282 576 192 q 524 425 576 381 q 351 469 471 469 q 136 456 265 469 l 136 547 l 163 963 l 669 963 l 669 849 l 279 849 l 261 567 q 399 581 338 581 q 633 501 549 581 q 718 283 718 422 q 619 63 718 147 q 360 -21 521 -21 q 94 35 218 -21 l 94 146 z "},"6":{"ha":814,"x_min":72,"x_max":747,"o":"m 483 869 q 283 778 350 869 q 210 501 215 688 q 329 560 265 539 q 454 581 393 581 q 605 547 539 581 q 709 448 671 513 q 747 297 747 383 q 658 66 747 153 q 421 -21 569 -21 q 160 97 247 -21 q 72 450 72 215 q 176 843 72 703 q 465 983 279 983 q 582 971 524 983 q 683 938 640 958 l 683 832 q 583 859 638 849 q 483 869 529 869 m 418 469 q 314 453 368 469 q 210 410 260 438 q 425 93 218 93 q 560 143 513 93 q 608 288 608 193 q 559 422 608 374 q 418 469 510 469 z "},"7":{"ha":814,"x_min":72,"x_max":725,"o":"m 200 0 l 585 849 l 72 849 l 72 963 l 725 963 l 725 853 l 349 0 l 200 0 z "},"8":{"ha":814,"x_min":68,"x_max":746,"o":"m 710 728 q 667 589 710 651 q 550 489 625 526 q 700 386 654 442 q 746 250 746 331 q 653 52 746 125 q 403 -21 561 -21 q 159 49 250 -21 q 68 238 68 118 q 116 390 68 322 q 256 500 164 458 q 142 592 179 539 q 106 719 106 646 q 188 911 106 839 q 407 983 271 983 q 626 913 542 983 q 710 728 710 842 m 342 461 q 201 261 201 382 q 255 134 201 179 q 407 89 308 89 q 558 131 504 89 q 613 251 613 174 q 573 345 613 308 q 426 426 533 382 l 342 461 m 236 726 q 274 628 236 669 q 392 554 311 588 l 464 525 q 579 714 579 601 q 533 836 579 793 q 406 879 488 879 q 281 839 325 879 q 236 726 236 799 z "},"9":{"ha":814,"x_min":71,"x_max":738,"o":"m 108 144 q 318 93 222 93 q 520 175 451 93 q 599 429 589 257 q 488 377 549 396 q 363 358 426 358 q 149 439 228 358 q 71 660 71 519 q 110 826 71 753 q 224 941 150 899 q 393 983 297 983 q 649 865 561 983 q 738 521 738 747 q 633 119 738 260 q 338 -21 529 -21 q 108 39 200 -21 l 108 144 m 396 469 q 502 483 449 469 q 600 522 556 497 l 600 542 q 390 869 596 869 q 259 815 308 869 q 210 668 210 760 q 257 520 210 571 q 396 469 304 469 z "},"\u0000":{"ha":0,"x_min":0,"x_max":0,"o":""},"\t":{"ha":364,"x_min":0,"x_max":0,"o":""}," ":{"ha":364,"x_min":0,"x_max":0,"o":""},".":{"ha":344,"x_min":82,"x_max":263,"o":"m 172 -14 q 107 12 132 -14 q 82 78 82 38 q 107 144 82 118 q 172 169 132 169 q 238 144 213 169 q 263 78 263 118 q 238 12 263 38 q 172 -14 213 -14 z "},":":{"ha":344,"x_min":82,"x_max":263,"o":"m 172 535 q 107 560 132 535 q 82 626 82 586 q 107 692 82 667 q 172 718 132 718 q 238 692 213 718 q 263 626 263 667 q 238 560 263 586 q 172 535 213 535 m 172 -14 q 107 12 132 -14 q 82 78 82 38 q 107 144 82 118 q 172 169 132 169 q 238 144 213 169 q 263 78 263 118 q 238 12 263 38 q 172 -14 213 -14 z "},",":{"ha":344,"x_min":42,"x_max":244,"o":"m 42 -212 l 113 161 l 157 161 q 224 149 204 161 q 244 110 244 138 q 225 32 244 88 l 136 -212 l 42 -212 z "},";":{"ha":344,"x_min":42,"x_max":263,"o":"m 42 -212 l 113 161 l 157 161 q 224 149 204 161 q 244 110 244 138 q 225 32 244 88 l 136 -212 l 42 -212 m 172 535 q 107 560 132 535 q 82 626 82 586 q 107 692 82 667 q 172 718 132 718 q 238 692 213 718 q 263 626 263 667 q 238 560 263 586 q 172 535 213 535 z "},"?":{"ha":596,"x_min":47,"x_max":554,"o":"m 418 740 q 380 835 418 803 q 268 868 342 868 q 165 853 217 868 q 47 807 113 839 l 47 917 q 290 983 161 983 q 484 922 414 983 q 554 754 554 861 q 495 593 554 663 q 310 467 436 524 l 310 292 l 196 292 l 183 515 l 247 547 q 378 637 338 592 q 418 740 418 682 m 254 -14 q 189 12 214 -14 q 164 78 164 38 q 189 144 164 118 q 254 169 214 169 q 319 144 294 169 q 344 78 344 118 q 319 12 344 38 q 254 -14 294 -14 z "},"!":{"ha":358,"x_min":89,"x_max":269,"o":"m 122 292 l 103 963 q 179 981 139 981 q 256 963 219 981 l 236 292 l 122 292 m 179 -14 q 114 12 139 -14 q 89 78 89 38 q 114 144 89 118 q 179 169 139 169 q 244 144 219 169 q 269 78 269 118 q 244 12 269 38 q 179 -14 219 -14 z "},"¿":{"ha":596,"x_min":42,"x_max":549,"o":"m 178 -36 q 216 -131 178 -99 q 328 -164 254 -164 q 431 -149 379 -164 q 549 -103 483 -135 l 549 -212 q 306 -279 435 -279 q 112 -218 182 -279 q 42 -50 42 -157 q 101 111 42 42 q 286 238 160 181 l 286 413 l 400 413 l 413 189 l 349 157 q 218 67 258 113 q 178 -36 178 22 m 342 718 q 407 692 382 718 q 432 626 432 667 q 407 560 432 586 q 342 535 382 535 q 276 560 301 535 q 251 626 251 586 q 276 692 251 667 q 342 718 301 718 z "},"¡":{"ha":358,"x_min":89,"x_max":269,"o":"m 256 -258 q 179 -276 219 -276 q 103 -258 139 -276 l 122 413 l 236 413 l 256 -258 m 179 535 q 114 560 139 535 q 89 626 89 586 q 114 692 89 667 q 179 718 139 718 q 244 692 219 718 q 269 626 269 667 q 244 560 269 586 q 179 535 219 535 z "},"‽":{"ha":607,"x_min":47,"x_max":565,"o":"m 197 292 l 185 740 q 253 757 218 757 q 321 740 288 757 l 317 561 q 410 642 381 599 q 439 743 439 686 q 397 840 439 807 q 274 872 356 872 q 169 858 222 872 q 47 810 117 843 l 47 917 q 296 983 164 983 q 494 922 422 983 q 565 753 565 861 q 315 460 565 571 l 311 292 l 197 292 m 254 -14 q 189 12 214 -14 q 164 78 164 38 q 189 144 164 118 q 254 169 214 169 q 319 144 294 169 q 344 78 344 118 q 319 12 344 38 q 254 -14 294 -14 z "},"'":{"ha":293,"x_min":79,"x_max":214,"o":"m 99 624 l 79 961 q 146 978 111 978 q 214 961 183 978 l 194 624 l 99 624 z "},"\"":{"ha":518,"x_min":79,"x_max":439,"o":"m 324 624 l 304 961 q 371 978 336 978 q 439 961 408 978 l 419 624 l 324 624 m 99 624 l 79 961 q 146 978 111 978 q 214 961 183 978 l 194 624 l 99 624 z "},"…":{"ha":1389,"x_min":142,"x_max":1247,"o":"m 694 -14 q 629 12 654 -14 q 604 78 604 38 q 629 144 604 118 q 694 169 654 169 q 760 144 735 169 q 785 78 785 118 q 760 12 785 38 q 694 -14 735 -14 m 1157 -14 q 1092 12 1117 -14 q 1067 78 1067 38 q 1092 144 1067 118 q 1157 169 1117 169 q 1222 144 1197 169 q 1247 78 1247 118 q 1222 12 1247 38 q 1157 -14 1197 -14 m 232 -14 q 167 12 192 -14 q 142 78 142 38 q 167 144 142 118 q 232 169 192 169 q 297 144 272 169 q 322 78 322 118 q 297 12 322 38 q 232 -14 272 -14 z "}," ":{"ha":364,"x_min":0,"x_max":0,"o":""}," ":{"ha":694,"x_min":0,"x_max":0,"o":""}," ":{"ha":1389,"x_min":0,"x_max":0,"o":""}," ":{"ha":694,"x_min":0,"x_max":0,"o":""}," ":{"ha":1389,"x_min":0,"x_max":0,"o":""}," ":{"ha":463,"x_min":0,"x_max":0,"o":""}," ":{"ha":347,"x_min":0,"x_max":0,"o":""}," ":{"ha":231,"x_min":0,"x_max":0,"o":""}," ":{"ha":814,"x_min":0,"x_max":0,"o":""}," ":{"ha":344,"x_min":0,"x_max":0,"o":""}," ":{"ha":278,"x_min":0,"x_max":0,"o":""}," ":{"ha":69,"x_min":0,"x_max":0,"o":""},"​":{"ha":0,"x_min":0,"x_max":0,"o":""},"₀":{"ha":569,"x_min":56,"x_max":514,"o":"m 285 -156 q 116 -82 176 -156 q 56 125 56 -8 q 115 334 56 260 q 285 408 175 408 q 453 335 393 408 q 514 128 514 261 q 454 -81 514 -7 q 285 -156 394 -156 m 285 -65 q 371 -19 343 -65 q 399 125 399 28 q 371 272 399 225 q 285 318 343 318 q 199 272 226 318 q 171 128 171 225 q 199 -19 171 28 q 285 -65 226 -65 z "},"₁":{"ha":569,"x_min":113,"x_max":388,"o":"m 276 -144 l 276 289 l 113 231 l 113 317 l 290 397 l 388 397 l 388 -144 l 276 -144 z "},"₂":{"ha":569,"x_min":92,"x_max":481,"o":"m 92 -144 l 92 -65 q 292 133 240 69 q 344 246 344 197 q 323 298 344 279 q 264 317 301 317 q 104 258 197 317 l 104 347 q 289 408 188 408 q 414 367 367 408 q 461 258 461 326 q 410 132 461 199 q 219 -57 358 65 l 481 -57 l 481 -144 l 92 -144 z "},"₃":{"ha":569,"x_min":97,"x_max":483,"o":"m 261 -156 q 97 -121 165 -156 l 97 -39 q 256 -69 189 -69 q 344 -47 313 -69 q 375 17 375 -24 q 348 76 375 57 q 261 94 321 94 q 174 90 218 94 l 174 149 l 336 311 l 101 311 l 101 397 l 451 397 l 451 319 l 299 167 l 315 167 q 439 127 394 167 q 483 18 483 88 q 424 -110 483 -64 q 261 -156 365 -156 z "},"₄":{"ha":569,"x_min":61,"x_max":513,"o":"m 333 -144 l 333 -33 l 61 -33 l 61 46 l 326 406 l 431 406 l 431 47 l 513 47 l 513 -33 l 431 -33 l 431 -144 l 333 -144 m 160 47 l 333 47 l 333 283 l 160 47 z "},"₅":{"ha":569,"x_min":106,"x_max":490,"o":"m 267 -156 q 106 -125 172 -156 l 106 -43 q 264 -69 186 -69 q 351 -47 319 -69 q 382 17 382 -24 q 354 84 382 64 q 263 104 326 104 q 129 96 213 104 l 129 156 l 142 397 l 458 397 l 458 311 l 229 311 l 222 175 q 297 182 267 182 q 439 138 388 182 q 490 17 490 94 q 430 -109 490 -62 q 267 -156 369 -156 z "},"₆":{"ha":569,"x_min":75,"x_max":501,"o":"m 332 322 q 218 281 256 322 q 178 150 181 239 q 322 190 250 190 q 451 145 401 190 q 501 26 501 100 q 444 -105 501 -54 q 296 -156 386 -156 q 131 -88 188 -156 q 75 110 75 -21 q 140 331 75 253 q 324 408 204 408 q 460 379 399 408 l 460 301 q 332 322 397 322 m 299 108 q 181 76 236 108 q 212 -35 183 1 q 299 -71 240 -71 q 370 -47 344 -71 q 396 22 396 -22 q 371 85 396 63 q 299 108 346 108 z "},"₇":{"ha":569,"x_min":83,"x_max":499,"o":"m 151 -144 l 383 308 l 83 308 l 83 397 l 499 397 l 499 315 l 267 -144 l 151 -144 z "},"₈":{"ha":569,"x_min":75,"x_max":494,"o":"m 472 263 q 448 189 472 222 q 381 133 424 156 q 467 75 440 107 q 494 0 494 43 q 438 -114 494 -72 q 282 -156 381 -156 q 131 -116 188 -156 q 75 -8 75 -76 q 103 76 75 38 q 179 136 131 114 q 116 189 136 160 q 96 254 96 218 q 147 366 96 324 q 285 408 199 408 q 420 368 368 408 q 472 263 472 328 m 243 106 q 176 8 176 67 q 205 -55 176 -33 q 285 -76 233 -76 q 364 -56 335 -76 q 393 1 393 -35 q 374 44 393 26 q 310 79 356 61 l 243 106 m 194 257 q 212 211 194 231 q 268 176 229 192 l 315 158 q 374 251 374 197 q 350 308 374 288 q 285 329 326 329 q 219 310 244 329 q 194 257 194 290 z "},"₉":{"ha":569,"x_min":71,"x_max":492,"o":"m 94 -40 q 240 -71 165 -71 q 348 -32 313 -71 q 386 90 383 7 q 249 53 319 53 q 119 98 167 53 q 71 219 71 143 q 96 315 71 272 q 168 383 121 357 q 276 408 215 408 q 436 339 381 408 q 492 139 492 269 q 429 -78 492 -1 q 251 -156 367 -156 q 94 -119 171 -156 l 94 -40 m 272 133 q 388 163 335 133 l 388 169 q 359 283 388 244 q 275 322 331 322 q 201 297 228 322 q 175 225 175 271 q 200 157 175 181 q 272 133 225 133 z "},"₊":{"ha":569,"x_min":92,"x_max":478,"o":"m 238 -68 l 238 82 l 92 82 l 92 169 l 238 169 l 238 319 l 332 319 l 332 169 l 478 169 l 478 82 l 332 82 l 332 -68 l 238 -68 z "},"₋":{"ha":569,"x_min":92,"x_max":478,"o":"m 92 82 l 92 169 l 478 169 l 478 82 l 92 82 z "},"₌":{"ha":569,"x_min":92,"x_max":478,"o":"m 92 -17 l 92 71 l 478 71 l 478 -17 l 92 -17 m 92 182 l 92 269 l 478 269 l 478 182 l 92 182 z "},"₍":{"ha":313,"x_min":69,"x_max":288,"o":"m 188 -224 q 99 -55 129 -144 q 69 126 69 35 q 188 476 69 311 l 288 476 q 179 126 179 317 q 288 -224 179 -65 l 188 -224 z "},"₎":{"ha":313,"x_min":25,"x_max":243,"o":"m 25 -224 q 133 126 133 -64 q 25 476 133 318 l 125 476 q 213 308 183 397 q 243 126 243 218 q 125 -224 243 -58 l 25 -224 z "},"⁰":{"ha":569,"x_min":56,"x_max":514,"o":"m 285 531 q 116 604 176 531 q 56 811 56 678 q 115 1020 56 946 q 285 1094 175 1094 q 453 1021 393 1094 q 514 814 514 947 q 454 605 514 679 q 285 531 394 531 m 285 621 q 371 667 343 621 q 399 811 399 714 q 371 958 399 911 q 285 1004 343 1004 q 199 958 226 1004 q 171 814 171 911 q 199 667 171 714 q 285 621 226 621 z "},"¹":{"ha":569,"x_min":113,"x_max":388,"o":"m 276 542 l 276 975 l 113 917 l 113 1003 l 290 1083 l 388 1083 l 388 542 l 276 542 z "},"²":{"ha":569,"x_min":92,"x_max":481,"o":"m 92 542 l 92 621 q 292 819 240 756 q 344 932 344 883 q 323 984 344 965 q 264 1003 301 1003 q 104 944 197 1003 l 104 1033 q 289 1094 188 1094 q 414 1053 367 1094 q 461 944 461 1013 q 410 818 461 885 q 219 629 358 751 l 481 629 l 481 542 l 92 542 z "},"³":{"ha":569,"x_min":97,"x_max":483,"o":"m 261 531 q 97 565 165 531 l 97 647 q 256 617 189 617 q 344 640 313 617 q 375 703 375 663 q 348 762 375 743 q 261 781 321 781 q 174 776 218 781 l 174 835 l 336 997 l 101 997 l 101 1083 l 451 1083 l 451 1006 l 299 853 l 315 853 q 439 813 394 853 q 483 704 483 774 q 424 576 483 622 q 261 531 365 531 z "},"⁴":{"ha":569,"x_min":61,"x_max":513,"o":"m 333 542 l 333 653 l 61 653 l 61 732 l 326 1092 l 431 1092 l 431 733 l 513 733 l 513 653 l 431 653 l 431 542 l 333 542 m 160 733 l 333 733 l 333 969 l 160 733 z "},"⁵":{"ha":569,"x_min":106,"x_max":490,"o":"m 267 531 q 106 561 172 531 l 106 643 q 264 617 186 617 q 351 640 319 617 q 382 703 382 663 q 354 770 382 750 q 263 790 326 790 q 129 782 213 790 l 129 842 l 142 1083 l 458 1083 l 458 997 l 229 997 l 222 861 q 297 868 267 868 q 439 824 388 868 q 490 703 490 781 q 430 577 490 624 q 267 531 369 531 z "},"⁶":{"ha":569,"x_min":75,"x_max":501,"o":"m 332 1008 q 218 967 256 1008 q 178 836 181 925 q 322 876 250 876 q 451 831 401 876 q 501 713 501 786 q 444 581 501 632 q 296 531 386 531 q 131 598 188 531 q 75 796 75 665 q 140 1017 75 939 q 324 1094 204 1094 q 460 1065 399 1094 l 460 988 q 332 1008 397 1008 m 299 794 q 181 763 236 794 q 212 651 183 688 q 299 615 240 615 q 370 640 344 615 q 396 708 396 664 q 371 772 396 749 q 299 794 346 794 z "},"⁷":{"ha":569,"x_min":83,"x_max":499,"o":"m 151 542 l 383 994 l 83 994 l 83 1083 l 499 1083 l 499 1001 l 267 542 l 151 542 z "},"⁸":{"ha":569,"x_min":75,"x_max":494,"o":"m 472 949 q 448 875 472 908 q 381 819 424 842 q 467 761 440 793 q 494 686 494 729 q 438 572 494 614 q 282 531 381 531 q 131 570 188 531 q 75 678 75 610 q 103 762 75 724 q 179 822 131 800 q 116 875 136 846 q 96 940 96 904 q 147 1052 96 1010 q 285 1094 199 1094 q 420 1054 368 1094 q 472 949 472 1014 m 243 792 q 176 694 176 753 q 205 631 176 653 q 285 610 233 610 q 364 631 335 610 q 393 688 393 651 q 374 730 393 713 q 310 765 356 747 l 243 792 m 194 943 q 212 897 194 917 q 268 863 229 878 l 315 844 q 374 938 374 883 q 350 994 374 974 q 285 1015 326 1015 q 219 996 244 1015 q 194 943 194 976 z "},"⁹":{"ha":569,"x_min":71,"x_max":492,"o":"m 94 646 q 240 615 165 615 q 348 654 313 615 q 386 776 383 693 q 249 739 319 739 q 119 784 167 739 q 71 906 71 829 q 96 1001 71 958 q 168 1069 121 1043 q 276 1094 215 1094 q 436 1025 381 1094 q 492 825 492 956 q 429 608 492 685 q 251 531 367 531 q 94 567 171 531 l 94 646 m 272 819 q 388 849 335 819 l 388 856 q 359 969 388 931 q 275 1008 331 1008 q 201 983 228 1008 q 175 911 175 957 q 200 843 175 867 q 272 819 225 819 z "},"⁺":{"ha":569,"x_min":92,"x_max":478,"o":"m 238 618 l 238 768 l 92 768 l 92 856 l 238 856 l 238 1006 l 332 1006 l 332 856 l 478 856 l 478 768 l 332 768 l 332 618 l 238 618 z "},"⁻":{"ha":569,"x_min":92,"x_max":478,"o":"m 92 768 l 92 856 l 478 856 l 478 768 l 92 768 z "},"⁼":{"ha":569,"x_min":92,"x_max":478,"o":"m 92 668 l 92 756 l 478 756 l 478 668 l 92 668 m 92 868 l 92 956 l 478 956 l 478 868 l 92 868 z "},"⁽":{"ha":313,"x_min":69,"x_max":288,"o":"m 188 463 q 99 631 129 542 q 69 813 69 721 q 188 1163 69 997 l 288 1163 q 179 813 179 1003 q 288 463 179 621 l 188 463 z "},"⁾":{"ha":313,"x_min":25,"x_max":243,"o":"m 25 463 q 133 813 133 622 q 25 1163 133 1004 l 125 1163 q 213 994 183 1083 q 243 813 243 904 q 125 463 243 628 l 25 463 z "},"⁄":{"ha":0,"x_min":-287,"x_max":288,"o":"m -287 0 l 175 963 l 288 963 l -175 0 l -287 0 z "},"%":{"ha":1306,"x_min":56,"x_max":1250,"o":"m 365 0 l 828 963 l 940 963 l 478 0 l 365 0 m 1021 -11 q 852 63 913 -11 q 792 269 792 136 q 851 478 792 404 q 1021 553 911 553 q 1190 479 1129 553 q 1250 272 1250 406 q 1190 63 1250 138 q 1021 -11 1131 -11 m 1021 79 q 1107 126 1079 79 q 1135 269 1135 172 q 1107 416 1135 369 q 1021 463 1079 463 q 935 416 963 463 q 907 272 907 369 q 935 126 907 172 q 1021 79 963 79 m 285 410 q 116 483 176 410 q 56 690 56 557 q 115 899 56 825 q 285 974 175 974 q 453 900 393 974 q 514 693 514 826 q 454 484 514 558 q 285 410 394 410 m 285 500 q 371 547 343 500 q 399 690 399 593 q 371 837 399 790 q 285 883 343 883 q 199 837 226 883 q 171 693 171 790 q 199 547 171 593 q 285 500 226 500 z "},"‰":{"ha":1850,"x_min":56,"x_max":1794,"o":"m 365 0 l 828 963 l 940 963 l 478 0 l 365 0 m 1021 -11 q 852 63 913 -11 q 792 269 792 136 q 851 478 792 404 q 1021 553 911 553 q 1190 479 1129 553 q 1250 272 1250 406 q 1190 63 1250 138 q 1021 -11 1131 -11 m 1021 79 q 1107 126 1079 79 q 1135 269 1135 172 q 1107 416 1135 369 q 1021 463 1079 463 q 935 416 963 463 q 907 272 907 369 q 935 126 907 172 q 1021 79 963 79 m 285 410 q 116 483 176 410 q 56 690 56 557 q 115 899 56 825 q 285 974 175 974 q 453 900 393 974 q 514 693 514 826 q 454 484 514 558 q 285 410 394 410 m 285 500 q 371 547 343 500 q 399 690 399 593 q 371 837 399 790 q 285 883 343 883 q 199 837 226 883 q 171 693 171 790 q 199 547 171 593 q 285 500 226 500 m 1565 -11 q 1397 63 1457 -11 q 1336 269 1336 136 q 1396 478 1336 404 q 1565 553 1456 553 q 1734 479 1674 553 q 1794 272 1794 406 q 1735 63 1794 138 q 1565 -11 1675 -11 m 1565 79 q 1651 126 1624 79 q 1679 269 1679 172 q 1651 416 1679 369 q 1565 463 1624 463 q 1479 416 1507 463 q 1451 272 1451 369 q 1479 126 1451 172 q 1565 79 1507 79 z "},"½":{"ha":1306,"x_min":113,"x_max":1217,"o":"m 340 0 l 803 963 l 915 963 l 453 0 l 340 0 m 828 0 l 828 79 q 1028 278 976 214 q 1081 390 1081 342 q 1059 442 1081 424 q 1000 461 1038 461 q 840 403 933 461 l 840 492 q 1025 553 924 553 q 1150 512 1103 553 q 1197 403 1197 471 q 1146 276 1197 343 q 956 88 1094 210 l 1217 88 l 1217 0 l 828 0 m 276 421 l 276 854 l 113 796 l 113 882 l 290 963 l 388 963 l 388 421 l 276 421 z "},"⅓":{"ha":1306,"x_min":113,"x_max":1219,"o":"m 326 0 l 789 963 l 901 963 l 439 0 l 326 0 m 997 -11 q 833 24 901 -11 l 833 106 q 992 75 925 75 q 1080 98 1049 75 q 1111 161 1111 121 q 1084 220 1111 201 q 997 239 1057 239 q 910 235 954 239 l 910 293 l 1072 456 l 838 456 l 838 542 l 1188 542 l 1188 464 l 1035 311 l 1051 311 q 1175 272 1131 311 q 1219 163 1219 232 q 1160 35 1219 81 q 997 -11 1101 -11 m 276 421 l 276 854 l 113 796 l 113 882 l 290 963 l 388 963 l 388 421 l 276 421 z "},"⅔":{"ha":1306,"x_min":92,"x_max":1219,"o":"m 369 0 l 832 963 l 944 963 l 482 0 l 369 0 m 997 -11 q 833 24 901 -11 l 833 106 q 992 75 925 75 q 1080 98 1049 75 q 1111 161 1111 121 q 1084 220 1111 201 q 997 239 1057 239 q 910 235 954 239 l 910 293 l 1072 456 l 838 456 l 838 542 l 1188 542 l 1188 464 l 1035 311 l 1051 311 q 1175 272 1131 311 q 1219 163 1219 232 q 1160 35 1219 81 q 997 -11 1101 -11 m 92 421 l 92 500 q 292 699 240 635 q 344 811 344 763 q 323 863 344 844 q 264 882 301 882 q 104 824 197 882 l 104 913 q 289 974 188 974 q 414 933 367 974 q 461 824 461 892 q 410 697 461 764 q 219 508 358 631 l 481 508 l 481 421 l 92 421 z "},"¼":{"ha":1306,"x_min":113,"x_max":1249,"o":"m 378 0 l 840 963 l 953 963 l 490 0 l 378 0 m 1069 0 l 1069 111 l 797 111 l 797 190 l 1063 550 l 1167 550 l 1167 192 l 1249 192 l 1249 111 l 1167 111 l 1167 0 l 1069 0 m 896 192 l 1069 192 l 1069 428 l 896 192 m 276 421 l 276 854 l 113 796 l 113 882 l 290 963 l 388 963 l 388 421 l 276 421 z "},"¾":{"ha":1306,"x_min":97,"x_max":1249,"o":"m 388 0 l 850 963 l 963 963 l 500 0 l 388 0 m 1069 0 l 1069 111 l 797 111 l 797 190 l 1063 550 l 1167 550 l 1167 192 l 1249 192 l 1249 111 l 1167 111 l 1167 0 l 1069 0 m 896 192 l 1069 192 l 1069 428 l 896 192 m 261 410 q 97 444 165 410 l 97 526 q 256 496 189 496 q 344 519 313 496 q 375 582 375 542 q 348 641 375 622 q 261 660 321 660 q 174 656 218 660 l 174 714 l 336 876 l 101 876 l 101 963 l 451 963 l 451 885 l 299 732 l 315 732 q 439 692 394 732 q 483 583 483 653 q 424 456 483 501 q 261 410 365 410 z "},"⅕":{"ha":1306,"x_min":113,"x_max":1226,"o":"m 346 0 l 808 963 l 921 963 l 458 0 l 346 0 m 1003 -11 q 842 19 908 -11 l 842 101 q 1000 75 922 75 q 1087 98 1056 75 q 1118 161 1118 121 q 1090 228 1118 208 q 999 249 1063 249 q 865 240 949 249 l 865 300 l 878 542 l 1194 542 l 1194 456 l 965 456 l 958 319 q 1033 326 1003 326 q 1175 283 1124 326 q 1226 161 1226 239 q 1166 35 1226 82 q 1003 -11 1106 -11 m 276 421 l 276 854 l 113 796 l 113 882 l 290 963 l 388 963 l 388 421 l 276 421 z "},"⅖":{"ha":1306,"x_min":92,"x_max":1226,"o":"m 390 0 l 853 963 l 965 963 l 503 0 l 390 0 m 1003 -11 q 842 19 908 -11 l 842 101 q 1000 75 922 75 q 1087 98 1056 75 q 1118 161 1118 121 q 1090 228 1118 208 q 999 249 1063 249 q 865 240 949 249 l 865 300 l 878 542 l 1194 542 l 1194 456 l 965 456 l 958 319 q 1033 326 1003 326 q 1175 283 1124 326 q 1226 161 1226 239 q 1166 35 1226 82 q 1003 -11 1106 -11 m 92 421 l 92 500 q 292 699 240 635 q 344 811 344 763 q 323 863 344 844 q 264 882 301 882 q 104 824 197 882 l 104 913 q 289 974 188 974 q 414 933 367 974 q 461 824 461 892 q 410 697 461 764 q 219 508 358 631 l 481 508 l 481 421 l 92 421 z "},"⅗":{"ha":1306,"x_min":97,"x_max":1226,"o":"m 365 0 l 828 963 l 940 963 l 478 0 l 365 0 m 1003 -11 q 842 19 908 -11 l 842 101 q 1000 75 922 75 q 1087 98 1056 75 q 1118 161 1118 121 q 1090 228 1118 208 q 999 249 1063 249 q 865 240 949 249 l 865 300 l 878 542 l 1194 542 l 1194 456 l 965 456 l 958 319 q 1033 326 1003 326 q 1175 283 1124 326 q 1226 161 1226 239 q 1166 35 1226 82 q 1003 -11 1106 -11 m 261 410 q 97 444 165 410 l 97 526 q 256 496 189 496 q 344 519 313 496 q 375 582 375 542 q 348 641 375 622 q 261 660 321 660 q 174 656 218 660 l 174 714 l 336 876 l 101 876 l 101 963 l 451 963 l 451 885 l 299 732 l 315 732 q 439 692 394 732 q 483 583 483 653 q 424 456 483 501 q 261 410 365 410 z "},"⅘":{"ha":1306,"x_min":61,"x_max":1226,"o":"m 379 0 l 842 963 l 954 963 l 492 0 l 379 0 m 1003 -11 q 842 19 908 -11 l 842 101 q 1000 75 922 75 q 1087 98 1056 75 q 1118 161 1118 121 q 1090 228 1118 208 q 999 249 1063 249 q 865 240 949 249 l 865 300 l 878 542 l 1194 542 l 1194 456 l 965 456 l 958 319 q 1033 326 1003 326 q 1175 283 1124 326 q 1226 161 1226 239 q 1166 35 1226 82 q 1003 -11 1106 -11 m 333 421 l 333 532 l 61 532 l 61 611 l 326 971 l 431 971 l 431 613 l 513 613 l 513 532 l 431 532 l 431 421 l 333 421 m 160 613 l 333 613 l 333 849 l 160 613 z "},"⅙":{"ha":1306,"x_min":113,"x_max":1238,"o":"m 357 0 l 819 963 l 932 963 l 469 0 l 357 0 m 1068 467 q 954 425 992 467 q 914 294 917 383 q 1058 335 986 335 q 1188 290 1138 335 q 1238 171 1238 244 q 1180 40 1238 90 q 1032 -11 1122 -11 q 867 56 924 -11 q 811 254 811 124 q 876 475 811 397 q 1060 553 940 553 q 1196 524 1135 553 l 1196 446 q 1068 467 1133 467 m 1035 253 q 917 221 972 253 q 948 110 919 146 q 1035 74 976 74 q 1106 98 1081 74 q 1132 167 1132 122 q 1107 230 1132 207 q 1035 253 1082 253 m 276 421 l 276 854 l 113 796 l 113 882 l 290 963 l 388 963 l 388 421 l 276 421 z "},"⅚":{"ha":1306,"x_min":106,"x_max":1238,"o":"m 371 0 l 833 963 l 946 963 l 483 0 l 371 0 m 1068 467 q 954 425 992 467 q 914 294 917 383 q 1058 335 986 335 q 1188 290 1138 335 q 1238 171 1238 244 q 1180 40 1238 90 q 1032 -11 1122 -11 q 867 56 924 -11 q 811 254 811 124 q 876 475 811 397 q 1060 553 940 553 q 1196 524 1135 553 l 1196 446 q 1068 467 1133 467 m 1035 253 q 917 221 972 253 q 948 110 919 146 q 1035 74 976 74 q 1106 98 1081 74 q 1132 167 1132 122 q 1107 230 1132 207 q 1035 253 1082 253 m 267 410 q 106 440 172 410 l 106 522 q 264 496 186 496 q 351 519 319 496 q 382 582 382 542 q 354 649 382 629 q 263 669 326 669 q 129 661 213 669 l 129 721 l 142 963 l 458 963 l 458 876 l 229 876 l 222 740 q 297 747 267 747 q 439 703 388 747 q 490 582 490 660 q 430 456 490 503 q 267 410 369 410 z "},"⅐":{"ha":1306,"x_min":113,"x_max":1235,"o":"m 315 0 l 778 963 l 890 963 l 428 0 l 315 0 m 888 0 l 1119 453 l 819 453 l 819 542 l 1235 542 l 1235 460 l 1003 0 l 888 0 m 276 421 l 276 854 l 113 796 l 113 882 l 290 963 l 388 963 l 388 421 l 276 421 z "},"":{"ha":1306,"x_min":92,"x_max":1235,"o":"m 367 0 l 829 963 l 942 963 l 479 0 l 367 0 m 888 0 l 1119 453 l 819 453 l 819 542 l 1235 542 l 1235 460 l 1003 0 l 888 0 m 92 421 l 92 500 q 292 699 240 635 q 344 811 344 763 q 323 863 344 844 q 264 882 301 882 q 104 824 197 882 l 104 913 q 289 974 188 974 q 414 933 367 974 q 461 824 461 892 q 410 697 461 764 q 219 508 358 631 l 481 508 l 481 421 l 92 421 z "},"":{"ha":1306,"x_min":97,"x_max":1235,"o":"m 357 0 l 819 963 l 932 963 l 469 0 l 357 0 m 888 0 l 1119 453 l 819 453 l 819 542 l 1235 542 l 1235 460 l 1003 0 l 888 0 m 261 410 q 97 444 165 410 l 97 526 q 256 496 189 496 q 344 519 313 496 q 375 582 375 542 q 348 641 375 622 q 261 660 321 660 q 174 656 218 660 l 174 714 l 336 876 l 101 876 l 101 963 l 451 963 l 451 885 l 299 732 l 315 732 q 439 692 394 732 q 483 583 483 653 q 424 456 483 501 q 261 410 365 410 z "},"":{"ha":1306,"x_min":61,"x_max":1235,"o":"m 350 0 l 813 963 l 925 963 l 463 0 l 350 0 m 888 0 l 1119 453 l 819 453 l 819 542 l 1235 542 l 1235 460 l 1003 0 l 888 0 m 333 421 l 333 532 l 61 532 l 61 611 l 326 971 l 431 971 l 431 613 l 513 613 l 513 532 l 431 532 l 431 421 l 333 421 m 160 613 l 333 613 l 333 849 l 160 613 z "},"":{"ha":1306,"x_min":106,"x_max":1235,"o":"m 340 0 l 803 963 l 915 963 l 453 0 l 340 0 m 888 0 l 1119 453 l 819 453 l 819 542 l 1235 542 l 1235 460 l 1003 0 l 888 0 m 267 410 q 106 440 172 410 l 106 522 q 264 496 186 496 q 351 519 319 496 q 382 582 382 542 q 354 649 382 629 q 263 669 326 669 q 129 661 213 669 l 129 721 l 142 963 l 458 963 l 458 876 l 229 876 l 222 740 q 297 747 267 747 q 439 703 388 747 q 490 582 490 660 q 430 456 490 503 q 267 410 369 410 z "},"":{"ha":1306,"x_min":75,"x_max":1235,"o":"m 344 0 l 807 963 l 919 963 l 457 0 l 344 0 m 888 0 l 1119 453 l 819 453 l 819 542 l 1235 542 l 1235 460 l 1003 0 l 888 0 m 332 888 q 218 846 256 888 q 178 715 181 804 q 322 756 250 756 q 451 710 401 756 q 501 592 501 665 q 444 460 501 511 q 296 410 386 410 q 131 477 188 410 q 75 675 75 544 q 140 896 75 818 q 324 974 204 974 q 460 944 399 974 l 460 867 q 332 888 397 888 m 299 674 q 181 642 236 674 q 212 531 183 567 q 299 494 240 494 q 370 519 344 494 q 396 588 396 543 q 371 651 396 628 q 299 674 346 674 z "},"⅛":{"ha":1306,"x_min":113,"x_max":1231,"o":"m 349 0 l 811 963 l 924 963 l 461 0 l 349 0 m 1208 407 q 1184 333 1208 367 q 1117 278 1160 300 q 1203 219 1176 251 q 1231 144 1231 188 q 1174 31 1231 72 q 1018 -11 1117 -11 q 867 28 924 -11 q 811 136 811 68 q 839 220 811 182 q 915 281 867 258 q 852 333 872 304 q 832 399 832 363 q 883 510 832 468 q 1021 553 935 553 q 1156 513 1104 553 q 1208 407 1208 472 m 979 250 q 913 153 913 211 q 941 90 913 111 q 1021 68 969 68 q 1100 89 1071 68 q 1129 146 1129 110 q 1110 188 1129 171 q 1046 224 1092 206 l 979 250 m 931 401 q 948 356 931 375 q 1004 321 965 336 l 1051 303 q 1110 396 1110 342 q 1086 453 1110 432 q 1021 474 1063 474 q 956 454 981 474 q 931 401 931 435 m 276 421 l 276 854 l 113 796 l 113 882 l 290 963 l 388 963 l 388 421 l 276 421 z "},"⅜":{"ha":1306,"x_min":97,"x_max":1231,"o":"m 365 0 l 828 963 l 940 963 l 478 0 l 365 0 m 1208 407 q 1184 333 1208 367 q 1117 278 1160 300 q 1203 219 1176 251 q 1231 144 1231 188 q 1174 31 1231 72 q 1018 -11 1117 -11 q 867 28 924 -11 q 811 136 811 68 q 839 220 811 182 q 915 281 867 258 q 852 333 872 304 q 832 399 832 363 q 883 510 832 468 q 1021 553 935 553 q 1156 513 1104 553 q 1208 407 1208 472 m 979 250 q 913 153 913 211 q 941 90 913 111 q 1021 68 969 68 q 1100 89 1071 68 q 1129 146 1129 110 q 1110 188 1129 171 q 1046 224 1092 206 l 979 250 m 931 401 q 948 356 931 375 q 1004 321 965 336 l 1051 303 q 1110 396 1110 342 q 1086 453 1110 432 q 1021 474 1063 474 q 956 454 981 474 q 931 401 931 435 m 261 410 q 97 444 165 410 l 97 526 q 256 496 189 496 q 344 519 313 496 q 375 582 375 542 q 348 641 375 622 q 261 660 321 660 q 174 656 218 660 l 174 714 l 336 876 l 101 876 l 101 963 l 451 963 l 451 885 l 299 732 l 315 732 q 439 692 394 732 q 483 583 483 653 q 424 456 483 501 q 261 410 365 410 z "},"⅝":{"ha":1306,"x_min":106,"x_max":1231,"o":"m 369 0 l 832 963 l 944 963 l 482 0 l 369 0 m 1208 407 q 1184 333 1208 367 q 1117 278 1160 300 q 1203 219 1176 251 q 1231 144 1231 188 q 1174 31 1231 72 q 1018 -11 1117 -11 q 867 28 924 -11 q 811 136 811 68 q 839 220 811 182 q 915 281 867 258 q 852 333 872 304 q 832 399 832 363 q 883 510 832 468 q 1021 553 935 553 q 1156 513 1104 553 q 1208 407 1208 472 m 979 250 q 913 153 913 211 q 941 90 913 111 q 1021 68 969 68 q 1100 89 1071 68 q 1129 146 1129 110 q 1110 188 1129 171 q 1046 224 1092 206 l 979 250 m 931 401 q 948 356 931 375 q 1004 321 965 336 l 1051 303 q 1110 396 1110 342 q 1086 453 1110 432 q 1021 474 1063 474 q 956 454 981 474 q 931 401 931 435 m 267 410 q 106 440 172 410 l 106 522 q 264 496 186 496 q 351 519 319 496 q 382 582 382 542 q 354 649 382 629 q 263 669 326 669 q 129 661 213 669 l 129 721 l 142 963 l 458 963 l 458 876 l 229 876 l 222 740 q 297 747 267 747 q 439 703 388 747 q 490 582 490 660 q 430 456 490 503 q 267 410 369 410 z "},"⅞":{"ha":1306,"x_min":83,"x_max":1231,"o":"m 324 0 l 786 963 l 899 963 l 436 0 l 324 0 m 1208 407 q 1184 333 1208 367 q 1117 278 1160 300 q 1203 219 1176 251 q 1231 144 1231 188 q 1174 31 1231 72 q 1018 -11 1117 -11 q 867 28 924 -11 q 811 136 811 68 q 839 220 811 182 q 915 281 867 258 q 852 333 872 304 q 832 399 832 363 q 883 510 832 468 q 1021 553 935 553 q 1156 513 1104 553 q 1208 407 1208 472 m 979 250 q 913 153 913 211 q 941 90 913 111 q 1021 68 969 68 q 1100 89 1071 68 q 1129 146 1129 110 q 1110 188 1129 171 q 1046 224 1092 206 l 979 250 m 931 401 q 948 356 931 375 q 1004 321 965 336 l 1051 303 q 1110 396 1110 342 q 1086 453 1110 432 q 1021 474 1063 474 q 956 454 981 474 q 931 401 931 435 m 151 421 l 383 874 l 83 874 l 83 963 l 499 963 l 499 881 l 267 421 l 151 421 z "},"⅑":{"ha":1306,"x_min":113,"x_max":1228,"o":"m 338 0 l 800 963 l 913 963 l 450 0 l 338 0 m 831 104 q 976 74 901 74 q 1084 113 1049 74 q 1122 235 1119 151 q 985 197 1056 197 q 855 242 903 197 q 807 364 807 288 q 832 459 807 417 q 904 527 857 501 q 1013 553 951 553 q 1172 483 1117 553 q 1228 283 1228 414 q 1165 66 1228 143 q 988 -11 1103 -11 q 831 25 907 -11 l 831 104 m 1008 278 q 1124 307 1071 278 l 1124 314 q 1095 428 1124 389 q 1011 467 1067 467 q 938 441 964 467 q 911 369 911 415 q 936 301 911 325 q 1008 278 961 278 m 276 421 l 276 854 l 113 796 l 113 882 l 290 963 l 388 963 l 388 421 l 276 421 z "},"":{"ha":1306,"x_min":92,"x_max":1228,"o":"m 379 0 l 842 963 l 954 963 l 492 0 l 379 0 m 831 104 q 976 74 901 74 q 1084 113 1049 74 q 1122 235 1119 151 q 985 197 1056 197 q 855 242 903 197 q 807 364 807 288 q 832 459 807 417 q 904 527 857 501 q 1013 553 951 553 q 1172 483 1117 553 q 1228 283 1228 414 q 1165 66 1228 143 q 988 -11 1103 -11 q 831 25 907 -11 l 831 104 m 1008 278 q 1124 307 1071 278 l 1124 314 q 1095 428 1124 389 q 1011 467 1067 467 q 938 441 964 467 q 911 369 911 415 q 936 301 911 325 q 1008 278 961 278 m 92 421 l 92 500 q 292 699 240 635 q 344 811 344 763 q 323 863 344 844 q 264 882 301 882 q 104 824 197 882 l 104 913 q 289 974 188 974 q 414 933 367 974 q 461 824 461 892 q 410 697 461 764 q 219 508 358 631 l 481 508 l 481 421 l 92 421 z "},"":{"ha":1306,"x_min":61,"x_max":1228,"o":"m 371 0 l 833 963 l 946 963 l 483 0 l 371 0 m 831 104 q 976 74 901 74 q 1084 113 1049 74 q 1122 235 1119 151 q 985 197 1056 197 q 855 242 903 197 q 807 364 807 288 q 832 459 807 417 q 904 527 857 501 q 1013 553 951 553 q 1172 483 1117 553 q 1228 283 1228 414 q 1165 66 1228 143 q 988 -11 1103 -11 q 831 25 907 -11 l 831 104 m 1008 278 q 1124 307 1071 278 l 1124 314 q 1095 428 1124 389 q 1011 467 1067 467 q 938 441 964 467 q 911 369 911 415 q 936 301 911 325 q 1008 278 961 278 m 333 421 l 333 532 l 61 532 l 61 611 l 326 971 l 431 971 l 431 613 l 513 613 l 513 532 l 431 532 l 431 421 l 333 421 m 160 613 l 333 613 l 333 849 l 160 613 z "},"":{"ha":1306,"x_min":106,"x_max":1228,"o":"m 361 0 l 824 963 l 936 963 l 474 0 l 361 0 m 831 104 q 976 74 901 74 q 1084 113 1049 74 q 1122 235 1119 151 q 985 197 1056 197 q 855 242 903 197 q 807 364 807 288 q 832 459 807 417 q 904 527 857 501 q 1013 553 951 553 q 1172 483 1117 553 q 1228 283 1228 414 q 1165 66 1228 143 q 988 -11 1103 -11 q 831 25 907 -11 l 831 104 m 1008 278 q 1124 307 1071 278 l 1124 314 q 1095 428 1124 389 q 1011 467 1067 467 q 938 441 964 467 q 911 369 911 415 q 936 301 911 325 q 1008 278 961 278 m 267 410 q 106 440 172 410 l 106 522 q 264 496 186 496 q 351 519 319 496 q 382 582 382 542 q 354 649 382 629 q 263 669 326 669 q 129 661 213 669 l 129 721 l 142 963 l 458 963 l 458 876 l 229 876 l 222 740 q 297 747 267 747 q 439 703 388 747 q 490 582 490 660 q 430 456 490 503 q 267 410 369 410 z "},"":{"ha":1306,"x_min":83,"x_max":1228,"o":"m 318 0 l 781 963 l 893 963 l 431 0 l 318 0 m 831 104 q 976 74 901 74 q 1084 113 1049 74 q 1122 235 1119 151 q 985 197 1056 197 q 855 242 903 197 q 807 364 807 288 q 832 459 807 417 q 904 527 857 501 q 1013 553 951 553 q 1172 483 1117 553 q 1228 283 1228 414 q 1165 66 1228 143 q 988 -11 1103 -11 q 831 25 907 -11 l 831 104 m 1008 278 q 1124 307 1071 278 l 1124 314 q 1095 428 1124 389 q 1011 467 1067 467 q 938 441 964 467 q 911 369 911 415 q 936 301 911 325 q 1008 278 961 278 m 151 421 l 383 874 l 83 874 l 83 963 l 499 963 l 499 881 l 267 421 l 151 421 z "},"":{"ha":1306,"x_min":75,"x_max":1228,"o":"m 367 0 l 829 963 l 942 963 l 479 0 l 367 0 m 831 104 q 976 74 901 74 q 1084 113 1049 74 q 1122 235 1119 151 q 985 197 1056 197 q 855 242 903 197 q 807 364 807 288 q 832 459 807 417 q 904 527 857 501 q 1013 553 951 553 q 1172 483 1117 553 q 1228 283 1228 414 q 1165 66 1228 143 q 988 -11 1103 -11 q 831 25 907 -11 l 831 104 m 1008 278 q 1124 307 1071 278 l 1124 314 q 1095 428 1124 389 q 1011 467 1067 467 q 938 441 964 467 q 911 369 911 415 q 936 301 911 325 q 1008 278 961 278 m 472 828 q 448 754 472 788 q 381 699 424 721 q 467 640 440 672 q 494 565 494 608 q 438 451 494 493 q 282 410 381 410 q 131 449 188 410 q 75 557 75 489 q 103 641 75 603 q 179 701 131 679 q 116 754 136 725 q 96 819 96 783 q 147 931 96 889 q 285 974 199 974 q 420 933 368 974 q 472 828 472 893 m 243 671 q 176 574 176 632 q 205 510 176 532 q 285 489 233 489 q 364 510 335 489 q 393 567 393 531 q 374 609 393 592 q 310 644 356 626 l 243 671 m 194 822 q 212 776 194 796 q 268 742 229 757 l 315 724 q 374 817 374 763 q 350 874 374 853 q 285 894 326 894 q 219 875 244 894 q 194 822 194 856 z "},"$":{"ha":814,"x_min":93,"x_max":722,"o":"m 363 -181 l 363 -11 q 100 71 224 -3 l 100 182 q 244 120 182 140 q 363 96 307 100 l 363 436 l 304 458 q 144 558 196 499 q 93 700 93 617 q 126 831 93 772 q 219 926 158 890 q 363 967 281 961 l 363 1135 l 449 1135 l 449 965 q 663 893 563 954 l 663 783 q 449 858 549 847 l 449 529 l 508 507 q 670 410 618 468 q 722 269 722 353 q 649 78 722 153 q 449 -11 575 3 l 449 -181 l 363 -181 m 600 263 q 565 350 600 315 q 449 414 531 385 l 449 97 q 560 149 519 106 q 600 263 600 193 m 214 704 q 249 616 214 651 q 363 553 283 581 l 363 860 q 253 814 292 854 q 214 704 214 774 z "},"¢":{"ha":814,"x_min":132,"x_max":690,"o":"m 431 -181 l 431 28 q 208 133 283 42 q 132 390 132 225 q 209 644 132 550 q 431 753 286 738 l 431 963 l 517 963 l 517 754 q 685 714 606 750 l 685 615 q 517 644 597 642 l 517 138 q 690 168 599 140 l 690 71 q 517 26 618 33 l 517 -181 l 431 -181 m 268 382 q 308 217 268 275 q 431 143 347 158 l 431 638 q 308 565 347 622 q 268 400 268 507 l 268 382 z "},"£":{"ha":814,"x_min":93,"x_max":746,"o":"m 126 0 l 126 106 q 238 353 238 196 q 237 389 238 371 q 233 425 236 407 l 93 425 l 93 533 l 214 533 q 194 626 203 582 q 185 710 185 669 q 222 851 185 789 q 328 947 258 913 q 493 982 399 982 q 624 965 561 982 q 733 915 686 947 l 733 806 q 506 864 611 864 q 369 821 415 864 q 322 693 322 778 q 346 533 322 640 l 635 533 l 635 425 l 367 425 q 372 351 372 392 q 274 115 372 213 l 746 115 l 746 0 l 126 0 z "},"¥":{"ha":814,"x_min":26,"x_max":788,"o":"m 339 0 l 339 215 l 97 215 l 97 307 l 339 307 l 339 351 l 299 429 l 97 429 l 97 521 l 253 521 l 26 963 l 181 963 l 408 465 l 640 963 l 788 963 l 560 521 l 717 521 l 717 429 l 514 429 l 474 350 l 474 307 l 715 307 l 715 215 l 474 215 l 474 0 l 339 0 z "},"€":{"ha":814,"x_min":46,"x_max":776,"o":"m 282 538 l 282 417 l 629 417 l 603 324 l 292 324 q 383 156 315 211 q 565 101 450 101 q 776 135 672 101 l 776 26 q 553 -17 674 -17 q 285 69 388 -17 q 153 324 183 156 l 46 324 l 46 417 l 142 417 q 140 444 140 431 q 140 472 140 458 q 141 506 140 489 q 143 538 142 522 l 46 538 l 46 631 l 154 631 q 292 887 188 799 q 564 975 397 975 q 771 936 681 975 l 771 828 q 582 857 671 857 q 292 631 339 857 l 682 631 l 656 538 l 282 538 z "},"₺":{"ha":814,"x_min":44,"x_max":761,"o":"m 303 358 l 303 117 l 332 117 q 561 183 489 117 q 633 392 633 249 l 633 407 l 761 407 l 761 383 q 645 101 761 201 q 321 0 529 0 l 169 0 l 169 296 l 44 238 l 44 338 l 169 396 l 169 532 l 44 474 l 44 574 l 169 632 l 169 963 l 303 963 l 303 694 l 557 814 l 557 715 l 303 594 l 303 458 l 557 578 l 557 479 l 303 358 z "},"₹":{"ha":814,"x_min":117,"x_max":779,"o":"m 486 0 l 117 383 l 117 479 l 260 479 q 430 515 371 479 q 501 626 489 551 l 118 626 l 118 717 l 501 717 q 268 863 476 863 l 117 863 l 117 963 l 779 963 l 760 863 l 533 863 q 626 717 613 811 l 733 717 l 714 626 l 628 626 q 522 447 613 511 q 281 382 431 382 l 275 382 l 658 0 l 486 0 z "},"¤":{"ha":814,"x_min":47,"x_max":767,"o":"m 407 263 q 593 472 593 263 q 407 682 593 682 q 221 472 221 682 q 407 263 221 263 m 407 161 q 242 204 313 161 l 132 88 l 47 163 l 157 275 q 97 472 97 357 q 157 669 97 588 l 47 782 l 132 857 l 242 740 q 407 783 313 783 q 572 740 501 783 l 682 857 l 767 782 l 656 669 q 717 472 717 589 q 657 275 717 357 l 767 163 l 682 88 l 572 204 q 407 161 501 161 z "},"^":{"ha":814,"x_min":69,"x_max":744,"o":"m 610 421 l 407 840 l 201 421 l 69 421 l 349 963 l 465 963 l 744 421 l 610 421 z "},"+":{"ha":814,"x_min":93,"x_max":721,"o":"m 347 163 l 347 428 l 93 428 l 93 539 l 347 539 l 347 804 l 467 804 l 467 539 l 721 539 l 721 428 l 467 428 l 467 163 l 347 163 z "},"−":{"ha":814,"x_min":93,"x_max":721,"o":"m 93 428 l 93 539 l 721 539 l 721 428 l 93 428 z "},"±":{"ha":814,"x_min":93,"x_max":721,"o":"m 347 257 l 347 522 l 93 522 l 93 633 l 347 633 l 347 899 l 467 899 l 467 633 l 721 633 l 721 522 l 467 522 l 467 257 l 347 257 m 93 36 l 93 147 l 721 147 l 721 36 l 93 36 z "},"=":{"ha":814,"x_min":93,"x_max":721,"o":"m 93 276 l 93 388 l 721 388 l 721 276 l 93 276 m 93 582 l 93 693 l 721 693 l 721 582 l 93 582 z "},"≠":{"ha":814,"x_min":93,"x_max":721,"o":"m 160 146 l 233 275 l 93 275 l 93 386 l 297 386 l 408 582 l 93 582 l 93 693 l 469 693 l 544 825 l 654 825 l 579 693 l 721 693 l 721 582 l 515 582 l 404 386 l 721 386 l 721 275 l 343 275 l 269 146 l 160 146 z "},"÷":{"ha":814,"x_min":93,"x_max":721,"o":"m 407 153 q 349 176 372 153 q 326 233 326 199 q 349 292 326 269 q 407 315 371 315 q 465 293 443 315 q 488 233 488 271 q 465 176 488 199 q 407 153 443 153 m 93 428 l 93 539 l 721 539 l 721 428 l 93 428 m 407 651 q 349 674 372 651 q 326 732 326 697 q 349 791 326 768 q 407 814 371 814 q 465 791 443 814 q 488 732 488 768 q 465 674 488 696 q 407 651 443 651 z "},"<":{"ha":814,"x_min":104,"x_max":710,"o":"m 104 429 l 104 540 l 710 807 l 710 682 l 236 486 l 710 290 l 710 163 l 104 429 z "},">":{"ha":814,"x_min":104,"x_max":710,"o":"m 710 540 l 710 429 l 104 163 l 104 288 l 578 483 l 104 679 l 104 807 l 710 540 z "},"≤":{"ha":814,"x_min":93,"x_max":721,"o":"m 104 524 l 104 635 l 710 901 l 710 776 l 236 581 l 710 385 l 710 257 l 104 524 m 93 36 l 93 147 l 721 147 l 721 36 l 93 36 z "},"≥":{"ha":814,"x_min":93,"x_max":721,"o":"m 710 635 l 710 524 l 104 257 l 104 382 l 578 578 l 104 774 l 104 901 l 710 635 m 93 36 l 93 147 l 721 147 l 721 36 l 93 36 z "},"~":{"ha":814,"x_min":74,"x_max":740,"o":"m 79 368 q 74 432 74 390 q 119 560 74 514 q 244 607 164 607 q 425 533 326 607 q 507 479 481 492 q 563 467 533 467 q 613 487 596 467 q 632 550 629 507 l 636 599 l 735 599 q 740 535 740 576 q 695 406 740 453 q 569 360 650 360 q 389 433 488 360 q 307 488 333 475 q 251 500 281 500 q 201 480 218 500 q 182 417 185 460 l 178 368 l 79 368 z "},"≈":{"ha":814,"x_min":74,"x_max":740,"o":"m 79 210 q 74 274 74 232 q 119 402 74 356 q 244 449 164 449 q 425 375 326 449 q 507 321 481 333 q 563 308 533 308 q 613 328 596 308 q 632 392 629 349 l 636 440 l 735 440 q 740 376 740 418 q 695 248 740 294 q 569 201 650 201 q 389 275 488 201 q 307 329 333 317 q 251 342 281 342 q 201 322 218 342 q 182 258 185 301 l 178 210 l 79 210 m 79 529 q 74 593 74 551 q 119 722 74 675 q 244 768 164 768 q 425 694 326 768 q 507 640 481 653 q 563 628 533 628 q 613 648 596 628 q 632 711 629 668 l 636 760 l 735 760 q 740 696 740 738 q 695 567 740 614 q 569 521 650 521 q 389 594 488 521 q 307 649 333 636 q 251 661 281 661 q 201 641 218 661 q 182 578 185 621 l 178 529 l 79 529 z "},"×":{"ha":814,"x_min":125,"x_max":689,"o":"m 407 396 l 203 179 l 125 258 l 331 474 l 125 689 l 203 768 l 407 551 l 611 768 l 689 689 l 483 474 l 689 258 l 611 179 l 407 396 z "},"_":{"ha":694,"x_min":0,"x_max":694,"o":"m 0 -207 l 0 -96 l 694 -96 l 694 -207 l 0 -207 z "},"§":{"ha":660,"x_min":50,"x_max":610,"o":"m 50 425 q 88 540 50 493 q 190 603 125 586 q 72 776 72 658 q 142 928 72 872 q 332 983 213 983 q 549 938 439 983 l 549 840 q 338 876 432 876 q 233 853 267 876 q 199 781 199 829 q 220 724 199 746 q 301 678 242 701 l 424 629 q 567 541 525 589 q 610 421 610 493 q 483 238 610 288 q 583 75 583 178 q 509 -78 583 -22 q 304 -133 435 -133 q 174 -119 238 -133 q 63 -79 111 -106 l 63 18 q 300 -26 193 -26 q 457 75 457 -26 q 432 135 457 113 q 338 185 407 158 l 222 229 q 90 310 131 264 q 50 425 50 357 m 176 440 q 203 371 176 397 q 301 315 229 344 l 389 281 q 459 326 435 294 q 483 403 483 358 q 453 482 483 450 q 351 542 424 514 l 301 560 q 208 522 240 553 q 176 440 176 492 z "},"°":{"ha":522,"x_min":69,"x_max":453,"o":"m 261 588 q 122 640 174 588 q 69 781 69 693 q 122 921 69 868 q 261 974 174 974 q 401 921 349 974 q 453 781 453 868 q 401 640 453 693 q 261 588 349 588 m 261 668 q 333 698 307 668 q 358 781 358 728 q 333 863 358 833 q 261 893 307 893 q 190 863 215 893 q 164 781 164 833 q 190 698 164 728 q 261 668 215 668 z "},"µ":{"ha":814,"x_min":100,"x_max":806,"o":"m 100 704 l 238 704 l 238 236 q 374 90 238 90 q 469 108 425 90 q 561 165 514 126 l 561 704 l 699 704 l 699 160 q 712 117 699 131 q 757 104 725 104 q 806 108 781 104 l 806 10 q 710 -7 756 -7 q 578 82 607 -7 q 354 -21 472 -21 q 231 18 276 -21 l 231 -286 l 100 -286 l 100 704 z "},"¶":{"ha":839,"x_min":49,"x_max":717,"o":"m 601 -144 l 601 858 l 446 858 l 446 -286 l 331 -286 l 331 339 q 122 435 196 357 q 49 636 49 513 q 149 876 49 790 q 426 963 249 963 l 717 963 l 717 -144 l 601 -144 z "},"#":{"ha":814,"x_min":31,"x_max":783,"o":"m 160 256 l 31 256 l 31 353 l 175 353 l 215 615 l 72 615 l 72 713 l 231 713 l 271 963 l 376 963 l 336 713 l 549 713 l 589 963 l 694 963 l 654 713 l 783 713 l 783 615 l 639 615 l 599 353 l 742 353 l 742 256 l 583 256 l 543 0 l 438 0 l 478 256 l 265 256 l 225 0 l 119 0 l 160 256 m 281 353 l 493 353 l 533 615 l 321 615 l 281 353 z "},"|":{"ha":390,"x_min":125,"x_max":265,"o":"m 125 -286 l 125 1047 l 265 1047 l 265 -286 l 125 -286 z "},"¦":{"ha":390,"x_min":125,"x_max":265,"o":"m 125 -286 l 125 210 l 265 210 l 265 -286 l 125 -286 m 125 551 l 125 1047 l 265 1047 l 265 551 l 125 551 z "},"†":{"ha":685,"x_min":33,"x_max":651,"o":"m 403 624 l 414 -175 l 271 -175 l 282 624 l 33 615 l 33 726 l 282 718 l 271 1028 l 414 1028 l 403 718 l 651 726 l 651 615 l 403 624 z "},"‡":{"ha":685,"x_min":33,"x_max":651,"o":"m 271 -175 l 282 135 l 33 126 l 33 238 l 282 229 l 271 426 l 282 624 l 33 615 l 33 726 l 282 718 l 271 1028 l 414 1028 l 403 718 l 651 726 l 651 615 l 403 624 l 414 426 l 403 229 l 651 238 l 651 126 l 403 135 l 414 -175 l 271 -175 z "},"¬":{"ha":814,"x_min":93,"x_max":721,"o":"m 601 308 l 601 550 l 93 550 l 93 661 l 721 661 l 721 308 l 601 308 z "},"⁒":{"ha":814,"x_min":85,"x_max":729,"o":"m 183 851 q 112 880 139 851 q 85 951 85 908 q 112 1024 85 996 q 183 1051 139 1051 q 255 1023 228 1051 q 282 951 282 994 q 255 879 282 907 q 183 851 228 851 m 103 -200 l 574 1047 l 711 1047 l 240 -200 l 103 -200 m 631 -204 q 559 -176 586 -204 q 532 -104 532 -147 q 559 -32 532 -60 q 631 -4 586 -4 q 702 -33 675 -4 q 729 -104 729 -61 q 702 -176 729 -149 q 631 -204 675 -204 z "},"&":{"ha":1019,"x_min":51,"x_max":964,"o":"m 51 243 q 106 409 51 336 q 260 525 160 482 q 164 654 189 606 q 139 763 139 703 q 213 923 139 863 q 410 983 288 983 q 599 928 526 983 q 671 782 671 874 q 618 640 671 707 q 467 522 565 572 l 432 504 l 674 231 q 744 490 744 333 l 744 533 l 865 533 l 865 479 q 836 297 865 382 q 751 144 807 211 q 808 109 778 119 q 883 99 838 99 q 964 106 918 99 l 964 10 q 908 -4 942 1 q 843 -10 874 -10 q 753 8 796 -10 q 668 65 711 26 q 379 -22 543 -22 q 139 49 226 -22 q 51 243 51 119 m 386 88 q 589 144 504 88 l 321 454 q 182 254 182 382 q 235 131 182 174 q 386 88 288 88 m 267 760 q 288 681 267 717 q 372 572 308 644 l 422 599 q 515 676 482 631 q 547 771 547 721 q 510 852 547 821 q 413 883 472 883 q 306 850 346 883 q 267 760 267 817 z "},"*":{"ha":550,"x_min":50,"x_max":500,"o":"m 178 499 q 125 520 149 503 q 88 565 101 538 l 213 706 l 53 743 q 50 765 50 757 q 86 849 50 813 l 236 775 l 217 954 q 275 967 244 967 q 333 954 307 967 l 314 775 l 464 849 q 500 765 500 813 q 497 743 500 757 l 338 706 l 463 565 q 425 520 449 538 q 372 499 401 503 l 275 667 l 178 499 z "},"-":{"ha":542,"x_min":64,"x_max":478,"o":"m 64 301 l 64 418 l 478 418 l 478 301 l 64 301 z "},"–":{"ha":694,"x_min":0,"x_max":694,"o":"m 0 304 l 0 415 l 694 415 l 694 304 l 0 304 z "},"—":{"ha":1389,"x_min":0,"x_max":1389,"o":"m 0 304 l 0 415 l 1389 415 l 1389 304 l 0 304 z "},"(":{"ha":433,"x_min":85,"x_max":406,"o":"m 274 -200 q 133 97 182 -65 q 85 424 85 258 q 133 751 85 589 q 274 1047 182 913 l 406 1047 q 231 424 231 774 q 406 -200 231 74 l 274 -200 z "},")":{"ha":433,"x_min":28,"x_max":349,"o":"m 28 -200 q 203 424 203 74 q 28 1047 203 774 l 160 1047 q 300 751 251 913 q 349 424 349 589 q 300 97 349 258 q 160 -200 251 -65 l 28 -200 z "},"/":{"ha":656,"x_min":22,"x_max":633,"o":"m 22 -200 l 494 1047 l 633 1047 l 161 -200 l 22 -200 z "},"\\":{"ha":656,"x_min":22,"x_max":633,"o":"m 494 -200 l 22 1047 l 161 1047 l 633 -200 l 494 -200 z "},"[":{"ha":488,"x_min":117,"x_max":460,"o":"m 117 -200 l 117 1047 l 460 1047 l 460 936 l 258 936 l 258 -89 l 460 -89 l 460 -200 l 117 -200 z "},"]":{"ha":488,"x_min":28,"x_max":371,"o":"m 28 -200 l 28 -89 l 229 -89 l 229 936 l 28 936 l 28 1047 l 371 1047 l 371 -200 l 28 -200 z "},"{":{"ha":531,"x_min":40,"x_max":501,"o":"m 501 -190 q 388 -211 456 -211 q 227 -149 285 -211 q 169 24 169 -87 l 169 272 q 147 347 169 325 q 69 369 125 369 l 40 369 l 40 478 l 69 478 q 147 500 125 478 q 169 575 169 522 l 169 824 q 227 997 169 935 q 388 1058 285 1058 q 501 1038 456 1058 l 501 939 q 413 949 450 949 q 336 921 361 949 q 311 836 311 893 l 311 583 q 283 479 311 517 q 189 424 254 442 q 283 368 254 406 q 311 264 311 331 l 311 11 q 336 -74 311 -46 q 413 -101 361 -101 q 501 -92 450 -101 l 501 -190 z "},"}":{"ha":531,"x_min":29,"x_max":490,"o":"m 29 -92 q 118 -101 81 -101 q 194 -74 169 -101 q 219 11 219 -46 l 219 264 q 248 368 219 331 q 342 424 276 406 q 248 478 276 442 q 219 583 219 515 l 219 836 q 194 921 219 893 q 118 949 169 949 q 29 939 81 949 l 29 1038 q 143 1058 75 1058 q 303 997 246 1058 q 361 824 361 935 l 361 575 q 383 500 361 522 q 461 478 406 478 l 490 478 l 490 369 l 461 369 q 383 347 406 369 q 361 272 361 325 l 361 24 q 303 -149 361 -87 q 143 -211 246 -211 q 29 -190 75 -211 l 29 -92 z "},"•":{"ha":500,"x_min":61,"x_max":439,"o":"m 250 171 q 115 225 169 171 q 61 360 61 279 q 115 494 61 440 q 250 547 169 547 q 385 494 331 547 q 439 360 439 440 q 385 225 439 279 q 250 171 331 171 z "},"‹":{"ha":460,"x_min":64,"x_max":388,"o":"m 253 71 l 64 360 l 253 649 l 388 649 l 211 360 l 388 71 l 253 71 z "},"›":{"ha":460,"x_min":72,"x_max":396,"o":"m 72 71 l 249 360 l 72 649 l 207 649 l 396 360 l 207 71 l 72 71 z "},"«":{"ha":732,"x_min":64,"x_max":660,"o":"m 525 71 l 336 360 l 525 649 l 660 649 l 483 360 l 660 71 l 525 71 m 253 71 l 64 360 l 253 649 l 388 649 l 211 360 l 388 71 l 253 71 z "},"»":{"ha":732,"x_min":72,"x_max":668,"o":"m 344 71 l 521 360 l 344 649 l 479 649 l 668 360 l 479 71 l 344 71 m 72 71 l 249 360 l 72 649 l 207 649 l 396 360 l 207 71 l 72 71 z "},"@":{"ha":1329,"x_min":67,"x_max":1263,"o":"m 592 -197 q 826 -158 704 -197 l 826 -256 q 583 -303 711 -303 q 310 -240 426 -303 q 130 -57 193 -178 q 67 232 67 64 q 113 502 67 375 q 249 728 160 629 q 464 883 338 826 q 742 940 590 940 q 1015 881 899 940 q 1197 709 1132 822 q 1263 440 1263 596 q 1223 214 1263 317 q 1110 49 1183 111 q 944 -12 1038 -12 q 845 11 885 -12 q 788 79 806 35 q 690 9 744 33 q 579 -15 636 -15 q 424 51 481 -15 q 368 233 368 117 q 409 433 368 339 q 524 589 450 528 q 685 650 597 650 q 777 629 735 650 q 849 571 819 608 l 871 629 l 967 629 l 894 197 q 890 150 890 171 q 906 99 890 115 q 953 83 921 83 q 1048 128 1004 83 q 1119 256 1092 174 q 1146 440 1146 338 q 1038 731 1146 626 q 739 835 931 835 q 461 760 586 835 q 262 549 336 686 q 188 233 188 411 q 293 -85 188 26 q 592 -197 399 -197 m 615 86 q 778 163 700 86 q 782 208 778 178 l 829 497 q 704 549 778 549 q 601 510 649 549 q 525 401 554 471 q 496 246 496 331 q 526 127 496 168 q 615 86 557 86 z "},"·":{"ha":344,"x_min":82,"x_max":263,"o":"m 172 271 q 107 297 132 271 q 82 363 82 322 q 107 428 82 403 q 172 454 132 454 q 238 428 213 454 q 263 363 263 403 q 238 297 263 322 q 172 271 213 271 z "},"‐":{"ha":542,"x_min":64,"x_max":478,"o":"m 64 301 l 64 418 l 478 418 l 478 301 l 64 301 z "},"‒":{"ha":814,"x_min":60,"x_max":754,"o":"m 60 429 l 60 540 l 754 540 l 754 429 l 60 429 z "},"―":{"ha":1389,"x_min":0,"x_max":1389,"o":"m 0 304 l 0 415 l 1389 415 l 1389 304 l 0 304 z "},"­":{"ha":542,"x_min":64,"x_max":478,"o":"m 64 301 l 64 418 l 478 418 l 478 301 l 64 301 z "},"⟨":{"ha":454,"x_min":64,"x_max":424,"o":"m 289 -200 l 64 424 l 289 1047 l 424 1047 l 200 424 l 424 -200 l 289 -200 z "},"⟩":{"ha":454,"x_min":31,"x_max":390,"o":"m 165 1047 l 390 424 l 165 -200 l 31 -200 l 254 424 l 31 1047 l 165 1047 z "},"A":{"ha":892,"x_min":14,"x_max":878,"o":"m 731 0 l 642 256 l 246 256 l 160 0 l 14 0 l 369 963 l 522 963 l 878 0 l 731 0 m 282 363 l 606 363 l 443 835 l 282 363 z "},"B":{"ha":851,"x_min":117,"x_max":788,"o":"m 117 0 l 117 963 l 435 963 q 651 893 569 963 q 733 708 733 824 q 700 584 733 636 q 604 504 667 532 q 740 417 693 478 q 788 268 788 357 q 701 73 788 146 q 471 0 615 0 l 117 0 m 251 439 l 251 108 l 468 108 q 644 274 644 108 q 599 397 644 356 q 465 439 554 439 l 251 439 m 251 854 l 251 544 l 421 544 q 593 699 593 544 q 551 815 593 775 q 425 854 508 854 l 251 854 z "},"C":{"ha":843,"x_min":89,"x_max":794,"o":"m 794 26 q 551 -17 682 -17 q 206 109 324 -17 q 89 478 89 235 q 210 847 89 718 q 558 976 332 976 q 781 939 676 976 l 781 824 q 575 853 654 853 q 319 767 400 853 q 239 496 239 682 l 239 463 q 317 193 239 279 q 567 107 396 107 q 794 142 654 107 l 794 26 z "},"D":{"ha":958,"x_min":117,"x_max":869,"o":"m 117 0 l 117 963 l 433 963 q 758 840 646 963 q 869 481 869 717 q 756 124 869 247 q 429 0 642 0 l 117 0 m 258 851 l 258 111 l 414 111 q 724 465 724 111 l 724 497 q 646 763 724 674 q 414 851 568 851 l 258 851 z "},"E":{"ha":779,"x_min":117,"x_max":715,"o":"m 117 0 l 117 963 l 715 963 l 715 849 l 258 849 l 258 553 l 642 553 l 642 439 l 258 439 l 258 114 l 715 114 l 715 0 l 117 0 z "},"F":{"ha":728,"x_min":117,"x_max":688,"o":"m 117 0 l 117 963 l 688 963 l 688 849 l 258 849 l 258 539 l 613 539 l 613 425 l 258 425 l 258 0 l 117 0 z "},"G":{"ha":961,"x_min":89,"x_max":861,"o":"m 581 103 q 728 118 663 103 l 728 400 l 513 400 l 513 510 l 861 510 l 861 51 q 721 1 801 18 q 553 -17 640 -17 q 207 108 325 -17 q 89 475 89 233 q 210 848 89 719 q 560 976 331 976 q 828 919 706 976 l 828 808 q 575 857 686 857 q 317 769 399 857 q 235 493 235 681 l 235 463 q 319 190 235 278 q 581 103 403 103 z "},"H":{"ha":997,"x_min":117,"x_max":881,"o":"m 739 0 l 739 435 l 258 435 l 258 0 l 117 0 l 117 963 l 258 963 l 258 549 l 739 549 l 739 963 l 881 963 l 881 0 l 739 0 z "},"I":{"ha":386,"x_min":122,"x_max":264,"o":"m 122 0 l 122 963 l 264 963 l 264 0 l 122 0 z "},"J":{"ha":607,"x_min":36,"x_max":496,"o":"m 36 122 q 193 96 115 96 q 317 140 279 96 q 354 283 354 183 l 354 963 l 496 963 l 496 286 q 206 -24 496 -24 q 36 13 124 -24 l 36 122 z "},"K":{"ha":857,"x_min":117,"x_max":858,"o":"m 117 0 l 117 963 l 258 963 l 258 532 l 654 963 l 821 963 l 393 503 l 858 0 l 685 0 l 258 460 l 258 0 l 117 0 z "},"L":{"ha":728,"x_min":117,"x_max":713,"o":"m 117 0 l 117 963 l 258 963 l 258 117 l 713 117 l 713 0 l 117 0 z "},"M":{"ha":1167,"x_min":117,"x_max":1050,"o":"m 919 0 l 919 757 l 649 246 l 519 246 l 247 758 l 247 0 l 117 0 l 117 963 l 275 963 l 586 372 l 896 963 l 1050 963 l 1050 0 l 919 0 z "},"N":{"ha":992,"x_min":117,"x_max":875,"o":"m 247 765 l 247 0 l 117 0 l 117 963 l 271 963 l 744 193 l 744 963 l 875 963 l 875 0 l 719 0 l 247 765 z "},"O":{"ha":1079,"x_min":89,"x_max":990,"o":"m 235 481 q 313 194 235 292 q 540 96 392 96 q 767 194 689 96 q 844 481 844 293 q 767 766 844 668 q 540 864 689 864 q 313 766 390 864 q 235 481 235 668 m 89 481 q 142 748 89 635 q 297 922 194 861 q 540 983 399 983 q 870 849 750 983 q 990 481 990 715 q 938 213 990 326 q 783 38 885 100 q 540 -24 682 -24 q 301 35 403 -24 q 144 208 200 94 q 89 481 89 322 z "},"P":{"ha":833,"x_min":117,"x_max":772,"o":"m 254 372 l 254 0 l 117 0 l 117 963 l 465 963 q 689 883 606 963 q 772 667 772 803 q 689 452 772 532 q 465 372 606 372 l 254 372 m 254 485 l 453 485 q 585 531 540 485 q 629 667 629 578 q 453 850 629 850 l 254 850 l 254 485 z "},"Q":{"ha":1079,"x_min":89,"x_max":990,"o":"m 89 481 q 142 748 89 635 q 297 922 194 861 q 540 983 399 983 q 870 849 750 983 q 990 481 990 715 q 906 157 990 285 q 665 -8 821 29 q 982 -101 803 -89 l 982 -225 q 522 -22 735 -199 q 203 117 318 -17 q 89 481 89 250 m 235 481 q 313 194 235 292 q 540 96 392 96 q 767 194 689 96 q 844 481 844 293 q 767 766 844 668 q 540 864 689 864 q 313 766 390 864 q 235 481 235 668 z "},"R":{"ha":851,"x_min":117,"x_max":832,"o":"m 117 0 l 117 963 l 468 963 q 692 885 608 963 q 775 678 775 808 q 723 512 775 582 q 576 410 671 442 l 832 0 l 678 0 l 442 388 l 254 388 l 254 0 l 117 0 m 254 500 l 450 500 q 585 544 539 500 q 632 676 632 589 q 588 806 632 763 q 456 850 543 850 l 254 850 l 254 500 z "},"S":{"ha":792,"x_min":81,"x_max":718,"o":"m 297 457 q 132 561 183 500 q 81 715 81 622 q 119 853 81 793 q 231 949 158 914 q 403 983 304 983 q 660 933 528 983 l 660 821 q 413 864 519 864 q 273 827 322 864 q 224 722 224 790 q 257 634 224 667 q 381 568 290 601 l 507 521 q 669 420 619 479 q 718 268 718 361 q 623 56 718 135 q 367 -24 528 -24 q 89 33 207 -24 l 89 144 q 364 96 235 96 q 519 139 463 96 q 575 256 575 182 q 542 341 575 307 q 432 406 510 375 l 297 457 z "},"T":{"ha":797,"x_min":21,"x_max":776,"o":"m 328 0 l 328 846 l 21 846 l 21 963 l 776 963 l 776 846 l 469 846 l 469 0 l 328 0 z "},"U":{"ha":981,"x_min":111,"x_max":869,"o":"m 728 963 l 869 963 l 869 351 q 772 74 869 171 q 490 -24 674 -24 q 209 73 307 -24 q 111 351 111 169 l 111 963 l 253 963 l 253 339 q 314 159 253 222 q 490 96 375 96 q 667 159 606 96 q 728 339 728 222 l 728 963 z "},"V":{"ha":889,"x_min":14,"x_max":875,"o":"m 368 0 l 14 963 l 169 963 l 447 142 l 725 963 l 875 963 l 521 0 l 368 0 z "},"W":{"ha":1290,"x_min":24,"x_max":1267,"o":"m 828 0 l 646 754 l 463 0 l 304 0 l 24 963 l 178 963 l 385 156 l 569 935 l 725 935 l 910 154 l 1118 963 l 1267 963 l 986 0 l 828 0 z "},"X":{"ha":839,"x_min":11,"x_max":828,"o":"m 665 0 l 415 397 l 168 0 l 11 0 l 339 497 l 32 963 l 193 963 l 422 601 l 649 963 l 806 963 l 499 501 l 828 0 l 665 0 z "},"Y":{"ha":839,"x_min":19,"x_max":819,"o":"m 347 0 l 347 354 l 19 963 l 176 963 l 419 469 l 667 963 l 819 963 l 486 351 l 486 0 l 347 0 z "},"Z":{"ha":804,"x_min":58,"x_max":746,"o":"m 58 0 l 58 108 l 592 847 l 89 847 l 89 963 l 746 963 l 746 854 l 211 115 l 746 115 l 746 0 l 58 0 z "},"a":{"ha":732,"x_min":58,"x_max":631,"o":"m 517 0 l 506 72 q 395 6 456 29 q 275 -18 335 -18 q 117 38 176 -18 q 58 189 58 94 q 131 351 58 290 q 325 411 203 411 q 500 388 406 411 l 500 479 q 466 585 500 554 q 350 615 432 615 q 106 572 232 615 l 106 669 q 228 710 156 696 q 374 725 300 725 q 568 670 506 725 q 631 503 631 615 l 631 0 l 517 0 m 308 86 q 500 157 403 86 l 500 299 q 353 317 428 317 q 196 196 196 317 q 225 115 196 143 q 308 86 254 86 z "},"b":{"ha":822,"x_min":103,"x_max":756,"o":"m 103 0 l 103 1028 l 240 1028 l 240 638 q 465 725 344 725 q 678 628 600 725 q 756 361 756 531 q 674 88 756 190 q 456 -15 592 -15 q 232 74 328 -15 l 217 0 l 103 0 m 426 614 q 240 550 328 614 l 240 163 q 424 96 328 96 q 615 354 615 96 q 569 550 615 486 q 426 614 522 614 z "},"c":{"ha":640,"x_min":67,"x_max":590,"o":"m 590 26 q 404 -15 510 -15 q 153 78 240 -15 q 67 350 67 172 q 156 623 67 526 q 410 719 246 719 q 585 681 503 719 l 585 582 q 429 607 506 607 q 261 548 313 607 q 210 360 210 489 l 210 342 q 262 156 210 215 q 426 97 314 97 q 590 125 501 97 l 590 26 z "},"d":{"ha":819,"x_min":67,"x_max":717,"o":"m 603 0 l 585 72 q 481 8 539 31 q 363 -15 422 -15 q 208 28 275 -15 q 104 153 142 71 q 67 349 67 236 q 103 546 67 461 q 206 678 139 631 q 367 725 274 725 q 579 647 485 725 l 579 1028 l 717 1028 l 717 0 l 603 0 m 404 96 q 579 160 490 96 l 579 553 q 492 599 536 585 q 396 614 449 614 q 207 353 207 614 q 404 96 207 96 z "},"e":{"ha":735,"x_min":67,"x_max":672,"o":"m 200 322 q 259 146 203 203 q 433 89 315 89 q 657 132 543 89 l 657 33 q 413 -21 557 -21 q 154 74 242 -21 q 67 353 67 168 q 154 627 67 529 q 399 725 242 725 q 601 651 531 725 q 672 440 672 576 q 661 322 672 375 l 200 322 m 392 621 q 256 569 304 621 q 200 414 207 517 l 546 414 q 547 450 547 425 q 508 578 547 535 q 392 621 468 621 z "},"f":{"ha":518,"x_min":25,"x_max":517,"o":"m 156 0 l 156 596 l 25 596 l 25 685 l 156 701 l 156 815 q 378 1047 156 1047 q 517 1022 456 1047 l 517 925 q 408 936 446 936 q 319 912 344 936 q 293 832 293 888 l 293 704 l 508 704 l 508 596 l 293 596 l 293 0 l 156 0 z "},"g":{"ha":806,"x_min":67,"x_max":703,"o":"m 567 96 q 465 34 519 56 q 356 13 411 13 q 206 54 271 13 q 103 176 140 96 q 67 363 67 256 q 146 627 67 529 q 358 725 225 725 q 576 639 483 725 l 588 704 l 703 704 l 703 43 q 615 -212 703 -122 q 364 -303 526 -303 q 124 -247 233 -303 l 124 -149 q 353 -192 251 -192 q 515 -138 464 -192 q 567 33 567 -85 l 567 96 m 396 124 q 567 188 482 124 l 567 553 q 482 599 525 585 q 388 614 439 614 q 207 368 207 614 q 255 185 207 247 q 396 124 303 124 z "},"h":{"ha":817,"x_min":103,"x_max":717,"o":"m 579 0 l 579 471 q 549 579 579 544 q 456 614 519 614 q 240 543 346 614 l 240 0 l 103 0 l 103 1028 l 240 1028 l 240 632 q 510 725 372 725 q 664 672 611 725 q 717 517 717 618 l 717 0 l 579 0 z "},"i":{"ha":354,"x_min":92,"x_max":264,"o":"m 108 0 l 108 704 l 246 704 l 246 0 l 108 0 m 178 829 q 115 852 138 829 q 92 913 92 875 q 115 973 92 950 q 178 996 138 996 q 241 973 218 996 q 264 913 264 950 q 241 852 264 875 q 178 829 218 829 z "},"j":{"ha":354,"x_min":-47,"x_max":264,"o":"m 108 704 l 246 704 l 246 -118 q 201 -256 246 -208 q 71 -303 157 -303 q -47 -285 13 -303 l -47 -186 q 35 -192 -15 -192 q 91 -177 74 -192 q 108 -129 108 -162 l 108 704 m 178 829 q 115 852 138 829 q 92 913 92 875 q 115 973 92 950 q 178 996 138 996 q 241 973 218 996 q 264 913 264 950 q 241 852 264 875 q 178 829 218 829 z "},"k":{"ha":731,"x_min":103,"x_max":729,"o":"m 103 0 l 103 1028 l 240 1028 l 240 397 l 539 704 l 707 704 l 374 369 l 729 0 l 556 0 l 240 333 l 240 0 l 103 0 z "},"l":{"ha":396,"x_min":103,"x_max":354,"o":"m 354 10 q 254 -7 308 -7 q 142 35 181 -7 q 103 157 103 78 l 103 1028 l 240 1028 l 240 165 q 253 119 240 133 q 297 104 267 104 q 354 108 325 104 l 354 10 z "},"m":{"ha":1240,"x_min":103,"x_max":1140,"o":"m 1003 0 l 1003 478 q 976 581 1003 547 q 893 614 950 614 q 689 551 792 614 q 690 531 690 542 q 690 508 690 519 l 690 0 l 553 0 l 553 478 q 526 581 553 547 q 443 614 500 614 q 240 553 338 614 l 240 0 l 103 0 l 103 704 l 218 704 l 232 633 q 492 725 365 725 q 667 626 621 725 q 942 725 804 725 q 1089 671 1038 725 q 1140 517 1140 617 l 1140 0 l 1003 0 z "},"n":{"ha":817,"x_min":103,"x_max":717,"o":"m 579 0 l 579 471 q 549 579 579 544 q 456 614 519 614 q 240 543 346 614 l 240 0 l 103 0 l 103 704 l 218 704 l 232 626 q 510 725 364 725 q 664 672 611 725 q 717 517 717 618 l 717 0 l 579 0 z "},"o":{"ha":806,"x_min":67,"x_max":739,"o":"m 403 -21 q 156 78 244 -21 q 67 353 67 176 q 156 626 67 528 q 403 725 244 725 q 650 626 561 725 q 739 353 739 528 q 650 78 739 176 q 403 -21 561 -21 m 403 90 q 599 353 599 90 q 403 614 599 614 q 207 353 207 614 q 403 90 207 90 z "},"p":{"ha":822,"x_min":103,"x_max":756,"o":"m 103 -286 l 103 704 l 218 704 l 231 632 q 465 725 336 725 q 678 627 600 725 q 756 361 756 529 q 674 88 756 190 q 456 -15 592 -15 q 240 67 331 -15 l 240 -286 l 103 -286 m 426 614 q 240 550 328 614 l 240 163 q 424 96 331 96 q 615 354 615 96 q 569 550 615 486 q 426 614 522 614 z "},"q":{"ha":819,"x_min":67,"x_max":717,"o":"m 579 -286 l 579 67 q 477 6 533 28 q 363 -15 421 -15 q 208 28 275 -15 q 104 153 142 71 q 67 349 67 236 q 102 546 67 461 q 206 678 138 631 q 365 725 274 725 q 590 638 497 725 l 601 704 l 717 704 l 717 -286 l 579 -286 m 404 96 q 579 160 490 96 l 579 553 q 492 599 536 585 q 396 614 449 614 q 207 353 207 614 q 404 96 207 96 z "},"r":{"ha":518,"x_min":103,"x_max":506,"o":"m 103 0 l 103 704 l 218 704 l 233 600 q 306 665 272 642 q 374 699 339 688 q 449 710 408 710 q 506 706 475 710 l 506 581 q 431 586 461 586 q 240 519 319 586 l 240 0 l 103 0 z "},"s":{"ha":600,"x_min":53,"x_max":561,"o":"m 433 189 q 412 243 433 222 q 333 285 390 264 l 215 329 q 61 524 61 386 q 131 669 61 614 q 315 725 201 725 q 522 681 425 725 l 522 583 q 322 618 414 618 q 189 528 189 618 q 211 471 189 492 q 299 425 233 450 l 407 383 q 525 308 489 351 q 561 194 561 264 q 488 38 561 96 q 292 -21 414 -21 q 53 32 154 -21 l 53 129 q 294 86 183 86 q 398 113 363 86 q 433 189 433 139 z "},"t":{"ha":532,"x_min":19,"x_max":499,"o":"m 499 17 q 344 -10 431 -10 q 147 188 147 -10 l 147 596 l 19 596 l 19 685 l 151 701 l 172 901 l 285 901 l 285 704 l 493 704 l 493 596 l 285 596 l 285 194 q 308 122 285 143 q 386 101 331 101 q 499 115 443 101 l 499 17 z "},"u":{"ha":799,"x_min":97,"x_max":696,"o":"m 582 0 l 567 75 q 301 -21 438 -21 q 150 35 203 -21 q 97 192 97 90 l 97 704 l 235 704 l 235 236 q 264 126 235 161 q 357 90 293 90 q 558 157 457 90 l 558 704 l 696 704 l 696 0 l 582 0 z "},"v":{"ha":708,"x_min":11,"x_max":697,"o":"m 288 0 l 11 704 l 158 704 l 357 125 l 556 704 l 697 704 l 422 0 l 288 0 z "},"w":{"ha":1068,"x_min":13,"x_max":1056,"o":"m 681 0 l 531 551 l 382 0 l 243 0 l 13 704 l 157 704 l 315 140 l 465 704 l 603 704 l 753 133 l 915 704 l 1056 704 l 819 0 l 681 0 z "},"x":{"ha":668,"x_min":10,"x_max":658,"o":"m 506 0 l 329 269 l 156 0 l 10 0 l 258 361 l 24 704 l 175 704 l 336 458 l 496 704 l 640 704 l 407 369 l 658 0 l 506 0 z "},"y":{"ha":707,"x_min":10,"x_max":697,"o":"m 293 -7 l 10 704 l 157 704 l 360 128 l 556 704 l 697 704 l 376 -124 q 290 -261 340 -219 q 161 -303 239 -303 q 53 -283 103 -303 l 53 -185 q 132 -194 90 -194 q 213 -169 183 -194 q 267 -78 243 -143 l 293 -7 z "},"z":{"ha":661,"x_min":50,"x_max":611,"o":"m 50 0 l 50 106 l 454 596 l 64 596 l 64 704 l 607 704 l 607 600 l 197 108 l 611 108 l 611 0 l 50 0 z "},"™":{"ha":1160,"x_min":21,"x_max":1086,"o":"m 988 429 l 988 807 l 864 561 l 767 561 l 643 807 l 643 429 l 544 429 l 544 963 l 658 963 l 817 653 l 975 963 l 1086 963 l 1086 429 l 988 429 m 188 429 l 188 876 l 21 876 l 21 963 l 461 963 l 461 876 l 294 876 l 294 429 l 188 429 z "},"ⁿ":{"ha":601,"x_min":67,"x_max":538,"o":"m 429 542 l 429 904 q 406 982 429 957 q 335 1007 383 1007 q 256 992 299 1007 q 175 953 214 978 l 175 542 l 67 542 l 67 1083 l 158 1083 l 168 1019 q 379 1097 275 1097 q 497 1056 456 1097 q 538 939 538 1015 l 538 542 l 429 542 z "},"ª":{"ha":554,"x_min":47,"x_max":465,"o":"m 372 481 l 363 531 q 200 467 285 467 q 89 506 131 467 q 47 610 47 546 q 100 722 47 682 q 246 763 153 763 q 358 747 301 763 l 358 810 q 336 876 358 857 q 260 894 314 894 q 82 863 178 894 l 82 938 q 279 979 165 979 q 419 941 374 979 q 465 824 465 903 l 465 481 l 372 481 m 465 383 l 465 300 l 57 300 l 57 383 l 465 383 m 232 546 q 358 588 290 546 l 358 683 q 261 693 310 693 q 154 615 154 693 q 175 564 154 582 q 232 546 196 546 z "},"º":{"ha":581,"x_min":56,"x_max":525,"o":"m 511 383 l 511 300 l 72 300 l 72 383 l 511 383 m 290 463 q 118 531 181 463 q 56 721 56 600 q 118 910 56 840 q 290 979 181 979 q 463 910 400 979 q 525 721 525 840 q 463 531 525 600 q 290 463 400 463 m 290 550 q 383 590 354 550 q 413 721 413 631 q 383 851 413 810 q 290 892 353 892 q 198 851 228 892 q 168 721 168 810 q 197 590 168 631 q 290 550 226 550 z "},"℅":{"ha":1328,"x_min":56,"x_max":1272,"o":"m 1017 -21 q 829 55 897 -21 q 761 261 761 131 q 830 467 761 390 q 1017 543 899 543 q 1204 467 1136 543 q 1272 261 1272 392 q 1203 56 1272 132 q 1017 -21 1135 -21 m 1017 69 q 1124 115 1090 69 q 1157 260 1157 161 q 1124 407 1157 361 q 1017 453 1090 453 q 910 407 943 453 q 876 263 876 361 q 910 115 876 161 q 1017 69 943 69 m 447 446 q 313 418 379 418 q 123 492 190 418 q 56 700 56 565 q 124 907 56 832 q 314 982 193 982 q 442 954 383 982 l 442 869 q 324 888 388 888 q 211 844 247 888 q 175 714 175 801 l 175 689 q 213 557 175 600 q 329 514 250 514 q 447 533 381 514 l 447 446 m 354 0 l 817 963 l 929 963 l 467 0 l 354 0 z "},"©":{"ha":1075,"x_min":36,"x_max":1039,"o":"m 538 -24 q 283 38 397 -24 q 103 215 169 100 q 36 479 36 331 q 98 735 36 621 q 274 915 160 849 q 538 982 389 982 q 792 920 678 982 q 972 743 906 858 q 1039 479 1039 628 q 977 224 1039 338 q 801 43 915 110 q 538 -24 686 -24 m 538 64 q 743 115 653 64 q 885 260 833 165 q 938 479 938 354 q 889 692 938 599 q 749 840 840 786 q 538 894 658 894 q 332 844 422 894 q 190 699 242 793 q 138 479 138 604 q 186 266 138 360 q 326 118 235 172 q 538 64 417 64 m 701 232 q 567 204 633 204 q 376 278 443 204 q 310 486 310 351 q 378 694 310 619 q 568 768 446 768 q 696 740 638 768 l 696 656 q 578 674 642 674 q 428 500 428 674 l 428 475 q 466 343 428 386 q 583 300 504 300 q 701 319 635 300 l 701 232 z "},"®":{"ha":742,"x_min":36,"x_max":706,"o":"m 371 382 q 201 423 276 382 q 81 540 125 464 q 36 714 36 615 q 78 884 36 808 q 196 1003 119 960 q 371 1047 272 1047 q 541 1006 465 1047 q 661 890 617 965 q 706 715 706 814 q 664 545 706 621 q 546 426 622 469 q 371 382 469 382 m 371 440 q 564 515 492 440 q 636 715 636 590 q 564 914 636 839 q 371 989 492 989 q 178 914 250 989 q 106 714 106 839 q 178 515 106 590 q 371 440 250 440 m 250 536 l 250 900 l 386 900 q 478 869 444 900 q 511 785 511 839 q 492 724 511 750 q 440 686 474 699 l 536 536 l 457 536 l 375 675 l 321 675 l 321 536 l 250 536 m 321 731 l 374 731 q 436 783 436 731 q 422 826 436 810 q 382 842 407 842 l 321 842 l 321 731 z "},"℗":{"ha":1075,"x_min":36,"x_max":1039,"o":"m 538 -24 q 283 38 397 -24 q 103 215 169 100 q 36 479 36 331 q 98 735 36 621 q 274 915 160 849 q 538 982 389 982 q 792 920 678 982 q 972 743 906 858 q 1039 479 1039 628 q 977 224 1039 338 q 801 43 915 110 q 538 -24 686 -24 m 538 64 q 743 115 653 64 q 885 260 833 165 q 938 479 938 354 q 889 692 938 599 q 749 840 840 786 q 538 894 658 894 q 332 844 422 894 q 190 699 242 793 q 138 479 138 604 q 186 266 138 360 q 326 118 235 172 q 538 64 417 64 m 382 204 l 382 753 l 574 753 q 706 703 657 753 q 756 574 756 654 q 706 444 756 493 q 574 394 657 394 l 488 394 l 488 204 l 382 204 m 488 476 l 564 476 q 627 501 606 476 q 649 572 649 526 q 564 671 649 671 l 488 671 l 488 476 z "},"∂":{"ha":814,"x_min":54,"x_max":744,"o":"m 421 983 q 661 877 578 983 q 744 571 744 771 q 642 131 744 283 q 347 -21 540 -21 q 133 56 211 -21 q 54 261 54 132 q 95 425 54 353 q 212 539 136 497 q 388 581 288 581 q 505 562 446 581 q 611 508 564 543 q 612 539 611 524 q 613 571 613 554 q 401 869 613 869 q 174 790 301 869 l 174 903 q 421 983 290 983 m 358 93 q 519 174 457 93 q 601 408 581 254 q 403 476 507 476 q 248 421 304 476 q 192 269 192 365 q 235 139 192 185 q 358 93 278 93 z "},"∏":{"ha":814,"x_min":51,"x_max":763,"o":"m 625 -167 l 625 853 l 189 853 l 189 -167 l 51 -167 l 51 963 l 763 963 l 763 -167 l 625 -167 z "},"∑":{"ha":814,"x_min":50,"x_max":776,"o":"m 50 -167 l 50 -53 l 357 401 l 63 849 l 63 963 l 735 963 l 735 849 l 210 849 l 506 400 l 196 -53 l 776 -53 l 776 -167 l 50 -167 z "},"∕":{"ha":814,"x_min":119,"x_max":694,"o":"m 119 0 l 582 963 l 694 963 l 232 0 l 119 0 z "},"∙":{"ha":814,"x_min":317,"x_max":497,"o":"m 407 358 q 342 384 367 358 q 317 450 317 410 q 342 516 317 490 q 407 542 367 542 q 472 516 447 542 q 497 450 497 490 q 472 384 497 410 q 407 358 447 358 z "},"√":{"ha":814,"x_min":60,"x_max":825,"o":"m 694 1028 l 825 1028 l 472 0 l 326 0 l 171 397 l 60 397 l 60 503 l 264 503 l 397 133 l 694 1028 z "},"∞":{"ha":814,"x_min":13,"x_max":801,"o":"m 606 269 q 498 300 546 269 q 404 400 450 331 q 310 299 357 329 q 201 269 264 269 q 65 328 118 269 q 13 476 13 386 q 67 626 13 567 q 207 686 122 686 q 315 654 267 686 q 407 551 363 622 q 503 655 456 624 q 611 686 550 686 q 748 627 694 686 q 801 476 801 568 q 746 328 801 388 q 606 269 690 269 m 601 593 q 525 567 557 593 q 451 475 493 542 q 521 389 486 415 q 601 363 556 363 q 670 394 643 363 q 697 476 697 426 q 671 560 697 528 q 601 593 644 593 m 213 363 q 290 388 257 363 q 361 475 322 413 q 291 566 325 539 q 213 593 257 593 q 143 560 169 593 q 117 476 117 528 q 144 394 117 426 q 213 363 171 363 z "},"∫":{"ha":814,"x_min":140,"x_max":675,"o":"m 265 -303 q 140 -281 192 -303 l 140 -182 q 233 -192 193 -192 q 339 -90 339 -192 l 339 817 q 394 986 339 925 q 551 1047 450 1047 q 675 1025 624 1047 l 675 926 q 582 936 622 936 q 476 835 476 936 l 476 -72 q 421 -242 476 -181 q 265 -303 365 -303 z "},"◊":{"ha":814,"x_min":53,"x_max":761,"o":"m 340 0 l 53 481 l 340 963 l 474 963 l 761 481 l 474 0 l 340 0 m 621 481 l 407 846 l 193 481 l 407 117 l 621 481 z "},"∆":{"ha":814,"x_min":15,"x_max":800,"o":"m 15 0 l 15 108 l 331 963 l 485 963 l 800 108 l 800 0 l 15 0 m 404 835 l 158 110 l 654 110 l 404 835 z "},"ℓ":{"ha":569,"x_min":42,"x_max":528,"o":"m 42 281 l 147 356 l 147 815 q 199 985 147 924 q 339 1047 250 1047 q 478 985 428 1047 q 528 814 528 922 q 463 548 528 671 q 274 331 399 425 l 274 188 q 360 83 274 83 q 488 111 415 83 l 488 14 q 331 -22 417 -22 q 196 28 244 -22 q 147 171 147 79 l 147 242 l 42 169 l 42 281 m 274 450 q 374 608 338 513 q 410 810 410 703 q 342 943 410 943 q 290 914 307 943 q 274 824 274 885 l 274 450 z "},"№":{"ha":1453,"x_min":117,"x_max":1397,"o":"m 236 774 l 236 0 l 117 0 l 117 963 l 264 963 l 703 186 l 703 963 l 822 963 l 822 0 l 675 0 l 236 774 m 1171 463 q 1003 530 1063 463 q 944 721 944 597 q 1003 910 944 842 q 1171 979 1063 979 q 1338 910 1279 979 q 1397 721 1397 842 q 1338 530 1397 597 q 1171 463 1279 463 m 1171 546 q 1263 590 1232 546 q 1294 721 1294 635 q 1263 851 1294 807 q 1171 896 1231 896 q 1079 851 1111 896 q 1047 721 1047 807 q 1078 590 1047 635 q 1171 546 1110 546 m 1382 382 l 1382 301 l 961 301 l 961 382 l 1382 382 z "},"℮":{"ha":1225,"x_min":75,"x_max":1150,"o":"m 275 186 q 288 156 275 169 q 613 22 404 22 q 804 61 715 22 q 953 172 893 100 l 1039 172 q 858 36 969 85 q 613 -12 746 -12 q 338 48 460 -12 q 146 220 217 108 q 75 478 75 332 q 142 728 75 615 q 331 908 208 840 q 611 975 454 975 q 885 915 763 975 q 1078 743 1007 854 q 1150 488 1150 632 l 1150 467 l 283 467 q 275 458 275 467 l 275 186 m 943 497 q 951 506 951 497 l 951 774 q 939 808 951 794 q 790 906 876 871 q 611 940 704 940 q 286 804 408 940 q 275 769 275 790 l 275 506 q 283 497 275 497 l 943 497 z "},"‘":{"ha":344,"x_min":78,"x_max":268,"o":"m 268 963 l 211 611 l 160 611 q 97 624 117 611 q 78 663 78 636 q 96 739 78 686 l 172 963 l 268 963 z "},"’":{"ha":344,"x_min":76,"x_max":267,"o":"m 76 611 l 133 963 l 186 963 q 267 911 267 963 q 249 835 267 885 l 172 611 l 76 611 z "},"‚":{"ha":344,"x_min":76,"x_max":267,"o":"m 76 -203 l 133 149 l 186 149 q 267 97 267 149 q 249 21 267 71 l 172 -203 l 76 -203 z "},"“":{"ha":588,"x_min":78,"x_max":511,"o":"m 511 963 l 454 611 l 403 611 q 340 624 360 611 q 321 663 321 636 q 339 739 321 686 l 415 963 l 511 963 m 268 963 l 211 611 l 160 611 q 97 624 117 611 q 78 663 78 636 q 96 739 78 686 l 172 963 l 268 963 z "},"”":{"ha":588,"x_min":76,"x_max":510,"o":"m 76 611 l 133 963 l 186 963 q 267 911 267 963 q 249 835 267 885 l 172 611 l 76 611 m 319 611 l 376 963 l 429 963 q 510 911 510 963 q 492 835 510 885 l 415 611 l 319 611 z "},"„":{"ha":588,"x_min":76,"x_max":510,"o":"m 76 -203 l 133 149 l 186 149 q 267 97 267 149 q 249 21 267 71 l 172 -203 l 76 -203 m 319 -203 l 376 149 l 429 149 q 510 97 510 149 q 492 21 510 71 l 415 -203 l 319 -203 z "},"‛":{"ha":344,"x_min":78,"x_max":268,"o":"m 172 611 l 96 835 q 78 911 78 888 q 97 950 78 938 q 160 963 117 963 l 211 963 l 268 611 l 172 611 z "},"‟":{"ha":588,"x_min":78,"x_max":511,"o":"m 172 611 l 96 835 q 78 911 78 888 q 97 950 78 938 q 160 963 117 963 l 211 963 l 268 611 l 172 611 m 415 611 l 339 835 q 321 911 321 888 q 340 950 321 938 q 403 963 360 963 l 454 963 l 511 611 l 415 611 z "},"ʻ":{"ha":343,"x_min":65,"x_max":299,"o":"m 299 929 q 207 707 222 828 q 201 599 201 672 l 143 599 q 84 613 103 599 q 65 660 65 628 q 113 829 67 739 q 231 979 160 919 l 299 929 z "},"ʼ":{"ha":343,"x_min":44,"x_max":278,"o":"m 44 632 q 136 854 121 733 q 142 963 142 889 l 200 963 q 259 948 240 963 q 278 901 278 933 q 230 732 276 822 q 113 582 183 642 l 44 632 z "},"′":{"ha":368,"x_min":75,"x_max":324,"o":"m 172 658 l 75 658 l 172 961 q 251 979 211 979 q 324 961 290 979 l 172 658 z "},"″":{"ha":610,"x_min":75,"x_max":565,"o":"m 414 658 l 317 658 l 414 961 q 493 979 453 979 q 565 961 532 979 l 414 658 m 172 658 l 75 658 l 172 961 q 251 979 211 979 q 324 961 290 979 l 172 658 z "},"ʹ":{"ha":368,"x_min":75,"x_max":324,"o":"m 172 658 l 75 658 l 172 961 q 251 979 211 979 q 324 961 290 979 l 172 658 z "},"ʺ":{"ha":610,"x_min":75,"x_max":565,"o":"m 414 658 l 317 658 l 414 961 q 493 979 453 979 q 565 961 532 979 l 414 658 m 172 658 l 75 658 l 172 961 q 251 979 211 979 q 324 961 290 979 l 172 658 z "},"ı":{"ha":354,"x_min":108,"x_max":246,"o":"m 108 0 l 108 704 l 246 704 l 246 0 l 108 0 z "},"ȷ":{"ha":354,"x_min":-47,"x_max":246,"o":"m 108 704 l 246 704 l 246 -118 q 201 -256 246 -208 q 71 -303 157 -303 q -47 -285 13 -303 l -47 -186 q 35 -192 -15 -192 q 91 -177 74 -192 q 108 -129 108 -162 l 108 704 z "},"Ĳ":{"ha":964,"x_min":122,"x_max":853,"o":"m 393 122 q 550 96 472 96 q 674 140 636 96 q 711 283 711 183 l 711 963 l 853 963 l 853 286 q 563 -24 853 -24 q 393 13 481 -24 l 393 122 m 122 0 l 122 963 l 264 963 l 264 0 l 122 0 z "},"Ŀ":{"ha":728,"x_min":117,"x_max":713,"o":"m 117 0 l 117 963 l 258 963 l 258 117 l 713 117 l 713 0 l 117 0 m 540 443 q 481 465 504 443 q 457 524 457 488 q 481 581 457 558 q 540 604 504 604 q 600 581 576 604 q 624 524 624 558 q 600 465 624 488 q 540 443 576 443 z "},"ĳ":{"ha":708,"x_min":92,"x_max":618,"o":"m 463 704 l 600 704 l 600 -118 q 556 -256 600 -208 q 425 -303 511 -303 q 307 -285 367 -303 l 307 -186 q 389 -192 339 -192 q 445 -177 428 -192 q 463 -129 463 -162 l 463 704 m 532 829 q 469 852 492 829 q 446 913 446 875 q 469 973 446 950 q 532 996 492 996 q 595 973 572 996 q 618 913 618 950 q 595 852 618 875 q 532 829 572 829 m 108 0 l 108 704 l 246 704 l 246 0 l 108 0 m 178 829 q 115 852 138 829 q 92 913 92 875 q 115 973 92 950 q 178 996 138 996 q 241 973 218 996 q 264 913 264 950 q 241 852 264 875 q 178 829 218 829 z "},"ŀ":{"ha":521,"x_min":103,"x_max":517,"o":"m 354 10 q 254 -7 308 -7 q 142 35 181 -7 q 103 157 103 78 l 103 1028 l 240 1028 l 240 165 q 253 119 240 133 q 297 104 267 104 q 354 108 325 104 l 354 10 m 433 428 q 374 450 397 428 q 350 508 350 472 q 374 566 350 543 q 433 589 397 589 q 493 566 469 589 q 517 508 517 543 q 493 450 517 472 q 433 428 469 428 z "},"ŉ":{"ha":1042,"x_min":76,"x_max":942,"o":"m 804 0 l 804 471 q 774 579 804 544 q 681 614 744 614 q 465 543 571 614 l 465 0 l 328 0 l 328 704 l 443 704 l 457 626 q 735 725 589 725 q 889 672 836 725 q 942 517 942 618 l 942 0 l 804 0 m 76 611 l 133 963 l 186 963 q 267 911 267 963 q 249 835 267 885 l 172 611 l 76 611 z "},"ﬀ":{"ha":979,"x_min":25,"x_max":978,"o":"m 156 0 l 156 596 l 25 596 l 25 685 l 156 701 l 156 815 q 378 1047 156 1047 q 517 1022 456 1047 l 517 925 q 408 936 446 936 q 319 912 344 936 q 293 832 293 888 l 293 704 l 617 704 l 617 815 q 839 1047 617 1047 q 978 1022 917 1047 l 978 925 q 869 936 907 936 q 780 912 806 936 q 754 832 754 888 l 754 704 l 969 704 l 969 596 l 754 596 l 754 0 l 617 0 l 617 596 l 293 596 l 293 0 l 156 0 z "},"ﬁ":{"ha":863,"x_min":25,"x_max":772,"o":"m 156 0 l 156 596 l 25 596 l 25 685 l 156 701 l 156 815 q 378 1047 156 1047 q 517 1022 456 1047 l 517 925 q 408 936 446 936 q 319 912 344 936 q 293 832 293 888 l 293 704 l 754 704 l 754 0 l 617 0 l 617 596 l 293 596 l 293 0 l 156 0 m 686 829 q 623 852 646 829 q 600 913 600 875 q 623 973 600 950 q 686 996 646 996 q 749 973 726 996 q 772 913 772 950 q 749 852 772 875 q 686 829 726 829 z "},"ﬂ":{"ha":904,"x_min":25,"x_max":863,"o":"m 156 0 l 156 596 l 25 596 l 25 685 l 156 701 l 156 815 q 378 1047 156 1047 q 517 1022 456 1047 l 517 925 q 408 936 446 936 q 319 912 344 936 q 293 832 293 888 l 293 704 l 517 704 l 517 596 l 293 596 l 293 0 l 156 0 m 863 10 q 763 -7 817 -7 q 650 35 689 -7 q 611 157 611 78 l 611 1028 l 749 1028 l 749 165 q 762 119 749 133 q 806 104 775 104 q 863 108 833 104 l 863 10 z "},"ﬃ":{"ha":1324,"x_min":25,"x_max":1233,"o":"m 1078 0 l 1078 596 l 754 596 l 754 0 l 617 0 l 617 596 l 293 596 l 293 0 l 156 0 l 156 596 l 25 596 l 25 685 l 156 701 l 156 815 q 378 1047 156 1047 q 517 1022 456 1047 l 517 925 q 408 936 446 936 q 319 912 344 936 q 293 832 293 888 l 293 704 l 617 704 l 617 815 q 839 1047 617 1047 q 978 1022 917 1047 l 978 925 q 869 936 907 936 q 780 912 806 936 q 754 832 754 888 l 754 704 l 1215 704 l 1215 0 l 1078 0 m 1147 829 q 1084 852 1107 829 q 1061 913 1061 875 q 1084 973 1061 950 q 1147 996 1107 996 q 1210 973 1188 996 q 1233 913 1233 950 q 1210 852 1233 875 q 1147 829 1188 829 z "},"ﬄ":{"ha":1365,"x_min":25,"x_max":1324,"o":"m 617 0 l 617 596 l 293 596 l 293 0 l 156 0 l 156 596 l 25 596 l 25 685 l 156 701 l 156 815 q 378 1047 156 1047 q 517 1022 456 1047 l 517 925 q 408 936 446 936 q 319 912 344 936 q 293 832 293 888 l 293 704 l 617 704 l 617 815 q 839 1047 617 1047 q 978 1022 917 1047 l 978 925 q 869 936 907 936 q 780 912 806 936 q 754 832 754 888 l 754 704 l 978 704 l 978 596 l 754 596 l 754 0 l 617 0 m 1324 10 q 1224 -7 1278 -7 q 1111 35 1150 -7 q 1072 157 1072 78 l 1072 1028 l 1210 1028 l 1210 165 q 1223 119 1210 133 q 1267 104 1236 104 q 1324 108 1294 104 l 1324 10 z "},"Þ":{"ha":828,"x_min":117,"x_max":767,"o":"m 254 200 l 254 0 l 117 0 l 117 963 l 254 963 l 254 785 l 460 785 q 683 706 600 785 q 767 492 767 626 q 684 278 767 357 q 460 200 601 200 l 254 200 m 254 313 l 447 313 q 624 492 624 313 q 447 672 624 672 l 254 672 l 254 313 z "},"Æ":{"ha":1319,"x_min":14,"x_max":1256,"o":"m 657 0 l 657 278 l 324 278 l 171 0 l 14 0 l 565 963 l 1256 963 l 1256 849 l 799 849 l 799 553 l 1182 553 l 1182 439 l 799 439 l 799 114 l 1256 114 l 1256 0 l 657 0 m 382 383 l 657 383 l 657 849 l 640 849 l 382 383 z "},"Œ":{"ha":1479,"x_min":89,"x_max":1415,"o":"m 89 481 q 140 745 89 632 q 290 921 192 858 q 524 983 388 983 q 699 944 621 983 q 831 831 778 906 l 831 963 l 1415 963 l 1415 849 l 964 849 l 964 553 l 1342 553 l 1342 439 l 964 439 l 964 114 l 1415 114 l 1415 0 l 831 0 l 831 129 q 699 15 778 54 q 524 -24 621 -24 q 294 36 392 -24 q 142 210 196 96 q 89 481 89 324 m 235 481 q 311 194 235 292 q 533 96 388 96 q 754 195 678 96 q 831 481 831 294 q 754 765 831 667 q 533 864 678 864 q 311 766 388 864 q 235 481 235 668 z "},"ẞ":{"ha":968,"x_min":111,"x_max":910,"o":"m 613 546 l 635 546 q 834 472 758 546 q 910 278 910 399 q 868 124 910 192 q 748 18 826 57 q 565 -21 669 -21 q 385 14 464 -21 l 385 121 q 551 96 472 96 q 768 276 768 96 q 579 438 768 438 q 465 432 528 438 l 465 526 l 679 836 q 507 867 600 867 q 315 803 376 867 q 253 606 253 739 l 253 0 l 111 0 l 111 600 q 213 883 111 782 q 497 983 314 983 q 660 964 583 983 q 796 907 738 944 l 796 800 l 613 546 z "},"þ":{"ha":822,"x_min":103,"x_max":756,"o":"m 103 -286 l 103 1028 l 240 1028 l 240 638 q 465 725 344 725 q 678 628 600 725 q 756 361 756 531 q 674 88 756 190 q 456 -15 592 -15 q 240 68 332 -15 l 240 -286 l 103 -286 m 426 614 q 240 550 328 614 l 240 163 q 424 96 328 96 q 615 354 615 96 q 569 550 615 486 q 426 614 522 614 z "},"æ":{"ha":1172,"x_min":58,"x_max":1110,"o":"m 361 725 q 505 696 446 725 q 592 611 564 667 q 696 696 633 667 q 836 725 758 725 q 1039 651 968 725 q 1110 439 1110 576 q 1097 314 1110 369 l 635 314 q 697 142 640 196 q 874 89 754 89 q 1094 132 982 89 l 1094 33 q 851 -21 994 -21 q 569 106 653 -21 q 434 15 510 47 q 283 -18 358 -18 q 119 38 179 -18 q 58 189 58 94 q 132 356 58 294 q 332 418 206 418 q 513 406 419 418 l 513 467 q 473 579 513 543 q 349 615 433 615 q 106 572 238 615 l 106 669 q 226 710 156 694 q 361 725 297 725 m 311 83 q 423 109 364 83 q 533 181 482 135 q 510 322 514 238 q 360 328 442 328 q 193 197 193 328 q 311 83 193 83 m 829 621 q 635 407 646 621 l 986 407 q 988 444 988 422 q 829 621 988 621 z "},"œ":{"ha":1258,"x_min":67,"x_max":1196,"o":"m 942 -21 q 658 138 732 -21 q 396 -21 588 -21 q 154 78 242 -21 q 67 353 67 176 q 154 626 67 528 q 396 725 242 725 q 557 685 490 725 q 660 567 624 644 q 763 685 696 644 q 926 725 831 725 q 1126 651 1056 725 q 1196 440 1196 578 q 1186 322 1196 374 l 726 322 q 786 146 729 203 q 961 89 843 89 q 1182 132 1069 89 l 1182 33 q 1072 -7 1135 7 q 942 -21 1010 -21 m 404 90 q 593 353 593 90 q 404 614 593 614 q 207 353 207 614 q 404 90 207 90 m 919 621 q 781 568 831 621 q 726 414 732 515 l 1074 414 l 1074 450 q 1035 578 1074 535 q 919 621 996 621 z "},"ß":{"ha":847,"x_min":103,"x_max":818,"o":"m 436 1047 q 637 988 563 1047 q 711 826 711 928 q 685 721 711 767 q 594 621 660 675 q 539 565 553 586 q 525 519 525 544 q 547 478 525 497 q 632 422 568 458 l 678 397 q 785 310 751 357 q 818 197 818 263 q 744 39 818 99 q 546 -21 669 -21 q 363 18 450 -21 l 363 122 q 543 86 467 86 q 651 115 613 86 q 689 194 689 143 q 667 255 689 229 q 590 310 646 281 l 538 339 q 429 420 461 381 q 397 511 397 460 q 420 594 397 557 q 506 689 443 632 q 565 754 549 726 q 581 817 581 782 q 540 908 581 875 q 429 940 500 940 q 238 693 238 940 l 238 0 l 103 0 l 103 690 q 190 953 103 860 q 436 1047 278 1047 z "},"ſ":{"ha":349,"x_min":103,"x_max":464,"o":"m 103 0 l 103 815 q 325 1047 103 1047 q 464 1022 403 1047 l 464 925 q 356 936 397 936 q 266 912 292 936 q 240 832 240 888 l 240 0 l 103 0 z "},"ĸ":{"ha":731,"x_min":103,"x_max":729,"o":"m 103 0 l 103 704 l 240 704 l 240 382 l 539 704 l 707 704 l 374 358 l 729 0 l 556 0 l 240 318 l 240 0 l 103 0 z "},"Ŋ":{"ha":992,"x_min":117,"x_max":875,"o":"m 875 7 q 585 -303 875 -303 q 415 -267 503 -303 l 415 -157 q 572 -183 494 -183 q 696 -144 657 -183 q 736 -14 735 -104 l 736 -3 l 247 763 l 247 0 l 117 0 l 117 963 l 271 963 l 744 207 l 744 963 l 875 963 l 875 7 z "},"ƒ":{"ha":518,"x_min":-43,"x_max":517,"o":"m 156 596 l 25 596 l 25 685 l 156 701 l 156 815 q 378 1047 156 1047 q 517 1022 456 1047 l 517 925 q 408 936 450 936 q 319 912 344 936 q 293 832 293 888 l 293 704 l 508 704 l 508 596 l 293 596 l 293 -72 q 238 -242 293 -181 q 82 -303 182 -303 q -43 -281 8 -303 l -43 -182 q 50 -192 10 -192 q 156 -90 156 -192 l 156 596 z "},"ŋ":{"ha":818,"x_min":103,"x_max":717,"o":"m 579 471 q 549 579 579 544 q 456 614 519 614 q 240 543 346 614 l 240 0 l 103 0 l 103 704 l 218 704 l 232 626 q 510 725 364 725 q 664 672 611 725 q 717 517 717 618 l 717 -56 q 662 -242 717 -181 q 493 -303 607 -303 q 364 -281 426 -303 l 364 -185 q 463 -194 413 -194 q 554 -167 529 -194 q 579 -64 579 -139 l 579 471 z "},"Ð":{"ha":972,"x_min":19,"x_max":883,"o":"m 131 0 l 131 443 l 19 443 l 19 547 l 131 547 l 131 963 l 447 963 q 772 840 660 963 q 883 481 883 717 q 769 124 883 247 q 443 0 656 0 l 131 0 m 272 443 l 272 111 l 428 111 q 738 465 738 111 l 738 497 q 660 763 738 674 q 428 851 582 851 l 272 851 l 272 547 l 489 547 l 489 443 l 272 443 z "},"Đ":{"ha":972,"x_min":19,"x_max":883,"o":"m 131 0 l 131 443 l 19 443 l 19 547 l 131 547 l 131 963 l 447 963 q 772 840 660 963 q 883 481 883 717 q 769 124 883 247 q 443 0 656 0 l 131 0 m 272 443 l 272 111 l 428 111 q 738 465 738 111 l 738 497 q 660 763 738 674 q 428 851 582 851 l 272 851 l 272 547 l 489 547 l 489 443 l 272 443 z "},"Ħ":{"ha":1025,"x_min":19,"x_max":1006,"o":"m 753 0 l 753 435 l 272 435 l 272 0 l 131 0 l 131 696 l 19 696 l 19 794 l 131 794 l 131 963 l 272 963 l 272 794 l 753 794 l 753 963 l 894 963 l 894 794 l 1006 794 l 1006 696 l 894 696 l 894 0 l 753 0 m 753 549 l 753 696 l 272 696 l 272 549 l 753 549 z "},"Ŧ":{"ha":797,"x_min":21,"x_max":776,"o":"m 328 0 l 328 436 l 135 436 l 135 535 l 328 535 l 328 846 l 21 846 l 21 963 l 776 963 l 776 846 l 469 846 l 469 535 l 663 535 l 663 436 l 469 436 l 469 0 l 328 0 z "},"Ł":{"ha":774,"x_min":44,"x_max":765,"o":"m 169 0 l 169 353 l 44 279 l 44 389 l 169 461 l 169 963 l 311 963 l 311 540 l 567 692 l 567 581 l 311 432 l 311 117 l 765 117 l 765 0 l 169 0 z "},"Ø":{"ha":1079,"x_min":89,"x_max":990,"o":"m 89 481 q 142 748 89 635 q 297 922 194 861 q 540 983 399 983 q 815 900 704 983 l 904 1013 l 981 951 l 885 832 q 990 481 990 699 q 938 213 990 326 q 783 38 885 100 q 540 -24 682 -24 q 269 56 381 -24 l 181 -56 l 104 6 l 197 124 q 89 481 89 256 m 235 481 q 286 235 235 325 l 735 799 q 540 864 658 864 q 313 766 390 864 q 235 481 235 668 m 844 481 q 796 719 844 626 l 349 157 q 540 96 422 96 q 767 194 689 96 q 844 481 844 293 z "},"ð":{"ha":783,"x_min":67,"x_max":717,"o":"m 225 793 l 339 894 q 185 943 271 926 l 185 1051 q 418 972 317 1029 l 542 1086 l 596 1022 l 490 924 q 659 703 601 838 q 717 396 717 568 q 393 -21 717 -21 q 153 72 240 -21 q 67 326 67 164 q 150 576 67 483 q 374 669 233 669 q 603 558 524 669 q 528 737 576 661 q 414 854 481 813 l 279 731 l 225 793 m 390 85 q 536 147 486 85 q 586 325 586 208 q 535 504 586 442 q 390 567 485 567 q 204 326 204 567 q 251 147 204 208 q 390 85 297 85 z "},"đ":{"ha":819,"x_min":67,"x_max":814,"o":"m 603 0 l 585 72 q 481 8 539 31 q 363 -15 422 -15 q 208 28 275 -15 q 104 153 142 71 q 67 349 67 236 q 103 546 67 461 q 206 678 139 631 q 367 725 274 725 q 579 647 485 725 l 579 822 l 340 822 l 340 918 l 579 918 l 579 1028 l 717 1028 l 717 918 l 814 918 l 814 822 l 717 822 l 717 0 l 603 0 m 404 96 q 579 160 490 96 l 579 553 q 492 599 536 585 q 396 614 449 614 q 207 353 207 614 q 404 96 207 96 z "},"ħ":{"ha":817,"x_min":6,"x_max":717,"o":"m 579 0 l 579 471 q 549 579 579 544 q 456 614 519 614 q 240 543 346 614 l 240 0 l 103 0 l 103 822 l 6 822 l 6 918 l 103 918 l 103 1028 l 240 1028 l 240 918 l 490 918 l 490 822 l 240 822 l 240 632 q 510 725 372 725 q 664 672 611 725 q 717 517 717 618 l 717 0 l 579 0 z "},"ŧ":{"ha":588,"x_min":47,"x_max":526,"o":"m 526 17 q 372 -10 458 -10 q 175 188 175 -10 l 175 319 l 47 319 l 47 414 l 175 414 l 175 596 l 47 596 l 47 685 l 179 701 l 200 901 l 313 901 l 313 704 l 521 704 l 521 596 l 313 596 l 313 414 l 521 414 l 521 319 l 313 319 l 313 194 q 335 122 313 143 q 414 101 358 101 q 526 115 471 101 l 526 17 z "},"ł":{"ha":450,"x_min":17,"x_max":396,"o":"m 382 10 q 282 -7 336 -7 q 169 35 208 -7 q 131 157 131 78 l 131 421 l 17 353 l 17 456 l 131 522 l 131 1028 l 268 1028 l 268 604 l 396 679 l 396 576 l 268 499 l 268 165 q 281 119 268 133 q 325 104 294 104 q 382 108 353 104 l 382 10 z "},"ø":{"ha":806,"x_min":67,"x_max":739,"o":"m 75 10 l 142 93 q 67 353 67 192 q 156 626 67 528 q 403 725 244 725 q 601 668 521 725 l 665 749 l 733 693 l 665 607 q 739 353 739 510 q 650 78 739 176 q 403 -21 561 -21 q 206 33 288 -21 l 143 -46 l 75 10 m 207 353 q 231 203 207 263 l 525 574 q 403 614 478 614 q 207 353 207 614 m 403 90 q 599 353 599 90 q 576 497 599 435 l 282 128 q 403 90 328 90 z "},"̧":{"ha":0,"x_min":-124,"x_max":99,"o":"m -28 -87 q 65 -115 31 -87 q 99 -187 99 -142 q -67 -390 99 -303 l -124 -340 q -39 -271 -69 -306 q -8 -208 -8 -236 q -61 -172 -8 -172 q -112 -176 -83 -172 l -112 -100 q -28 -87 -74 -87 z "},"¸":{"ha":817,"x_min":297,"x_max":519,"o":"m 393 -87 q 485 -115 451 -87 q 519 -187 519 -142 q 354 -390 519 -303 l 297 -340 q 382 -271 351 -306 q 413 -208 413 -236 q 360 -172 413 -172 q 308 -176 338 -172 l 308 -100 q 393 -87 347 -87 z "},"̦":{"ha":0,"x_min":-107,"x_max":63,"o":"m -107 -386 l -58 -90 l -12 -90 q 63 -137 63 -90 q 40 -218 63 -158 l -19 -386 l -107 -386 z "},"̒":{"ha":0,"x_min":-68,"x_max":103,"o":"m 103 1122 l 53 817 l 8 817 q -68 864 -68 817 q -44 944 -68 886 l 15 1122 l 103 1122 z "},"̨":{"ha":0,"x_min":-228,"x_max":18,"o":"m 0 0 q -118 -172 -118 -89 q -42 -226 -118 -226 q 18 -218 -22 -226 l 18 -296 q -75 -311 -21 -311 q -188 -280 -149 -311 q -228 -192 -228 -249 q -189 -81 -228 -135 q -78 18 -150 -26 l 0 0 z "},"˛":{"ha":817,"x_min":285,"x_max":531,"o":"m 513 0 q 394 -172 394 -89 q 471 -226 394 -226 q 531 -218 490 -226 l 531 -296 q 438 -311 492 -311 q 324 -280 364 -311 q 285 -192 285 -249 q 324 -81 285 -135 q 435 18 363 -26 l 513 0 z "},"Ç":{"ha":843,"x_min":89,"x_max":794,"o":"m 794 26 q 551 -17 682 -17 q 206 109 324 -17 q 89 478 89 235 q 210 847 89 718 q 558 976 332 976 q 781 939 676 976 l 781 824 q 575 853 654 853 q 319 767 400 853 q 239 496 239 682 l 239 463 q 317 193 239 279 q 567 107 396 107 q 794 142 654 107 l 794 26 m 519 -87 q 612 -115 578 -87 q 646 -187 646 -142 q 481 -390 646 -303 l 422 -337 q 506 -269 476 -303 q 536 -210 536 -236 q 485 -175 536 -175 q 435 -179 464 -175 l 435 -100 q 519 -87 474 -87 z "},"Ş":{"ha":792,"x_min":81,"x_max":718,"o":"m 297 457 q 132 561 183 500 q 81 715 81 622 q 119 853 81 793 q 231 949 158 914 q 403 983 304 983 q 660 933 528 983 l 660 821 q 413 864 519 864 q 273 827 322 864 q 224 722 224 790 q 257 634 224 667 q 381 568 290 601 l 507 521 q 669 420 619 479 q 718 268 718 361 q 623 56 718 135 q 367 -24 528 -24 q 89 33 207 -24 l 89 144 q 364 96 235 96 q 519 139 463 96 q 575 256 575 182 q 542 341 575 307 q 432 406 510 375 l 297 457 m 351 -87 q 444 -115 410 -87 q 478 -187 478 -142 q 313 -390 478 -303 l 254 -337 q 338 -269 308 -303 q 368 -210 368 -236 q 317 -175 368 -175 q 267 -179 296 -175 l 267 -100 q 351 -87 306 -87 z "},"Ţ":{"ha":797,"x_min":21,"x_max":776,"o":"m 328 0 l 328 846 l 21 846 l 21 963 l 776 963 l 776 846 l 469 846 l 469 0 l 328 0 m 382 -87 q 474 -115 440 -87 q 508 -187 508 -142 q 343 -390 508 -303 l 285 -337 q 369 -269 339 -303 q 399 -210 399 -236 q 347 -175 399 -175 q 297 -179 326 -175 l 297 -100 q 382 -87 336 -87 z "},"ģ":{"ha":806,"x_min":67,"x_max":703,"o":"m 567 96 q 465 34 519 56 q 356 13 411 13 q 206 54 271 13 q 103 176 140 96 q 67 363 67 256 q 146 627 67 529 q 358 725 225 725 q 576 639 483 725 l 588 704 l 703 704 l 703 43 q 615 -212 703 -122 q 364 -303 526 -303 q 124 -247 233 -303 l 124 -149 q 353 -192 251 -192 q 515 -138 464 -192 q 567 33 567 -85 l 567 96 m 396 124 q 567 188 482 124 l 567 553 q 482 599 525 585 q 388 614 439 614 q 207 368 207 614 q 255 185 207 247 q 396 124 303 124 m 511 1122 l 461 817 l 417 817 q 340 864 340 817 q 364 944 340 886 l 424 1122 l 511 1122 z "},"ķ":{"ha":731,"x_min":103,"x_max":729,"o":"m 103 0 l 103 1028 l 240 1028 l 240 397 l 539 704 l 707 704 l 374 369 l 729 0 l 556 0 l 240 333 l 240 0 l 103 0 m 278 -386 l 326 -90 l 372 -90 q 447 -137 447 -90 q 425 -218 447 -158 l 365 -386 l 278 -386 z "},"ļ":{"ha":396,"x_min":103,"x_max":354,"o":"m 354 10 q 254 -7 308 -7 q 142 35 181 -7 q 103 157 103 78 l 103 1028 l 240 1028 l 240 165 q 253 119 240 133 q 297 104 267 104 q 354 108 325 104 l 354 10 m 131 -386 l 179 -90 l 225 -90 q 300 -137 300 -90 q 278 -218 300 -158 l 218 -386 l 131 -386 z "},"ņ":{"ha":817,"x_min":103,"x_max":717,"o":"m 579 0 l 579 471 q 549 579 579 544 q 456 614 519 614 q 240 543 346 614 l 240 0 l 103 0 l 103 704 l 218 704 l 232 626 q 510 725 364 725 q 664 672 611 725 q 717 517 717 618 l 717 0 l 579 0 m 303 -386 l 351 -90 l 397 -90 q 472 -137 472 -90 q 450 -218 472 -158 l 390 -386 l 303 -386 z "},"ŗ":{"ha":518,"x_min":64,"x_max":506,"o":"m 103 0 l 103 704 l 218 704 l 233 600 q 306 665 272 642 q 374 699 339 688 q 449 710 408 710 q 506 706 475 710 l 506 581 q 431 586 461 586 q 240 519 319 586 l 240 0 l 103 0 m 64 -386 l 113 -90 l 158 -90 q 233 -137 233 -90 q 211 -218 233 -158 l 151 -386 l 64 -386 z "},"ș":{"ha":600,"x_min":53,"x_max":561,"o":"m 433 189 q 412 243 433 222 q 333 285 390 264 l 215 329 q 61 524 61 386 q 131 669 61 614 q 315 725 201 725 q 522 681 425 725 l 522 583 q 322 618 414 618 q 189 528 189 618 q 211 471 189 492 q 299 425 233 450 l 407 383 q 525 308 489 351 q 561 194 561 264 q 488 38 561 96 q 292 -21 414 -21 q 53 32 154 -21 l 53 129 q 294 86 183 86 q 398 113 363 86 q 433 189 433 139 m 194 -386 l 243 -90 l 289 -90 q 364 -137 364 -90 q 342 -218 364 -158 l 282 -386 l 194 -386 z "},"ț":{"ha":532,"x_min":19,"x_max":499,"o":"m 499 17 q 344 -10 431 -10 q 147 188 147 -10 l 147 596 l 19 596 l 19 685 l 151 701 l 172 901 l 285 901 l 285 704 l 493 704 l 493 596 l 285 596 l 285 194 q 308 122 285 143 q 386 101 331 101 q 499 115 443 101 l 499 17 m 224 -386 l 272 -90 l 318 -90 q 393 -137 393 -90 q 371 -218 393 -158 l 311 -386 l 224 -386 z "},"Ą":{"ha":892,"x_min":14,"x_max":893,"o":"m 878 0 q 760 -171 760 -90 q 832 -224 760 -224 q 893 -215 854 -224 l 893 -296 q 800 -311 856 -311 q 687 -280 726 -311 q 647 -192 647 -249 q 769 0 647 -86 l 731 0 l 642 256 l 246 256 l 160 0 l 14 0 l 369 963 l 522 963 l 878 0 m 282 363 l 606 363 l 443 835 l 282 363 z "},"Ę":{"ha":779,"x_min":117,"x_max":731,"o":"m 715 0 q 597 -171 597 -90 q 669 -224 597 -224 q 731 -215 692 -224 l 731 -296 q 638 -311 693 -311 q 524 -280 564 -311 q 485 -192 485 -249 q 607 0 485 -86 l 117 0 l 117 963 l 715 963 l 715 849 l 258 849 l 258 553 l 642 553 l 642 439 l 258 439 l 258 114 l 715 114 l 715 0 z "},"Į":{"ha":386,"x_min":33,"x_max":279,"o":"m 33 -192 q 156 0 33 -86 l 122 0 l 122 963 l 264 963 l 264 0 q 146 -171 146 -90 q 218 -224 146 -224 q 279 -215 240 -224 l 279 -296 q 186 -311 242 -311 q 73 -280 113 -311 q 33 -192 33 -249 z "},"Ų":{"ha":981,"x_min":111,"x_max":869,"o":"m 728 963 l 869 963 l 869 351 q 820 138 869 225 q 675 10 771 51 q 576 -69 614 -19 q 538 -167 538 -118 q 610 -224 538 -224 q 671 -215 632 -224 l 671 -296 q 578 -311 629 -311 q 464 -280 503 -311 q 425 -189 425 -249 q 518 -22 425 -100 q 504 -24 511 -24 q 490 -24 497 -24 q 209 73 307 -24 q 111 351 111 169 l 111 963 l 253 963 l 253 339 q 314 159 253 222 q 490 96 375 96 q 667 159 606 96 q 728 339 728 222 l 728 963 z "},"ç":{"ha":640,"x_min":67,"x_max":590,"o":"m 590 26 q 404 -15 510 -15 q 153 78 240 -15 q 67 350 67 172 q 156 623 67 526 q 410 719 246 719 q 585 681 503 719 l 585 582 q 429 607 506 607 q 261 548 313 607 q 210 360 210 489 l 210 342 q 262 156 210 215 q 426 97 314 97 q 590 125 501 97 l 590 26 m 375 -87 q 467 -115 433 -87 q 501 -187 501 -142 q 336 -390 501 -303 l 279 -340 q 364 -271 333 -306 q 394 -208 394 -236 q 342 -172 394 -172 q 290 -176 319 -172 l 290 -100 q 375 -87 329 -87 z "},"ş":{"ha":600,"x_min":53,"x_max":561,"o":"m 433 189 q 412 243 433 222 q 333 285 390 264 l 215 329 q 61 524 61 386 q 131 669 61 614 q 315 725 201 725 q 522 681 425 725 l 522 583 q 322 618 414 618 q 189 528 189 618 q 211 471 189 492 q 299 425 233 450 l 407 383 q 525 308 489 351 q 561 194 561 264 q 488 38 561 96 q 292 -21 414 -21 q 53 32 154 -21 l 53 129 q 294 86 183 86 q 398 113 363 86 q 433 189 433 139 m 274 -87 q 366 -115 332 -87 q 400 -187 400 -142 q 235 -390 400 -303 l 178 -340 q 263 -271 232 -306 q 293 -208 293 -236 q 240 -172 293 -172 q 189 -176 218 -172 l 189 -100 q 274 -87 228 -87 z "},"ţ":{"ha":532,"x_min":19,"x_max":499,"o":"m 499 17 q 344 -10 431 -10 q 147 188 147 -10 l 147 596 l 19 596 l 19 685 l 151 701 l 172 901 l 285 901 l 285 704 l 493 704 l 493 596 l 285 596 l 285 194 q 308 122 285 143 q 386 101 331 101 q 499 115 443 101 l 499 17 m 303 -87 q 395 -115 361 -87 q 429 -187 429 -142 q 264 -390 429 -303 l 207 -340 q 292 -271 261 -306 q 322 -208 322 -236 q 269 -172 322 -172 q 218 -176 247 -172 l 218 -100 q 303 -87 257 -87 z "},"Ģ":{"ha":961,"x_min":89,"x_max":861,"o":"m 581 103 q 728 118 663 103 l 728 400 l 513 400 l 513 510 l 861 510 l 861 51 q 721 1 801 18 q 553 -17 640 -17 q 207 108 325 -17 q 89 475 89 233 q 210 848 89 719 q 560 976 331 976 q 828 919 706 976 l 828 808 q 575 857 686 857 q 317 769 399 857 q 235 493 235 681 l 235 463 q 319 190 235 278 q 581 103 403 103 m 442 -386 l 490 -90 l 540 -90 q 615 -137 615 -90 q 592 -218 615 -158 l 531 -386 l 442 -386 z "},"Ķ":{"ha":857,"x_min":117,"x_max":858,"o":"m 117 0 l 117 963 l 258 963 l 258 532 l 654 963 l 821 963 l 393 503 l 858 0 l 685 0 l 258 460 l 258 0 l 117 0 m 353 -386 l 401 -90 l 451 -90 q 526 -137 526 -90 q 503 -218 526 -158 l 442 -386 l 353 -386 z "},"Ļ":{"ha":728,"x_min":117,"x_max":713,"o":"m 117 0 l 117 963 l 258 963 l 258 117 l 713 117 l 713 0 l 117 0 m 306 -386 l 354 -90 l 404 -90 q 479 -137 479 -90 q 456 -218 479 -158 l 394 -386 l 306 -386 z "},"Ņ":{"ha":992,"x_min":117,"x_max":875,"o":"m 247 765 l 247 0 l 117 0 l 117 963 l 271 963 l 744 193 l 744 963 l 875 963 l 875 0 l 719 0 l 247 765 m 375 -386 l 424 -90 l 474 -90 q 549 -137 549 -90 q 525 -218 549 -158 l 464 -386 l 375 -386 z "},"Ŗ":{"ha":851,"x_min":117,"x_max":832,"o":"m 117 0 l 117 963 l 468 963 q 692 885 608 963 q 775 678 775 808 q 723 512 775 582 q 576 410 671 442 l 832 0 l 678 0 l 442 388 l 254 388 l 254 0 l 117 0 m 254 500 l 450 500 q 585 544 539 500 q 632 676 632 589 q 588 806 632 763 q 456 850 543 850 l 254 850 l 254 500 m 346 -386 l 394 -90 l 444 -90 q 519 -137 519 -90 q 496 -218 519 -158 l 435 -386 l 346 -386 z "},"Ș":{"ha":792,"x_min":81,"x_max":718,"o":"m 297 457 q 132 561 183 500 q 81 715 81 622 q 119 853 81 793 q 231 949 158 914 q 403 983 304 983 q 660 933 528 983 l 660 821 q 413 864 519 864 q 273 827 322 864 q 224 722 224 790 q 257 634 224 667 q 381 568 290 601 l 507 521 q 669 420 619 479 q 718 268 718 361 q 623 56 718 135 q 367 -24 528 -24 q 89 33 207 -24 l 89 144 q 364 96 235 96 q 519 139 463 96 q 575 256 575 182 q 542 341 575 307 q 432 406 510 375 l 297 457 m 260 -386 l 308 -90 l 358 -90 q 433 -137 433 -90 q 410 -218 433 -158 l 349 -386 l 260 -386 z "},"Ț":{"ha":797,"x_min":21,"x_max":776,"o":"m 328 0 l 328 846 l 21 846 l 21 963 l 776 963 l 776 846 l 469 846 l 469 0 l 328 0 m 290 -386 l 339 -90 l 389 -90 q 464 -137 464 -90 q 440 -218 464 -158 l 379 -386 l 290 -386 z "},"ą":{"ha":732,"x_min":58,"x_max":649,"o":"m 631 0 q 513 -172 513 -89 q 589 -226 513 -226 q 649 -218 610 -226 l 649 -296 q 556 -311 611 -311 q 442 -280 482 -311 q 403 -192 403 -249 q 525 0 403 -86 l 517 0 l 506 72 q 395 6 456 29 q 275 -18 335 -18 q 117 38 176 -18 q 58 189 58 94 q 131 351 58 290 q 325 411 203 411 q 500 388 406 411 l 500 479 q 466 585 500 554 q 350 615 432 615 q 106 572 232 615 l 106 669 q 228 710 156 696 q 374 725 300 725 q 568 670 506 725 q 631 503 631 615 l 631 0 m 308 86 q 500 157 403 86 l 500 299 q 353 317 428 317 q 196 196 196 317 q 225 115 196 143 q 308 86 254 86 z "},"ę":{"ha":735,"x_min":67,"x_max":672,"o":"m 599 -296 q 506 -311 557 -311 q 392 -279 432 -311 q 353 -185 353 -247 q 384 -96 353 -140 q 471 -17 415 -51 q 413 -21 444 -21 q 154 74 242 -21 q 67 353 67 168 q 154 627 67 529 q 399 725 242 725 q 601 651 531 725 q 672 440 672 576 q 661 322 672 381 l 200 322 q 259 146 203 203 q 433 89 315 89 q 657 132 544 89 l 657 33 q 515 -60 568 -7 q 463 -164 463 -112 q 538 -226 463 -226 q 599 -218 560 -226 l 599 -296 m 392 621 q 256 569 304 621 q 200 414 207 517 l 546 414 q 547 450 547 429 q 508 578 547 535 q 392 621 468 621 z "},"į":{"ha":354,"x_min":18,"x_max":264,"o":"m 246 0 q 128 -172 128 -89 q 204 -226 128 -226 q 264 -218 225 -226 l 264 -296 q 171 -311 226 -311 q 58 -280 97 -311 q 18 -192 18 -249 q 140 0 18 -86 l 108 0 l 108 704 l 246 704 l 246 0 m 178 829 q 115 852 138 829 q 92 913 92 875 q 115 973 92 950 q 178 996 138 996 q 241 973 218 996 q 264 913 264 950 q 241 852 264 875 q 178 829 218 829 z "},"ų":{"ha":799,"x_min":97,"x_max":714,"o":"m 567 75 q 301 -21 438 -21 q 150 35 203 -21 q 97 192 97 90 l 97 704 l 235 704 l 235 236 q 264 126 235 161 q 357 90 293 90 q 558 157 457 90 l 558 704 l 696 704 l 696 0 q 578 -172 578 -89 q 654 -226 578 -226 q 714 -218 675 -226 l 714 -296 q 621 -311 676 -311 q 508 -280 547 -311 q 468 -192 468 -249 q 590 0 468 -86 l 582 0 l 567 75 z "},"́":{"ha":0,"x_min":-56,"x_max":232,"o":"m -56 835 l 71 1057 l 232 1057 l 56 835 l -56 835 z "},"´":{"ha":817,"x_min":264,"x_max":551,"o":"m 264 835 l 390 1057 l 551 1057 l 375 835 l 264 835 z "},"ˊ":{"ha":817,"x_min":264,"x_max":551,"o":"m 264 835 l 390 1057 l 551 1057 l 375 835 l 264 835 z "},"̋":{"ha":0,"x_min":-192,"x_max":353,"o":"m -192 835 l -65 1057 l 97 1057 l -79 835 l -192 835 m 64 835 l 192 1057 l 353 1057 l 176 835 l 64 835 z "},"˝":{"ha":817,"x_min":136,"x_max":681,"o":"m 136 835 l 263 1057 l 425 1057 l 249 835 l 136 835 m 392 835 l 519 1057 l 681 1057 l 504 835 l 392 835 z "},"Á":{"ha":892,"x_min":14,"x_max":878,"o":"m 731 0 l 642 256 l 246 256 l 160 0 l 14 0 l 369 963 l 522 963 l 878 0 l 731 0 m 282 363 l 606 363 l 443 835 l 282 363 m 385 1068 l 518 1239 l 683 1239 l 507 1068 l 385 1068 z "},"Ć":{"ha":843,"x_min":89,"x_max":794,"o":"m 794 26 q 551 -17 682 -17 q 206 109 324 -17 q 89 478 89 235 q 210 847 89 718 q 558 976 332 976 q 781 939 676 976 l 781 824 q 575 853 654 853 q 319 767 400 853 q 239 496 239 682 l 239 463 q 317 193 239 279 q 567 107 396 107 q 794 142 654 107 l 794 26 m 475 1068 l 608 1239 l 774 1239 l 597 1068 l 475 1068 z "},"É":{"ha":779,"x_min":117,"x_max":715,"o":"m 117 0 l 117 963 l 715 963 l 715 849 l 258 849 l 258 553 l 642 553 l 642 439 l 258 439 l 258 114 l 715 114 l 715 0 l 117 0 m 354 1068 l 488 1239 l 653 1239 l 476 1068 l 354 1068 z "},"Í":{"ha":386,"x_min":122,"x_max":431,"o":"m 122 0 l 122 963 l 264 963 l 264 0 l 122 0 m 132 1068 l 265 1239 l 431 1239 l 254 1068 l 132 1068 z "},"Ĺ":{"ha":728,"x_min":117,"x_max":713,"o":"m 117 0 l 117 963 l 258 963 l 258 117 l 713 117 l 713 0 l 117 0 m 126 1068 l 260 1239 l 425 1239 l 249 1068 l 126 1068 z "},"Ń":{"ha":992,"x_min":117,"x_max":875,"o":"m 247 765 l 247 0 l 117 0 l 117 963 l 271 963 l 744 193 l 744 963 l 875 963 l 875 0 l 719 0 l 247 765 m 446 1068 l 579 1239 l 744 1239 l 568 1068 l 446 1068 z "},"Ó":{"ha":1079,"x_min":89,"x_max":990,"o":"m 235 481 q 313 194 235 292 q 540 96 392 96 q 767 194 689 96 q 844 481 844 293 q 767 766 844 668 q 540 864 689 864 q 313 766 390 864 q 235 481 235 668 m 89 481 q 142 748 89 635 q 297 922 194 861 q 540 983 399 983 q 870 849 750 983 q 990 481 990 715 q 938 213 990 326 q 783 38 885 100 q 540 -24 682 -24 q 301 35 403 -24 q 144 208 200 94 q 89 481 89 322 m 479 1068 l 613 1239 l 778 1239 l 601 1068 l 479 1068 z "},"Ŕ":{"ha":851,"x_min":117,"x_max":832,"o":"m 117 0 l 117 963 l 468 963 q 692 885 608 963 q 775 678 775 808 q 723 512 775 582 q 576 410 671 442 l 832 0 l 678 0 l 442 388 l 254 388 l 254 0 l 117 0 m 254 500 l 450 500 q 585 544 539 500 q 632 676 632 589 q 588 806 632 763 q 456 850 543 850 l 254 850 l 254 500 m 353 1068 l 486 1239 l 651 1239 l 475 1068 l 353 1068 z "},"Ś":{"ha":792,"x_min":81,"x_max":718,"o":"m 297 457 q 132 561 183 500 q 81 715 81 622 q 119 853 81 793 q 231 949 158 914 q 403 983 304 983 q 660 933 528 983 l 660 821 q 413 864 519 864 q 273 827 322 864 q 224 722 224 790 q 257 634 224 667 q 381 568 290 601 l 507 521 q 669 420 619 479 q 718 268 718 361 q 623 56 718 135 q 367 -24 528 -24 q 89 33 207 -24 l 89 144 q 364 96 235 96 q 519 139 463 96 q 575 256 575 182 q 542 341 575 307 q 432 406 510 375 l 297 457 m 339 1068 l 472 1239 l 638 1239 l 461 1068 l 339 1068 z "},"Ú":{"ha":981,"x_min":111,"x_max":869,"o":"m 728 963 l 869 963 l 869 351 q 772 74 869 171 q 490 -24 674 -24 q 209 73 307 -24 q 111 351 111 169 l 111 963 l 253 963 l 253 339 q 314 159 253 222 q 490 96 375 96 q 667 159 606 96 q 728 339 728 222 l 728 963 m 429 1068 l 563 1239 l 728 1239 l 551 1068 l 429 1068 z "},"Ẃ":{"ha":1290,"x_min":24,"x_max":1267,"o":"m 828 0 l 646 754 l 463 0 l 304 0 l 24 963 l 178 963 l 385 156 l 569 935 l 725 935 l 910 154 l 1118 963 l 1267 963 l 986 0 l 828 0 m 586 1068 l 719 1239 l 885 1239 l 708 1068 l 586 1068 z "},"Ý":{"ha":839,"x_min":19,"x_max":819,"o":"m 347 0 l 347 354 l 19 963 l 176 963 l 419 469 l 667 963 l 819 963 l 486 351 l 486 0 l 347 0 m 360 1068 l 493 1239 l 658 1239 l 482 1068 l 360 1068 z "},"Ź":{"ha":804,"x_min":58,"x_max":746,"o":"m 58 0 l 58 108 l 592 847 l 89 847 l 89 963 l 746 963 l 746 854 l 211 115 l 746 115 l 746 0 l 58 0 m 356 1068 l 489 1239 l 654 1239 l 478 1068 l 356 1068 z "},"Ǽ":{"ha":1319,"x_min":14,"x_max":1256,"o":"m 657 0 l 657 278 l 324 278 l 171 0 l 14 0 l 565 963 l 1256 963 l 1256 849 l 799 849 l 799 553 l 1182 553 l 1182 439 l 799 439 l 799 114 l 1256 114 l 1256 0 l 657 0 m 382 383 l 657 383 l 657 849 l 640 849 l 382 383 m 849 1068 l 982 1239 l 1147 1239 l 971 1068 l 849 1068 z "},"Ǿ":{"ha":1079,"x_min":89,"x_max":990,"o":"m 89 481 q 142 748 89 635 q 297 922 194 861 q 540 983 399 983 q 815 900 704 983 l 904 1013 l 981 951 l 885 832 q 990 481 990 699 q 938 213 990 326 q 783 38 885 100 q 540 -24 682 -24 q 269 56 381 -24 l 181 -56 l 104 6 l 197 124 q 89 481 89 256 m 235 481 q 286 235 235 325 l 735 799 q 540 864 658 864 q 313 766 390 864 q 235 481 235 668 m 844 481 q 796 719 844 626 l 349 157 q 540 96 422 96 q 767 194 689 96 q 844 481 844 293 m 479 1068 l 613 1239 l 778 1239 l 601 1068 l 479 1068 z "},"Ő":{"ha":1079,"x_min":89,"x_max":990,"o":"m 235 481 q 313 194 235 292 q 540 96 392 96 q 767 194 689 96 q 844 481 844 293 q 767 766 844 668 q 540 864 689 864 q 313 766 390 864 q 235 481 235 668 m 89 481 q 142 748 89 635 q 297 922 194 861 q 540 983 399 983 q 870 849 750 983 q 990 481 990 715 q 938 213 990 326 q 783 38 885 100 q 540 -24 682 -24 q 301 35 403 -24 q 144 208 200 94 q 89 481 89 322 m 485 1239 l 650 1239 l 474 1068 l 351 1068 l 485 1239 m 736 1239 l 901 1239 l 725 1068 l 603 1068 l 736 1239 z "},"Ű":{"ha":981,"x_min":111,"x_max":869,"o":"m 728 963 l 869 963 l 869 351 q 772 74 869 171 q 490 -24 674 -24 q 209 73 307 -24 q 111 351 111 169 l 111 963 l 253 963 l 253 339 q 314 159 253 222 q 490 96 375 96 q 667 159 606 96 q 728 339 728 222 l 728 963 m 435 1239 l 600 1239 l 424 1068 l 301 1068 l 435 1239 m 686 1239 l 851 1239 l 675 1068 l 553 1068 l 686 1239 z "},"á":{"ha":732,"x_min":58,"x_max":631,"o":"m 517 0 l 506 72 q 395 6 456 29 q 275 -18 335 -18 q 117 38 176 -18 q 58 189 58 94 q 131 351 58 290 q 325 411 203 411 q 500 388 406 411 l 500 479 q 466 585 500 554 q 350 615 432 615 q 106 572 232 615 l 106 669 q 228 710 156 696 q 374 725 300 725 q 568 670 506 725 q 631 503 631 615 l 631 0 l 517 0 m 308 86 q 500 157 403 86 l 500 299 q 353 317 428 317 q 196 196 196 317 q 225 115 196 143 q 308 86 254 86 m 314 835 l 440 1057 l 601 1057 l 425 835 l 314 835 z "},"ć":{"ha":640,"x_min":67,"x_max":606,"o":"m 590 26 q 404 -15 510 -15 q 153 78 240 -15 q 67 350 67 172 q 156 623 67 526 q 410 719 246 719 q 585 681 503 719 l 585 582 q 429 607 506 607 q 261 548 313 607 q 210 360 210 489 l 210 342 q 262 156 210 215 q 426 97 314 97 q 590 125 501 97 l 590 26 m 318 835 l 444 1057 l 606 1057 l 429 835 l 318 835 z "},"é":{"ha":735,"x_min":67,"x_max":672,"o":"m 200 322 q 259 146 203 203 q 433 89 315 89 q 657 132 543 89 l 657 33 q 413 -21 557 -21 q 154 74 242 -21 q 67 353 67 168 q 154 627 67 529 q 399 725 242 725 q 601 651 531 725 q 672 440 672 576 q 661 322 672 375 l 200 322 m 392 621 q 256 569 304 621 q 200 414 207 517 l 546 414 q 547 450 547 425 q 508 578 547 535 q 392 621 468 621 m 325 835 l 451 1057 l 613 1057 l 436 835 l 325 835 z "},"í":{"ha":354,"x_min":108,"x_max":408,"o":"m 108 0 l 108 704 l 246 704 l 246 0 l 108 0 m 121 835 l 247 1057 l 408 1057 l 232 835 l 121 835 z "},"ĺ":{"ha":396,"x_min":103,"x_max":408,"o":"m 354 10 q 254 -7 308 -7 q 142 35 181 -7 q 103 157 103 78 l 103 1028 l 240 1028 l 240 165 q 253 119 240 133 q 297 104 267 104 q 354 108 325 104 l 354 10 m 110 1096 l 243 1267 l 408 1267 l 232 1096 l 110 1096 z "},"ń":{"ha":817,"x_min":103,"x_max":717,"o":"m 579 0 l 579 471 q 549 579 579 544 q 456 614 519 614 q 240 543 346 614 l 240 0 l 103 0 l 103 704 l 218 704 l 232 626 q 510 725 364 725 q 664 672 611 725 q 717 517 717 618 l 717 0 l 579 0 m 371 835 l 497 1057 l 658 1057 l 482 835 l 371 835 z "},"ó":{"ha":806,"x_min":67,"x_max":739,"o":"m 403 -21 q 156 78 244 -21 q 67 353 67 176 q 156 626 67 528 q 403 725 244 725 q 650 626 561 725 q 739 353 739 528 q 650 78 739 176 q 403 -21 561 -21 m 403 90 q 599 353 599 90 q 403 614 599 614 q 207 353 207 614 q 403 90 207 90 m 347 835 l 474 1057 l 635 1057 l 458 835 l 347 835 z "},"ŕ":{"ha":518,"x_min":103,"x_max":539,"o":"m 103 0 l 103 704 l 218 704 l 233 600 q 306 665 272 642 q 374 699 339 688 q 449 710 408 710 q 506 706 475 710 l 506 581 q 431 586 461 586 q 240 519 319 586 l 240 0 l 103 0 m 251 835 l 378 1057 l 539 1057 l 363 835 l 251 835 z "},"ś":{"ha":600,"x_min":53,"x_max":561,"o":"m 433 189 q 412 243 433 222 q 333 285 390 264 l 215 329 q 61 524 61 386 q 131 669 61 614 q 315 725 201 725 q 522 681 425 725 l 522 583 q 322 618 414 618 q 189 528 189 618 q 211 471 189 492 q 299 425 233 450 l 407 383 q 525 308 489 351 q 561 194 561 264 q 488 38 561 96 q 292 -21 414 -21 q 53 32 154 -21 l 53 129 q 294 86 183 86 q 398 113 363 86 q 433 189 433 139 m 250 835 l 376 1057 l 538 1057 l 361 835 l 250 835 z "},"ú":{"ha":799,"x_min":97,"x_max":696,"o":"m 582 0 l 567 75 q 301 -21 438 -21 q 150 35 203 -21 q 97 192 97 90 l 97 704 l 235 704 l 235 236 q 264 126 235 161 q 357 90 293 90 q 558 157 457 90 l 558 704 l 696 704 l 696 0 l 582 0 m 340 835 l 467 1057 l 628 1057 l 451 835 l 340 835 z "},"ẃ":{"ha":1068,"x_min":13,"x_max":1056,"o":"m 681 0 l 531 551 l 382 0 l 243 0 l 13 704 l 157 704 l 315 140 l 465 704 l 603 704 l 753 133 l 915 704 l 1056 704 l 819 0 l 681 0 m 478 835 l 604 1057 l 765 1057 l 589 835 l 478 835 z "},"ý":{"ha":707,"x_min":10,"x_max":697,"o":"m 293 -7 l 10 704 l 157 704 l 360 128 l 556 704 l 697 704 l 376 -124 q 290 -261 340 -219 q 161 -303 239 -303 q 53 -283 103 -303 l 53 -185 q 132 -194 90 -194 q 213 -169 183 -194 q 267 -78 243 -143 l 293 -7 m 297 835 l 424 1057 l 585 1057 l 408 835 l 297 835 z "},"ź":{"ha":663,"x_min":50,"x_max":611,"o":"m 50 0 l 50 106 l 454 596 l 64 596 l 64 704 l 607 704 l 607 600 l 197 108 l 611 108 l 611 0 l 50 0 m 279 835 l 406 1057 l 567 1057 l 390 835 l 279 835 z "},"ǽ":{"ha":1172,"x_min":58,"x_max":1110,"o":"m 361 725 q 505 696 446 725 q 592 611 564 667 q 696 696 633 667 q 836 725 758 725 q 1039 651 968 725 q 1110 439 1110 576 q 1097 314 1110 369 l 635 314 q 697 142 640 196 q 874 89 754 89 q 1094 132 982 89 l 1094 33 q 851 -21 994 -21 q 569 106 653 -21 q 434 15 510 47 q 283 -18 358 -18 q 119 38 179 -18 q 58 189 58 94 q 132 356 58 294 q 332 418 206 418 q 513 406 419 418 l 513 467 q 473 579 513 543 q 349 615 433 615 q 106 572 238 615 l 106 669 q 226 710 156 694 q 361 725 297 725 m 311 83 q 423 109 364 83 q 533 181 482 135 q 510 322 514 238 q 360 328 442 328 q 193 197 193 328 q 311 83 193 83 m 829 621 q 635 407 646 621 l 986 407 q 988 444 988 422 q 829 621 988 621 m 533 835 l 660 1057 l 821 1057 l 644 835 l 533 835 z "},"ǿ":{"ha":806,"x_min":67,"x_max":739,"o":"m 75 10 l 142 93 q 67 353 67 192 q 156 626 67 528 q 403 725 244 725 q 601 668 521 725 l 665 749 l 733 693 l 665 607 q 739 353 739 510 q 650 78 739 176 q 403 -21 561 -21 q 206 33 288 -21 l 143 -46 l 75 10 m 207 353 q 231 203 207 263 l 525 574 q 403 614 478 614 q 207 353 207 614 m 403 90 q 599 353 599 90 q 576 497 599 435 l 282 128 q 403 90 328 90 m 347 835 l 474 1057 l 635 1057 l 458 835 l 347 835 z "},"ő":{"ha":806,"x_min":67,"x_max":756,"o":"m 403 -21 q 156 78 244 -21 q 67 353 67 176 q 156 626 67 528 q 403 725 244 725 q 650 626 561 725 q 739 353 739 528 q 650 78 739 176 q 403 -21 561 -21 m 403 90 q 599 353 599 90 q 403 614 599 614 q 207 353 207 614 q 403 90 207 90 m 211 835 l 338 1057 l 500 1057 l 324 835 l 211 835 m 467 835 l 594 1057 l 756 1057 l 579 835 l 467 835 z "},"ű":{"ha":799,"x_min":97,"x_max":749,"o":"m 582 0 l 567 75 q 301 -21 438 -21 q 150 35 203 -21 q 97 192 97 90 l 97 704 l 235 704 l 235 236 q 264 126 235 161 q 357 90 293 90 q 558 157 457 90 l 558 704 l 696 704 l 696 0 l 582 0 m 204 835 l 331 1057 l 493 1057 l 317 835 l 204 835 m 460 835 l 588 1057 l 749 1057 l 572 835 l 460 835 z "},"̀":{"ha":0,"x_min":-232,"x_max":56,"o":"m -56 835 l -232 1057 l -71 1057 l 56 835 l -56 835 z "},"`":{"ha":817,"x_min":264,"x_max":551,"o":"m 440 835 l 264 1057 l 425 1057 l 551 835 l 440 835 z "},"ˋ":{"ha":817,"x_min":264,"x_max":551,"o":"m 440 835 l 264 1057 l 425 1057 l 551 835 l 440 835 z "},"À":{"ha":892,"x_min":14,"x_max":878,"o":"m 731 0 l 642 256 l 246 256 l 160 0 l 14 0 l 369 963 l 522 963 l 878 0 l 731 0 m 282 363 l 606 363 l 443 835 l 282 363 m 385 1068 l 208 1239 l 374 1239 l 507 1068 l 385 1068 z "},"È":{"ha":779,"x_min":117,"x_max":715,"o":"m 117 0 l 117 963 l 715 963 l 715 849 l 258 849 l 258 553 l 642 553 l 642 439 l 258 439 l 258 114 l 715 114 l 715 0 l 117 0 m 354 1068 l 178 1239 l 343 1239 l 476 1068 l 354 1068 z "},"Ì":{"ha":386,"x_min":-44,"x_max":264,"o":"m 122 0 l 122 963 l 264 963 l 264 0 l 122 0 m 132 1068 l -44 1239 l 121 1239 l 254 1068 l 132 1068 z "},"Ò":{"ha":1079,"x_min":89,"x_max":990,"o":"m 235 481 q 313 194 235 292 q 540 96 392 96 q 767 194 689 96 q 844 481 844 293 q 767 766 844 668 q 540 864 689 864 q 313 766 390 864 q 235 481 235 668 m 89 481 q 142 748 89 635 q 297 922 194 861 q 540 983 399 983 q 870 849 750 983 q 990 481 990 715 q 938 213 990 326 q 783 38 885 100 q 540 -24 682 -24 q 301 35 403 -24 q 144 208 200 94 q 89 481 89 322 m 479 1068 l 303 1239 l 468 1239 l 601 1068 l 479 1068 z "},"Ù":{"ha":981,"x_min":111,"x_max":869,"o":"m 728 963 l 869 963 l 869 351 q 772 74 869 171 q 490 -24 674 -24 q 209 73 307 -24 q 111 351 111 169 l 111 963 l 253 963 l 253 339 q 314 159 253 222 q 490 96 375 96 q 667 159 606 96 q 728 339 728 222 l 728 963 m 429 1068 l 253 1239 l 418 1239 l 551 1068 l 429 1068 z "},"Ẁ":{"ha":1290,"x_min":24,"x_max":1267,"o":"m 828 0 l 646 754 l 463 0 l 304 0 l 24 963 l 178 963 l 385 156 l 569 935 l 725 935 l 910 154 l 1118 963 l 1267 963 l 986 0 l 828 0 m 586 1068 l 410 1239 l 575 1239 l 708 1068 l 586 1068 z "},"Ỳ":{"ha":839,"x_min":19,"x_max":819,"o":"m 347 0 l 347 354 l 19 963 l 176 963 l 419 469 l 667 963 l 819 963 l 486 351 l 486 0 l 347 0 m 360 1068 l 183 1239 l 349 1239 l 482 1068 l 360 1068 z "},"à":{"ha":732,"x_min":58,"x_max":631,"o":"m 517 0 l 506 72 q 395 6 456 29 q 275 -18 335 -18 q 117 38 176 -18 q 58 189 58 94 q 131 351 58 290 q 325 411 203 411 q 500 388 406 411 l 500 479 q 466 585 500 554 q 350 615 432 615 q 106 572 232 615 l 106 669 q 228 710 156 696 q 374 725 300 725 q 568 670 506 725 q 631 503 631 615 l 631 0 l 517 0 m 308 86 q 500 157 403 86 l 500 299 q 353 317 428 317 q 196 196 196 317 q 225 115 196 143 q 308 86 254 86 m 314 835 l 138 1057 l 299 1057 l 425 835 l 314 835 z "},"è":{"ha":735,"x_min":67,"x_max":672,"o":"m 200 322 q 259 146 203 203 q 433 89 315 89 q 657 132 543 89 l 657 33 q 413 -21 557 -21 q 154 74 242 -21 q 67 353 67 168 q 154 627 67 529 q 399 725 242 725 q 601 651 531 725 q 672 440 672 576 q 661 322 672 375 l 200 322 m 392 621 q 256 569 304 621 q 200 414 207 517 l 546 414 q 547 450 547 425 q 508 578 547 535 q 392 621 468 621 m 325 835 l 149 1057 l 310 1057 l 436 835 l 325 835 z "},"ì":{"ha":354,"x_min":-56,"x_max":246,"o":"m 108 0 l 108 704 l 246 704 l 246 0 l 108 0 m 121 835 l -56 1057 l 106 1057 l 232 835 l 121 835 z "},"ò":{"ha":806,"x_min":67,"x_max":739,"o":"m 403 -21 q 156 78 244 -21 q 67 353 67 176 q 156 626 67 528 q 403 725 244 725 q 650 626 561 725 q 739 353 739 528 q 650 78 739 176 q 403 -21 561 -21 m 403 90 q 599 353 599 90 q 403 614 599 614 q 207 353 207 614 q 403 90 207 90 m 347 835 l 171 1057 l 332 1057 l 458 835 l 347 835 z "},"ù":{"ha":799,"x_min":97,"x_max":696,"o":"m 582 0 l 567 75 q 301 -21 438 -21 q 150 35 203 -21 q 97 192 97 90 l 97 704 l 235 704 l 235 236 q 264 126 235 161 q 357 90 293 90 q 558 157 457 90 l 558 704 l 696 704 l 696 0 l 582 0 m 340 835 l 164 1057 l 325 1057 l 451 835 l 340 835 z "},"ẁ":{"ha":1068,"x_min":13,"x_max":1056,"o":"m 681 0 l 531 551 l 382 0 l 243 0 l 13 704 l 157 704 l 315 140 l 465 704 l 603 704 l 753 133 l 915 704 l 1056 704 l 819 0 l 681 0 m 478 835 l 301 1057 l 463 1057 l 589 835 l 478 835 z "},"ỳ":{"ha":707,"x_min":10,"x_max":697,"o":"m 293 -7 l 10 704 l 157 704 l 360 128 l 556 704 l 697 704 l 376 -124 q 290 -261 340 -219 q 161 -303 239 -303 q 53 -283 103 -303 l 53 -185 q 132 -194 90 -194 q 213 -169 183 -194 q 267 -78 243 -143 l 293 -7 m 297 835 l 121 1057 l 282 1057 l 408 835 l 297 835 z "},"̂":{"ha":0,"x_min":-250,"x_max":250,"o":"m 131 835 l 0 978 l -131 835 l -250 835 l -69 1058 l 69 1058 l 250 835 l 131 835 z "},"ˆ":{"ha":817,"x_min":158,"x_max":658,"o":"m 539 835 l 408 978 l 278 835 l 158 835 l 339 1058 l 478 1058 l 658 835 l 539 835 z "},"̃":{"ha":0,"x_min":-231,"x_max":231,"o":"m 97 838 q -22 889 31 838 q -67 926 -53 917 q -99 935 -82 935 q -140 879 -137 935 l -143 842 l -226 842 q -230 864 -229 853 q -231 886 -231 875 q -194 983 -231 947 q -97 1018 -158 1018 q 22 967 -31 1018 q 67 930 53 939 q 99 921 82 921 q 140 976 138 921 l 143 1014 l 226 1014 q 230 992 229 1003 q 231 969 231 981 q 194 873 231 908 q 97 838 158 838 z "},"˜":{"ha":817,"x_min":178,"x_max":639,"o":"m 506 838 q 386 889 439 838 q 341 926 356 917 q 310 935 326 935 q 268 879 271 935 l 265 842 l 182 842 q 178 864 179 853 q 178 886 178 875 q 214 983 178 947 q 311 1018 250 1018 q 431 967 378 1018 q 476 930 461 939 q 507 921 490 921 q 549 976 546 921 l 551 1014 l 635 1014 q 638 992 638 1003 q 639 969 639 981 q 603 873 639 908 q 506 838 567 838 z "},"Â":{"ha":892,"x_min":14,"x_max":878,"o":"m 731 0 l 642 256 l 246 256 l 160 0 l 14 0 l 369 963 l 522 963 l 878 0 l 731 0 m 282 363 l 606 363 l 443 835 l 282 363 m 564 1068 l 446 1179 l 326 1068 l 189 1068 l 374 1256 l 517 1256 l 701 1068 l 564 1068 z "},"Ĉ":{"ha":843,"x_min":89,"x_max":794,"o":"m 794 26 q 551 -17 682 -17 q 206 109 324 -17 q 89 478 89 235 q 210 847 89 718 q 558 976 332 976 q 781 939 676 976 l 781 824 q 575 853 654 853 q 319 767 400 853 q 239 496 239 682 l 239 463 q 317 193 239 279 q 567 107 396 107 q 794 142 654 107 l 794 26 m 654 1068 l 536 1179 l 417 1068 l 279 1068 l 464 1256 l 607 1256 l 792 1068 l 654 1068 z "},"Ê":{"ha":779,"x_min":117,"x_max":715,"o":"m 117 0 l 117 963 l 715 963 l 715 849 l 258 849 l 258 553 l 642 553 l 642 439 l 258 439 l 258 114 l 715 114 l 715 0 l 117 0 m 533 1068 l 415 1179 l 296 1068 l 158 1068 l 343 1256 l 486 1256 l 671 1068 l 533 1068 z "},"Ĝ":{"ha":961,"x_min":89,"x_max":861,"o":"m 581 103 q 728 118 663 103 l 728 400 l 513 400 l 513 510 l 861 510 l 861 51 q 721 1 801 18 q 553 -17 640 -17 q 207 108 325 -17 q 89 475 89 233 q 210 848 89 719 q 560 976 331 976 q 828 919 706 976 l 828 808 q 575 857 686 857 q 317 769 399 857 q 235 493 235 681 l 235 463 q 319 190 235 278 q 581 103 403 103 m 665 1068 l 547 1179 l 428 1068 l 290 1068 l 475 1256 l 618 1256 l 803 1068 l 665 1068 z "},"Ĥ":{"ha":997,"x_min":117,"x_max":881,"o":"m 739 0 l 739 435 l 258 435 l 258 0 l 117 0 l 117 963 l 258 963 l 258 549 l 739 549 l 739 963 l 881 963 l 881 0 l 739 0 m 617 1068 l 499 1179 l 379 1068 l 242 1068 l 426 1256 l 569 1256 l 754 1068 l 617 1068 z "},"Î":{"ha":386,"x_min":-64,"x_max":449,"o":"m 122 0 l 122 963 l 264 963 l 264 0 l 122 0 m 311 1068 l 193 1179 l 74 1068 l -64 1068 l 121 1256 l 264 1256 l 449 1068 l 311 1068 z "},"Ĵ":{"ha":607,"x_min":36,"x_max":681,"o":"m 36 122 q 193 96 115 96 q 317 140 279 96 q 354 283 354 183 l 354 963 l 496 963 l 496 286 q 206 -24 496 -24 q 36 13 124 -24 l 36 122 m 543 1068 l 425 1179 l 306 1068 l 168 1068 l 353 1256 l 496 1256 l 681 1068 l 543 1068 z "},"Ô":{"ha":1079,"x_min":89,"x_max":990,"o":"m 235 481 q 313 194 235 292 q 540 96 392 96 q 767 194 689 96 q 844 481 844 293 q 767 766 844 668 q 540 864 689 864 q 313 766 390 864 q 235 481 235 668 m 89 481 q 142 748 89 635 q 297 922 194 861 q 540 983 399 983 q 870 849 750 983 q 990 481 990 715 q 938 213 990 326 q 783 38 885 100 q 540 -24 682 -24 q 301 35 403 -24 q 144 208 200 94 q 89 481 89 322 m 658 1068 l 540 1179 l 421 1068 l 283 1068 l 468 1256 l 611 1256 l 796 1068 l 658 1068 z "},"Ŝ":{"ha":792,"x_min":81,"x_max":718,"o":"m 297 457 q 132 561 183 500 q 81 715 81 622 q 119 853 81 793 q 231 949 158 914 q 403 983 304 983 q 660 933 528 983 l 660 821 q 413 864 519 864 q 273 827 322 864 q 224 722 224 790 q 257 634 224 667 q 381 568 290 601 l 507 521 q 669 420 619 479 q 718 268 718 361 q 623 56 718 135 q 367 -24 528 -24 q 89 33 207 -24 l 89 144 q 364 96 235 96 q 519 139 463 96 q 575 256 575 182 q 542 341 575 307 q 432 406 510 375 l 297 457 m 518 1068 l 400 1179 l 281 1068 l 143 1068 l 328 1256 l 471 1256 l 656 1068 l 518 1068 z "},"Û":{"ha":981,"x_min":111,"x_max":869,"o":"m 728 963 l 869 963 l 869 351 q 772 74 869 171 q 490 -24 674 -24 q 209 73 307 -24 q 111 351 111 169 l 111 963 l 253 963 l 253 339 q 314 159 253 222 q 490 96 375 96 q 667 159 606 96 q 728 339 728 222 l 728 963 m 608 1068 l 490 1179 l 371 1068 l 233 1068 l 418 1256 l 561 1256 l 746 1068 l 608 1068 z "},"Ŵ":{"ha":1290,"x_min":24,"x_max":1267,"o":"m 828 0 l 646 754 l 463 0 l 304 0 l 24 963 l 178 963 l 385 156 l 569 935 l 725 935 l 910 154 l 1118 963 l 1267 963 l 986 0 l 828 0 m 765 1068 l 647 1179 l 528 1068 l 390 1068 l 575 1256 l 718 1256 l 903 1068 l 765 1068 z "},"Ŷ":{"ha":839,"x_min":19,"x_max":819,"o":"m 347 0 l 347 354 l 19 963 l 176 963 l 419 469 l 667 963 l 819 963 l 486 351 l 486 0 l 347 0 m 539 1068 l 421 1179 l 301 1068 l 164 1068 l 349 1256 l 492 1256 l 676 1068 l 539 1068 z "},"Ã":{"ha":892,"x_min":14,"x_max":878,"o":"m 731 0 l 642 256 l 246 256 l 160 0 l 14 0 l 369 963 l 522 963 l 878 0 l 731 0 m 282 363 l 606 363 l 443 835 l 282 363 m 543 1068 q 424 1119 476 1068 q 381 1153 396 1144 q 347 1163 365 1163 q 307 1110 308 1163 l 304 1072 l 219 1072 q 216 1094 217 1083 q 215 1117 215 1106 q 251 1213 215 1178 q 349 1249 288 1249 q 468 1197 415 1249 q 511 1163 496 1172 q 544 1154 526 1154 q 585 1207 583 1154 l 588 1244 l 672 1244 q 676 1222 675 1233 q 676 1200 676 1211 q 640 1103 676 1139 q 543 1068 604 1068 z "},"Ĩ":{"ha":386,"x_min":-37,"x_max":424,"o":"m 122 0 l 122 963 l 264 963 l 264 0 l 122 0 m 290 1068 q 171 1119 224 1068 q 128 1153 143 1144 q 94 1163 113 1163 q 54 1110 56 1163 l 51 1072 l -33 1072 q -37 1094 -36 1083 q -37 1117 -37 1106 q -1 1213 -37 1178 q 96 1249 35 1249 q 215 1197 163 1249 q 258 1163 243 1172 q 292 1154 274 1154 q 332 1207 331 1154 l 335 1244 l 419 1244 q 423 1222 422 1233 q 424 1200 424 1211 q 388 1103 424 1139 q 290 1068 351 1068 z "},"Ñ":{"ha":992,"x_min":117,"x_max":875,"o":"m 247 765 l 247 0 l 117 0 l 117 963 l 271 963 l 744 193 l 744 963 l 875 963 l 875 0 l 719 0 l 247 765 m 604 1068 q 485 1119 538 1068 q 442 1153 457 1144 q 408 1163 426 1163 q 368 1110 369 1163 l 365 1072 l 281 1072 q 277 1094 278 1083 q 276 1117 276 1106 q 313 1213 276 1178 q 410 1249 349 1249 q 529 1197 476 1249 q 572 1163 557 1172 q 606 1154 588 1154 q 646 1207 644 1154 l 649 1244 l 733 1244 q 737 1222 736 1233 q 738 1200 738 1211 q 701 1103 738 1139 q 604 1068 665 1068 z "},"Õ":{"ha":1079,"x_min":89,"x_max":990,"o":"m 235 481 q 313 194 235 292 q 540 96 392 96 q 767 194 689 96 q 844 481 844 293 q 767 766 844 668 q 540 864 689 864 q 313 766 390 864 q 235 481 235 668 m 89 481 q 142 748 89 635 q 297 922 194 861 q 540 983 399 983 q 870 849 750 983 q 990 481 990 715 q 938 213 990 326 q 783 38 885 100 q 540 -24 682 -24 q 301 35 403 -24 q 144 208 200 94 q 89 481 89 322 m 638 1068 q 518 1119 571 1068 q 475 1153 490 1144 q 442 1163 460 1163 q 401 1110 403 1163 l 399 1072 l 314 1072 q 310 1094 311 1083 q 310 1117 310 1106 q 346 1213 310 1178 q 443 1249 382 1249 q 563 1197 510 1249 q 606 1163 590 1172 q 639 1154 621 1154 q 679 1207 678 1154 l 682 1244 l 767 1244 q 770 1222 769 1233 q 771 1200 771 1211 q 735 1103 771 1139 q 638 1068 699 1068 z "},"Ũ":{"ha":981,"x_min":111,"x_max":869,"o":"m 728 963 l 869 963 l 869 351 q 772 74 869 171 q 490 -24 674 -24 q 209 73 307 -24 q 111 351 111 169 l 111 963 l 253 963 l 253 339 q 314 159 253 222 q 490 96 375 96 q 667 159 606 96 q 728 339 728 222 l 728 963 m 588 1068 q 468 1119 521 1068 q 425 1153 440 1144 q 392 1163 410 1163 q 351 1110 353 1163 l 349 1072 l 264 1072 q 260 1094 261 1083 q 260 1117 260 1106 q 296 1213 260 1178 q 393 1249 332 1249 q 513 1197 460 1249 q 556 1163 540 1172 q 589 1154 571 1154 q 629 1207 628 1154 l 632 1244 l 717 1244 q 720 1222 719 1233 q 721 1200 721 1211 q 685 1103 721 1139 q 588 1068 649 1068 z "},"â":{"ha":732,"x_min":58,"x_max":631,"o":"m 517 0 l 506 72 q 395 6 456 29 q 275 -18 335 -18 q 117 38 176 -18 q 58 189 58 94 q 131 351 58 290 q 325 411 203 411 q 500 388 406 411 l 500 479 q 466 585 500 554 q 350 615 432 615 q 106 572 232 615 l 106 669 q 228 710 156 696 q 374 725 300 725 q 568 670 506 725 q 631 503 631 615 l 631 0 l 517 0 m 308 86 q 500 157 403 86 l 500 299 q 353 317 428 317 q 196 196 196 317 q 225 115 196 143 q 308 86 254 86 m 500 835 l 369 978 l 239 835 l 119 835 l 300 1058 l 439 1058 l 619 835 l 500 835 z "},"ĉ":{"ha":640,"x_min":67,"x_max":624,"o":"m 590 26 q 404 -15 510 -15 q 153 78 240 -15 q 67 350 67 172 q 156 623 67 526 q 410 719 246 719 q 585 681 503 719 l 585 582 q 429 607 506 607 q 261 548 313 607 q 210 360 210 489 l 210 342 q 262 156 210 215 q 426 97 314 97 q 590 125 501 97 l 590 26 m 504 835 l 374 978 l 243 835 l 124 835 l 304 1058 l 443 1058 l 624 835 l 504 835 z "},"ê":{"ha":735,"x_min":67,"x_max":672,"o":"m 200 322 q 259 146 203 203 q 433 89 315 89 q 657 132 543 89 l 657 33 q 413 -21 557 -21 q 154 74 242 -21 q 67 353 67 168 q 154 627 67 529 q 399 725 242 725 q 601 651 531 725 q 672 440 672 576 q 661 322 672 375 l 200 322 m 392 621 q 256 569 304 621 q 200 414 207 517 l 546 414 q 547 450 547 425 q 508 578 547 535 q 392 621 468 621 m 511 835 l 381 978 l 250 835 l 131 835 l 311 1058 l 450 1058 l 631 835 l 511 835 z "},"ĝ":{"ha":806,"x_min":67,"x_max":703,"o":"m 567 96 q 465 34 519 56 q 356 13 411 13 q 206 54 271 13 q 103 176 140 96 q 67 363 67 256 q 146 627 67 529 q 358 725 225 725 q 576 639 483 725 l 588 704 l 703 704 l 703 43 q 615 -212 703 -122 q 364 -303 526 -303 q 124 -247 233 -303 l 124 -149 q 353 -192 251 -192 q 515 -138 464 -192 q 567 33 567 -85 l 567 96 m 396 124 q 567 188 482 124 l 567 553 q 482 599 525 585 q 388 614 439 614 q 207 368 207 614 q 255 185 207 247 q 396 124 303 124 m 539 835 l 408 978 l 278 835 l 158 835 l 339 1058 l 478 1058 l 658 835 l 539 835 z "},"ĥ":{"ha":817,"x_min":-86,"x_max":717,"o":"m 579 0 l 579 471 q 549 579 579 544 q 456 614 519 614 q 240 543 346 614 l 240 0 l 103 0 l 103 1028 l 240 1028 l 240 632 q 510 725 372 725 q 664 672 611 725 q 717 517 717 618 l 717 0 l 579 0 m 289 1096 l 171 1207 l 51 1096 l -86 1096 l 99 1283 l 242 1283 l 426 1096 l 289 1096 z "},"î":{"ha":354,"x_min":-74,"x_max":426,"o":"m 108 0 l 108 704 l 246 704 l 246 0 l 108 0 m 307 835 l 176 978 l 46 835 l -74 835 l 107 1058 l 246 1058 l 426 835 l 307 835 z "},"ĵ":{"ha":354,"x_min":-74,"x_max":426,"o":"m 108 704 l 246 704 l 246 -118 q 201 -256 246 -208 q 71 -303 157 -303 q -47 -285 13 -303 l -47 -186 q 35 -192 -15 -192 q 91 -177 74 -192 q 108 -129 108 -162 l 108 704 m 307 835 l 176 978 l 46 835 l -74 835 l 107 1058 l 246 1058 l 426 835 l 307 835 z "},"ô":{"ha":806,"x_min":67,"x_max":739,"o":"m 403 -21 q 156 78 244 -21 q 67 353 67 176 q 156 626 67 528 q 403 725 244 725 q 650 626 561 725 q 739 353 739 528 q 650 78 739 176 q 403 -21 561 -21 m 403 90 q 599 353 599 90 q 403 614 599 614 q 207 353 207 614 q 403 90 207 90 m 533 835 l 403 978 l 272 835 l 153 835 l 333 1058 l 472 1058 l 653 835 l 533 835 z "},"ŝ":{"ha":600,"x_min":53,"x_max":561,"o":"m 433 189 q 412 243 433 222 q 333 285 390 264 l 215 329 q 61 524 61 386 q 131 669 61 614 q 315 725 201 725 q 522 681 425 725 l 522 583 q 322 618 414 618 q 189 528 189 618 q 211 471 189 492 q 299 425 233 450 l 407 383 q 525 308 489 351 q 561 194 561 264 q 488 38 561 96 q 292 -21 414 -21 q 53 32 154 -21 l 53 129 q 294 86 183 86 q 398 113 363 86 q 433 189 433 139 m 436 835 l 306 978 l 175 835 l 56 835 l 236 1058 l 375 1058 l 556 835 l 436 835 z "},"û":{"ha":799,"x_min":97,"x_max":696,"o":"m 582 0 l 567 75 q 301 -21 438 -21 q 150 35 203 -21 q 97 192 97 90 l 97 704 l 235 704 l 235 236 q 264 126 235 161 q 357 90 293 90 q 558 157 457 90 l 558 704 l 696 704 l 696 0 l 582 0 m 526 835 l 396 978 l 265 835 l 146 835 l 326 1058 l 465 1058 l 646 835 l 526 835 z "},"ŵ":{"ha":1068,"x_min":13,"x_max":1056,"o":"m 681 0 l 531 551 l 382 0 l 243 0 l 13 704 l 157 704 l 315 140 l 465 704 l 603 704 l 753 133 l 915 704 l 1056 704 l 819 0 l 681 0 m 664 835 l 533 978 l 403 835 l 283 835 l 464 1058 l 603 1058 l 783 835 l 664 835 z "},"ŷ":{"ha":707,"x_min":10,"x_max":697,"o":"m 293 -7 l 10 704 l 157 704 l 360 128 l 556 704 l 697 704 l 376 -124 q 290 -261 340 -219 q 161 -303 239 -303 q 53 -283 103 -303 l 53 -185 q 132 -194 90 -194 q 213 -169 183 -194 q 267 -78 243 -143 l 293 -7 m 483 835 l 353 978 l 222 835 l 103 835 l 283 1058 l 422 1058 l 603 835 l 483 835 z "},"ã":{"ha":732,"x_min":58,"x_max":631,"o":"m 517 0 l 506 72 q 395 6 456 29 q 275 -18 335 -18 q 117 38 176 -18 q 58 189 58 94 q 131 351 58 290 q 325 411 203 411 q 500 388 406 411 l 500 479 q 466 585 500 554 q 350 615 432 615 q 106 572 232 615 l 106 669 q 228 710 156 696 q 374 725 300 725 q 568 670 506 725 q 631 503 631 615 l 631 0 l 517 0 m 308 86 q 500 157 403 86 l 500 299 q 353 317 428 317 q 196 196 196 317 q 225 115 196 143 q 308 86 254 86 m 467 838 q 347 889 400 838 q 302 926 317 917 q 271 935 288 935 q 229 879 232 935 l 226 842 l 143 842 q 140 864 140 853 q 139 886 139 875 q 175 983 139 947 q 272 1018 211 1018 q 392 967 339 1018 q 437 930 422 939 q 468 921 451 921 q 510 976 507 921 l 513 1014 l 596 1014 q 599 992 599 1003 q 600 969 600 981 q 564 873 600 908 q 467 838 528 838 z "},"ĩ":{"ha":354,"x_min":-54,"x_max":407,"o":"m 108 0 l 108 704 l 246 704 l 246 0 l 108 0 m 274 838 q 154 889 207 838 q 109 926 124 917 q 78 935 94 935 q 36 879 39 935 l 33 842 l -50 842 q -53 864 -53 853 q -54 886 -54 875 q -18 983 -54 947 q 79 1018 18 1018 q 199 967 146 1018 q 244 930 229 939 q 275 921 258 921 q 317 976 314 921 l 319 1014 l 403 1014 q 406 992 406 1003 q 407 969 407 981 q 371 873 407 908 q 274 838 335 838 z "},"ñ":{"ha":817,"x_min":103,"x_max":717,"o":"m 579 0 l 579 471 q 549 579 579 544 q 456 614 519 614 q 240 543 346 614 l 240 0 l 103 0 l 103 704 l 218 704 l 232 626 q 510 725 364 725 q 664 672 611 725 q 717 517 717 618 l 717 0 l 579 0 m 524 838 q 404 889 457 838 q 359 926 374 917 q 328 935 344 935 q 286 879 289 935 l 283 842 l 200 842 q 197 864 197 853 q 196 886 196 875 q 232 983 196 947 q 329 1018 268 1018 q 449 967 396 1018 q 494 930 479 939 q 525 921 508 921 q 567 976 564 921 l 569 1014 l 653 1014 q 656 992 656 1003 q 657 969 657 981 q 621 873 657 908 q 524 838 585 838 z "},"õ":{"ha":806,"x_min":67,"x_max":739,"o":"m 403 -21 q 156 78 244 -21 q 67 353 67 176 q 156 626 67 528 q 403 725 244 725 q 650 626 561 725 q 739 353 739 528 q 650 78 739 176 q 403 -21 561 -21 m 403 90 q 599 353 599 90 q 403 614 599 614 q 207 353 207 614 q 403 90 207 90 m 500 838 q 381 889 433 838 q 335 926 350 917 q 304 935 321 935 q 263 879 265 935 l 260 842 l 176 842 q 173 864 174 853 q 172 886 172 875 q 208 983 172 947 q 306 1018 244 1018 q 425 967 372 1018 q 470 930 456 939 q 501 921 485 921 q 543 976 540 921 l 546 1014 l 629 1014 q 633 992 632 1003 q 633 969 633 981 q 597 873 633 908 q 500 838 561 838 z "},"ũ":{"ha":799,"x_min":97,"x_max":696,"o":"m 582 0 l 567 75 q 301 -21 438 -21 q 150 35 203 -21 q 97 192 97 90 l 97 704 l 235 704 l 235 236 q 264 126 235 161 q 357 90 293 90 q 558 157 457 90 l 558 704 l 696 704 l 696 0 l 582 0 m 493 838 q 374 889 426 838 q 328 926 343 917 q 297 935 314 935 q 256 879 258 935 l 253 842 l 169 842 q 166 864 167 853 q 165 886 165 875 q 201 983 165 947 q 299 1018 238 1018 q 418 967 365 1018 q 463 930 449 939 q 494 921 478 921 q 536 976 533 921 l 539 1014 l 622 1014 q 626 992 625 1003 q 626 969 626 981 q 590 873 626 908 q 493 838 554 838 z "},"̌":{"ha":0,"x_min":-250,"x_max":250,"o":"m -68 835 l -250 1058 l -112 1058 l 0 901 l 113 1058 l 250 1058 l 68 835 l -68 835 z "},"ˇ":{"ha":817,"x_min":158,"x_max":658,"o":"m 340 835 l 158 1058 l 296 1058 l 408 901 l 521 1058 l 658 1058 l 476 835 l 340 835 z "},"̕":{"ha":0,"x_min":-44,"x_max":90,"o":"m -44 757 l -44 1032 q 21 1044 -18 1044 q 90 1024 65 1044 l 44 757 l -44 757 z "},"̄":{"ha":0,"x_min":-224,"x_max":224,"o":"m -224 883 l -224 974 l 224 974 l 224 883 l -224 883 z "},"ˉ":{"ha":817,"x_min":185,"x_max":632,"o":"m 185 883 l 185 974 l 632 974 l 632 883 l 185 883 z "},"¯":{"ha":817,"x_min":185,"x_max":632,"o":"m 185 883 l 185 974 l 632 974 l 632 883 l 185 883 z "},"Č":{"ha":843,"x_min":89,"x_max":794,"o":"m 794 26 q 551 -17 682 -17 q 206 109 324 -17 q 89 478 89 235 q 210 847 89 718 q 558 976 332 976 q 781 939 676 976 l 781 824 q 575 853 654 853 q 319 767 400 853 q 239 496 239 682 l 239 463 q 317 193 239 279 q 567 107 396 107 q 794 142 654 107 l 794 26 m 467 1068 l 281 1256 l 433 1256 l 536 1131 l 639 1256 l 792 1256 l 606 1068 l 467 1068 z "},"Ď":{"ha":958,"x_min":117,"x_max":869,"o":"m 117 0 l 117 963 l 433 963 q 758 840 646 963 q 869 481 869 717 q 756 124 869 247 q 429 0 642 0 l 117 0 m 258 851 l 258 111 l 414 111 q 724 465 724 111 l 724 497 q 646 763 724 674 q 414 851 568 851 l 258 851 m 367 1068 l 181 1256 l 333 1256 l 436 1131 l 539 1256 l 692 1256 l 506 1068 l 367 1068 z "},"Ě":{"ha":779,"x_min":117,"x_max":715,"o":"m 117 0 l 117 963 l 715 963 l 715 849 l 258 849 l 258 553 l 642 553 l 642 439 l 258 439 l 258 114 l 715 114 l 715 0 l 117 0 m 346 1068 l 160 1256 l 313 1256 l 415 1131 l 518 1256 l 671 1256 l 485 1068 l 346 1068 z "},"Ľ":{"ha":728,"x_min":117,"x_max":713,"o":"m 117 0 l 117 963 l 258 963 l 258 117 l 713 117 l 713 0 l 117 0 m 400 729 l 400 1004 q 465 1017 426 1017 q 535 996 510 1017 l 489 729 l 400 729 z "},"Ň":{"ha":992,"x_min":117,"x_max":875,"o":"m 247 765 l 247 0 l 117 0 l 117 963 l 271 963 l 744 193 l 744 963 l 875 963 l 875 0 l 719 0 l 247 765 m 438 1068 l 251 1256 l 404 1256 l 507 1131 l 610 1256 l 763 1256 l 576 1068 l 438 1068 z "},"Ř":{"ha":851,"x_min":117,"x_max":832,"o":"m 117 0 l 117 963 l 468 963 q 692 885 608 963 q 775 678 775 808 q 723 512 775 582 q 576 410 671 442 l 832 0 l 678 0 l 442 388 l 254 388 l 254 0 l 117 0 m 254 500 l 450 500 q 585 544 539 500 q 632 676 632 589 q 588 806 632 763 q 456 850 543 850 l 254 850 l 254 500 m 344 1068 l 158 1256 l 311 1256 l 414 1131 l 517 1256 l 669 1256 l 483 1068 l 344 1068 z "},"Š":{"ha":792,"x_min":81,"x_max":718,"o":"m 297 457 q 132 561 183 500 q 81 715 81 622 q 119 853 81 793 q 231 949 158 914 q 403 983 304 983 q 660 933 528 983 l 660 821 q 413 864 519 864 q 273 827 322 864 q 224 722 224 790 q 257 634 224 667 q 381 568 290 601 l 507 521 q 669 420 619 479 q 718 268 718 361 q 623 56 718 135 q 367 -24 528 -24 q 89 33 207 -24 l 89 144 q 364 96 235 96 q 519 139 463 96 q 575 256 575 182 q 542 341 575 307 q 432 406 510 375 l 297 457 m 331 1068 l 144 1256 l 297 1256 l 400 1131 l 503 1256 l 656 1256 l 469 1068 l 331 1068 z "},"Ť":{"ha":797,"x_min":21,"x_max":776,"o":"m 328 0 l 328 846 l 21 846 l 21 963 l 776 963 l 776 846 l 469 846 l 469 0 l 328 0 m 329 1068 l 143 1256 l 296 1256 l 399 1131 l 501 1256 l 654 1256 l 468 1068 l 329 1068 z "},"Ǔ":{"ha":981,"x_min":111,"x_max":869,"o":"m 728 963 l 869 963 l 869 351 q 772 74 869 171 q 490 -24 674 -24 q 209 73 307 -24 q 111 351 111 169 l 111 963 l 253 963 l 253 339 q 314 159 253 222 q 490 96 375 96 q 667 159 606 96 q 728 339 728 222 l 728 963 m 421 1068 l 235 1256 l 388 1256 l 490 1131 l 593 1256 l 746 1256 l 560 1068 l 421 1068 z "},"Ž":{"ha":804,"x_min":58,"x_max":746,"o":"m 58 0 l 58 108 l 592 847 l 89 847 l 89 963 l 746 963 l 746 854 l 211 115 l 746 115 l 746 0 l 58 0 m 347 1068 l 161 1256 l 314 1256 l 417 1131 l 519 1256 l 672 1256 l 486 1068 l 347 1068 z "},"Ā":{"ha":892,"x_min":14,"x_max":878,"o":"m 731 0 l 642 256 l 246 256 l 160 0 l 14 0 l 369 963 l 522 963 l 878 0 l 731 0 m 282 363 l 606 363 l 443 835 l 282 363 m 222 1110 l 222 1204 l 669 1204 l 669 1110 l 222 1110 z "},"Ē":{"ha":779,"x_min":117,"x_max":715,"o":"m 117 0 l 117 963 l 715 963 l 715 849 l 258 849 l 258 553 l 642 553 l 642 439 l 258 439 l 258 114 l 715 114 l 715 0 l 117 0 m 192 1110 l 192 1204 l 639 1204 l 639 1110 l 192 1110 z "},"Ī":{"ha":386,"x_min":-31,"x_max":417,"o":"m 122 0 l 122 963 l 264 963 l 264 0 l 122 0 m -31 1110 l -31 1204 l 417 1204 l 417 1110 l -31 1110 z "},"Ō":{"ha":1079,"x_min":89,"x_max":990,"o":"m 235 481 q 313 194 235 292 q 540 96 392 96 q 767 194 689 96 q 844 481 844 293 q 767 766 844 668 q 540 864 689 864 q 313 766 390 864 q 235 481 235 668 m 89 481 q 142 748 89 635 q 297 922 194 861 q 540 983 399 983 q 870 849 750 983 q 990 481 990 715 q 938 213 990 326 q 783 38 885 100 q 540 -24 682 -24 q 301 35 403 -24 q 144 208 200 94 q 89 481 89 322 m 317 1110 l 317 1204 l 764 1204 l 764 1110 l 317 1110 z "},"Ū":{"ha":981,"x_min":111,"x_max":869,"o":"m 728 963 l 869 963 l 869 351 q 772 74 869 171 q 490 -24 674 -24 q 209 73 307 -24 q 111 351 111 169 l 111 963 l 253 963 l 253 339 q 314 159 253 222 q 490 96 375 96 q 667 159 606 96 q 728 339 728 222 l 728 963 m 267 1110 l 267 1204 l 714 1204 l 714 1110 l 267 1110 z "},"č":{"ha":640,"x_min":67,"x_max":624,"o":"m 590 26 q 404 -15 510 -15 q 153 78 240 -15 q 67 350 67 172 q 156 623 67 526 q 410 719 246 719 q 585 681 503 719 l 585 582 q 429 607 506 607 q 261 548 313 607 q 210 360 210 489 l 210 342 q 262 156 210 215 q 426 97 314 97 q 590 125 501 97 l 590 26 m 306 835 l 124 1058 l 261 1058 l 374 901 l 486 1058 l 624 1058 l 442 835 l 306 835 z "},"ď":{"ha":910,"x_min":67,"x_max":956,"o":"m 603 0 l 585 72 q 481 8 539 31 q 363 -15 422 -15 q 208 28 275 -15 q 104 153 142 71 q 67 349 67 236 q 103 546 67 461 q 206 678 139 631 q 367 725 274 725 q 579 647 485 725 l 579 1028 l 717 1028 l 717 0 l 603 0 m 404 96 q 579 160 490 96 l 579 553 q 492 599 536 585 q 396 614 449 614 q 207 353 207 614 q 404 96 207 96 m 821 757 l 821 1032 q 886 1044 847 1044 q 956 1024 931 1044 l 910 757 l 821 757 z "},"ě":{"ha":735,"x_min":67,"x_max":672,"o":"m 200 322 q 259 146 203 203 q 433 89 315 89 q 657 132 543 89 l 657 33 q 413 -21 557 -21 q 154 74 242 -21 q 67 353 67 168 q 154 627 67 529 q 399 725 242 725 q 601 651 531 725 q 672 440 672 576 q 661 322 672 375 l 200 322 m 392 621 q 256 569 304 621 q 200 414 207 517 l 546 414 q 547 450 547 425 q 508 578 547 535 q 392 621 468 621 m 313 835 l 131 1058 l 268 1058 l 381 901 l 493 1058 l 631 1058 l 449 835 l 313 835 z "},"ľ":{"ha":433,"x_min":103,"x_max":479,"o":"m 354 10 q 254 -7 308 -7 q 142 35 181 -7 q 103 157 103 78 l 103 1028 l 240 1028 l 240 165 q 253 119 240 133 q 297 104 267 104 q 354 108 325 104 l 354 10 m 344 757 l 344 1032 q 410 1044 371 1044 q 479 1024 454 1044 l 433 757 l 344 757 z "},"ň":{"ha":817,"x_min":103,"x_max":717,"o":"m 579 0 l 579 471 q 549 579 579 544 q 456 614 519 614 q 240 543 346 614 l 240 0 l 103 0 l 103 704 l 218 704 l 232 626 q 510 725 364 725 q 664 672 611 725 q 717 517 717 618 l 717 0 l 579 0 m 358 835 l 176 1058 l 314 1058 l 426 901 l 539 1058 l 676 1058 l 494 835 l 358 835 z "},"ř":{"ha":518,"x_min":57,"x_max":557,"o":"m 103 0 l 103 704 l 218 704 l 233 600 q 306 665 272 642 q 374 699 339 688 q 449 710 408 710 q 506 706 475 710 l 506 581 q 431 586 461 586 q 240 519 319 586 l 240 0 l 103 0 m 239 835 l 57 1058 l 194 1058 l 307 901 l 419 1058 l 557 1058 l 375 835 l 239 835 z "},"š":{"ha":600,"x_min":53,"x_max":561,"o":"m 433 189 q 412 243 433 222 q 333 285 390 264 l 215 329 q 61 524 61 386 q 131 669 61 614 q 315 725 201 725 q 522 681 425 725 l 522 583 q 322 618 414 618 q 189 528 189 618 q 211 471 189 492 q 299 425 233 450 l 407 383 q 525 308 489 351 q 561 194 561 264 q 488 38 561 96 q 292 -21 414 -21 q 53 32 154 -21 l 53 129 q 294 86 183 86 q 398 113 363 86 q 433 189 433 139 m 238 835 l 56 1058 l 193 1058 l 306 901 l 418 1058 l 556 1058 l 374 835 l 238 835 z "},"ť":{"ha":532,"x_min":19,"x_max":526,"o":"m 499 17 q 344 -10 431 -10 q 147 188 147 -10 l 147 596 l 19 596 l 19 685 l 151 701 l 172 901 l 285 901 l 285 704 l 493 704 l 493 596 l 285 596 l 285 194 q 308 122 285 143 q 386 101 331 101 q 499 115 443 101 l 499 17 m 392 797 l 392 1039 q 457 1051 418 1051 q 526 1032 501 1051 l 481 797 l 392 797 z "},"ǔ":{"ha":799,"x_min":97,"x_max":696,"o":"m 582 0 l 567 75 q 301 -21 438 -21 q 150 35 203 -21 q 97 192 97 90 l 97 704 l 235 704 l 235 236 q 264 126 235 161 q 357 90 293 90 q 558 157 457 90 l 558 704 l 696 704 l 696 0 l 582 0 m 328 835 l 146 1058 l 283 1058 l 396 901 l 508 1058 l 646 1058 l 464 835 l 328 835 z "},"ž":{"ha":663,"x_min":50,"x_max":611,"o":"m 50 0 l 50 106 l 454 596 l 64 596 l 64 704 l 607 704 l 607 600 l 197 108 l 611 108 l 611 0 l 50 0 m 267 835 l 85 1058 l 222 1058 l 335 901 l 447 1058 l 585 1058 l 403 835 l 267 835 z "},"ā":{"ha":732,"x_min":58,"x_max":631,"o":"m 517 0 l 506 72 q 395 6 456 29 q 275 -18 335 -18 q 117 38 176 -18 q 58 189 58 94 q 131 351 58 290 q 325 411 203 411 q 500 388 406 411 l 500 479 q 466 585 500 554 q 350 615 432 615 q 106 572 232 615 l 106 669 q 228 710 156 696 q 374 725 300 725 q 568 670 506 725 q 631 503 631 615 l 631 0 l 517 0 m 308 86 q 500 157 403 86 l 500 299 q 353 317 428 317 q 196 196 196 317 q 225 115 196 143 q 308 86 254 86 m 146 883 l 146 974 l 593 974 l 593 883 l 146 883 z "},"ē":{"ha":735,"x_min":67,"x_max":672,"o":"m 200 322 q 259 146 203 203 q 433 89 315 89 q 657 132 543 89 l 657 33 q 413 -21 557 -21 q 154 74 242 -21 q 67 353 67 168 q 154 627 67 529 q 399 725 242 725 q 601 651 531 725 q 672 440 672 576 q 661 322 672 375 l 200 322 m 392 621 q 256 569 304 621 q 200 414 207 517 l 546 414 q 547 450 547 425 q 508 578 547 535 q 392 621 468 621 m 157 883 l 157 974 l 604 974 l 604 883 l 157 883 z "},"ī":{"ha":354,"x_min":-47,"x_max":400,"o":"m 108 0 l 108 704 l 246 704 l 246 0 l 108 0 m -47 883 l -47 974 l 400 974 l 400 883 l -47 883 z "},"ō":{"ha":806,"x_min":67,"x_max":739,"o":"m 403 -21 q 156 78 244 -21 q 67 353 67 176 q 156 626 67 528 q 403 725 244 725 q 650 626 561 725 q 739 353 739 528 q 650 78 739 176 q 403 -21 561 -21 m 403 90 q 599 353 599 90 q 403 614 599 614 q 207 353 207 614 q 403 90 207 90 m 179 883 l 179 974 l 626 974 l 626 883 l 179 883 z "},"ū":{"ha":799,"x_min":97,"x_max":696,"o":"m 582 0 l 567 75 q 301 -21 438 -21 q 150 35 203 -21 q 97 192 97 90 l 97 704 l 235 704 l 235 236 q 264 126 235 161 q 357 90 293 90 q 558 157 457 90 l 558 704 l 696 704 l 696 0 l 582 0 m 172 883 l 172 974 l 619 974 l 619 883 l 172 883 z "},"̈":{"ha":0,"x_min":-232,"x_max":232,"o":"m -150 825 q -210 847 -187 825 q -232 906 -232 869 q -210 963 -232 942 q -150 985 -187 985 q -89 963 -111 985 q -67 906 -67 942 q -89 847 -67 869 q -150 825 -111 825 m 150 825 q 89 847 111 825 q 67 906 67 869 q 89 963 67 942 q 150 985 111 985 q 210 963 188 985 q 232 906 232 942 q 210 847 232 869 q 150 825 188 825 z "},"¨":{"ha":817,"x_min":176,"x_max":640,"o":"m 258 825 q 199 847 221 825 q 176 906 176 869 q 199 963 176 942 q 258 985 221 985 q 319 963 297 985 q 342 906 342 942 q 319 847 342 869 q 258 825 297 825 m 558 825 q 497 847 519 825 q 475 906 475 869 q 497 963 475 942 q 558 985 519 985 q 618 963 596 985 q 640 906 640 942 q 618 847 640 869 q 558 825 596 825 z "},"̆":{"ha":0,"x_min":-200,"x_max":200,"o":"m 0 832 q -147 878 -93 832 q -200 1003 -200 924 q -196 1042 -200 1025 l -110 1042 l -106 1007 q -74 943 -100 964 q 0 922 -49 922 q 74 943 49 922 q 106 1007 100 964 l 110 1042 l 196 1042 q 200 1003 200 1025 q 147 878 200 924 q 0 832 93 832 z "},"˘":{"ha":817,"x_min":208,"x_max":608,"o":"m 408 832 q 262 878 315 832 q 208 1003 208 924 q 213 1042 208 1025 l 299 1042 l 303 1007 q 334 943 308 964 q 408 922 360 922 q 483 943 457 922 q 514 1007 508 964 l 518 1042 l 604 1042 q 608 1003 608 1025 q 555 878 608 924 q 408 832 501 832 z "},"Ä":{"ha":892,"x_min":14,"x_max":878,"o":"m 731 0 l 642 256 l 246 256 l 160 0 l 14 0 l 369 963 l 522 963 l 878 0 l 731 0 m 282 363 l 606 363 l 443 835 l 282 363 m 299 1082 q 238 1104 261 1082 q 214 1163 214 1126 q 237 1221 214 1199 q 299 1243 260 1243 q 360 1221 336 1243 q 383 1163 383 1199 q 360 1104 383 1126 q 299 1082 338 1082 m 593 1082 q 532 1104 556 1082 q 508 1163 508 1126 q 531 1221 508 1199 q 593 1243 554 1243 q 654 1221 631 1243 q 678 1163 678 1199 q 655 1104 678 1126 q 593 1082 632 1082 z "},"Ë":{"ha":779,"x_min":117,"x_max":715,"o":"m 117 0 l 117 963 l 715 963 l 715 849 l 258 849 l 258 553 l 642 553 l 642 439 l 258 439 l 258 114 l 715 114 l 715 0 l 117 0 m 268 1082 q 207 1104 231 1082 q 183 1163 183 1126 q 206 1221 183 1199 q 268 1243 229 1243 q 329 1221 306 1243 q 353 1163 353 1199 q 330 1104 353 1126 q 268 1082 307 1082 m 563 1082 q 501 1104 525 1082 q 478 1163 478 1126 q 501 1221 478 1199 q 563 1243 524 1243 q 624 1221 600 1243 q 647 1163 647 1199 q 624 1104 647 1126 q 563 1082 601 1082 z "},"Ï":{"ha":386,"x_min":-39,"x_max":425,"o":"m 122 0 l 122 963 l 264 963 l 264 0 l 122 0 m 46 1082 q -15 1104 8 1082 q -39 1163 -39 1126 q -16 1221 -39 1199 q 46 1243 7 1243 q 107 1221 83 1243 q 131 1163 131 1199 q 108 1104 131 1126 q 46 1082 85 1082 m 340 1082 q 279 1104 303 1082 q 256 1163 256 1126 q 278 1221 256 1199 q 340 1243 301 1243 q 401 1221 378 1243 q 425 1163 425 1199 q 402 1104 425 1126 q 340 1082 379 1082 z "},"Ö":{"ha":1079,"x_min":89,"x_max":990,"o":"m 235 481 q 313 194 235 292 q 540 96 392 96 q 767 194 689 96 q 844 481 844 293 q 767 766 844 668 q 540 864 689 864 q 313 766 390 864 q 235 481 235 668 m 89 481 q 142 748 89 635 q 297 922 194 861 q 540 983 399 983 q 870 849 750 983 q 990 481 990 715 q 938 213 990 326 q 783 38 885 100 q 540 -24 682 -24 q 301 35 403 -24 q 144 208 200 94 q 89 481 89 322 m 393 1082 q 332 1104 356 1082 q 308 1163 308 1126 q 331 1221 308 1199 q 393 1243 354 1243 q 454 1221 431 1243 q 478 1163 478 1199 q 455 1104 478 1126 q 393 1082 432 1082 m 688 1082 q 626 1104 650 1082 q 603 1163 603 1126 q 626 1221 603 1199 q 688 1243 649 1243 q 749 1221 725 1243 q 772 1163 772 1199 q 749 1104 772 1126 q 688 1082 726 1082 z "},"Ü":{"ha":981,"x_min":111,"x_max":869,"o":"m 728 963 l 869 963 l 869 351 q 772 74 869 171 q 490 -24 674 -24 q 209 73 307 -24 q 111 351 111 169 l 111 963 l 253 963 l 253 339 q 314 159 253 222 q 490 96 375 96 q 667 159 606 96 q 728 339 728 222 l 728 963 m 343 1082 q 282 1104 306 1082 q 258 1163 258 1126 q 281 1221 258 1199 q 343 1243 304 1243 q 404 1221 381 1243 q 428 1163 428 1199 q 405 1104 428 1126 q 343 1082 382 1082 m 638 1082 q 576 1104 600 1082 q 553 1163 553 1126 q 576 1221 553 1199 q 638 1243 599 1243 q 699 1221 675 1243 q 722 1163 722 1199 q 699 1104 722 1126 q 638 1082 676 1082 z "},"Ẅ":{"ha":1290,"x_min":24,"x_max":1267,"o":"m 828 0 l 646 754 l 463 0 l 304 0 l 24 963 l 178 963 l 385 156 l 569 935 l 725 935 l 910 154 l 1118 963 l 1267 963 l 986 0 l 828 0 m 500 1082 q 439 1104 463 1082 q 415 1163 415 1126 q 438 1221 415 1199 q 500 1243 461 1243 q 561 1221 538 1243 q 585 1163 585 1199 q 562 1104 585 1126 q 500 1082 539 1082 m 794 1082 q 733 1104 757 1082 q 710 1163 710 1126 q 733 1221 710 1199 q 794 1243 756 1243 q 856 1221 832 1243 q 879 1163 879 1199 q 856 1104 879 1126 q 794 1082 833 1082 z "},"Ÿ":{"ha":839,"x_min":19,"x_max":819,"o":"m 347 0 l 347 354 l 19 963 l 176 963 l 419 469 l 667 963 l 819 963 l 486 351 l 486 0 l 347 0 m 274 1082 q 213 1104 236 1082 q 189 1163 189 1126 q 212 1221 189 1199 q 274 1243 235 1243 q 335 1221 311 1243 q 358 1163 358 1199 q 335 1104 358 1126 q 274 1082 313 1082 m 568 1082 q 507 1104 531 1082 q 483 1163 483 1126 q 506 1221 483 1199 q 568 1243 529 1243 q 629 1221 606 1243 q 653 1163 653 1199 q 630 1104 653 1126 q 568 1082 607 1082 z "},"Ă":{"ha":892,"x_min":14,"x_max":878,"o":"m 731 0 l 642 256 l 246 256 l 160 0 l 14 0 l 369 963 l 522 963 l 878 0 l 731 0 m 282 363 l 606 363 l 443 835 l 282 363 m 446 1064 q 299 1106 353 1064 q 246 1218 246 1147 q 250 1249 246 1236 l 338 1249 l 339 1235 q 446 1156 347 1156 q 553 1235 544 1156 l 554 1249 l 642 1249 q 646 1218 646 1236 q 592 1106 646 1147 q 446 1064 539 1064 z "},"Ĕ":{"ha":779,"x_min":117,"x_max":715,"o":"m 117 0 l 117 963 l 715 963 l 715 849 l 258 849 l 258 553 l 642 553 l 642 439 l 258 439 l 258 114 l 715 114 l 715 0 l 117 0 m 415 1064 q 269 1106 322 1064 q 215 1218 215 1147 q 219 1249 215 1236 l 307 1249 l 308 1235 q 415 1156 317 1156 q 522 1235 514 1156 l 524 1249 l 611 1249 q 615 1218 615 1236 q 562 1106 615 1147 q 415 1064 508 1064 z "},"Ğ":{"ha":961,"x_min":89,"x_max":861,"o":"m 581 103 q 728 118 663 103 l 728 400 l 513 400 l 513 510 l 861 510 l 861 51 q 721 1 801 18 q 553 -17 640 -17 q 207 108 325 -17 q 89 475 89 233 q 210 848 89 719 q 560 976 331 976 q 828 919 706 976 l 828 808 q 575 857 686 857 q 317 769 399 857 q 235 493 235 681 l 235 463 q 319 190 235 278 q 581 103 403 103 m 547 1064 q 401 1106 454 1064 q 347 1218 347 1147 q 351 1249 347 1236 l 439 1249 l 440 1235 q 547 1156 449 1156 q 654 1235 646 1156 l 656 1249 l 743 1249 q 747 1218 747 1236 q 694 1106 747 1147 q 547 1064 640 1064 z "},"Ĭ":{"ha":386,"x_min":-7,"x_max":393,"o":"m 122 0 l 122 963 l 264 963 l 264 0 l 122 0 m 193 1064 q 47 1106 100 1064 q -7 1218 -7 1147 q -3 1249 -7 1236 l 85 1249 l 86 1235 q 193 1156 94 1156 q 300 1235 292 1156 l 301 1249 l 389 1249 q 393 1218 393 1236 q 340 1106 393 1147 q 193 1064 286 1064 z "},"Ŏ":{"ha":1079,"x_min":89,"x_max":990,"o":"m 235 481 q 313 194 235 292 q 540 96 392 96 q 767 194 689 96 q 844 481 844 293 q 767 766 844 668 q 540 864 689 864 q 313 766 390 864 q 235 481 235 668 m 89 481 q 142 748 89 635 q 297 922 194 861 q 540 983 399 983 q 870 849 750 983 q 990 481 990 715 q 938 213 990 326 q 783 38 885 100 q 540 -24 682 -24 q 301 35 403 -24 q 144 208 200 94 q 89 481 89 322 m 540 1064 q 394 1106 447 1064 q 340 1218 340 1147 q 344 1249 340 1236 l 432 1249 l 433 1235 q 540 1156 442 1156 q 647 1235 639 1156 l 649 1249 l 736 1249 q 740 1218 740 1236 q 687 1106 740 1147 q 540 1064 633 1064 z "},"Ŭ":{"ha":981,"x_min":111,"x_max":869,"o":"m 728 963 l 869 963 l 869 351 q 772 74 869 171 q 490 -24 674 -24 q 209 73 307 -24 q 111 351 111 169 l 111 963 l 253 963 l 253 339 q 314 159 253 222 q 490 96 375 96 q 667 159 606 96 q 728 339 728 222 l 728 963 m 490 1064 q 344 1106 397 1064 q 290 1218 290 1147 q 294 1249 290 1236 l 382 1249 l 383 1235 q 490 1156 392 1156 q 597 1235 589 1156 l 599 1249 l 686 1249 q 690 1218 690 1236 q 637 1106 690 1147 q 490 1064 583 1064 z "},"ä":{"ha":732,"x_min":58,"x_max":631,"o":"m 517 0 l 506 72 q 395 6 456 29 q 275 -18 335 -18 q 117 38 176 -18 q 58 189 58 94 q 131 351 58 290 q 325 411 203 411 q 500 388 406 411 l 500 479 q 466 585 500 554 q 350 615 432 615 q 106 572 232 615 l 106 669 q 228 710 156 696 q 374 725 300 725 q 568 670 506 725 q 631 503 631 615 l 631 0 l 517 0 m 308 86 q 500 157 403 86 l 500 299 q 353 317 428 317 q 196 196 196 317 q 225 115 196 143 q 308 86 254 86 m 219 825 q 160 847 182 825 q 138 906 138 869 q 160 963 138 942 q 219 985 182 985 q 281 963 258 985 q 303 906 303 942 q 281 847 303 869 q 219 825 258 825 m 519 825 q 458 847 481 825 q 436 906 436 869 q 458 963 436 942 q 519 985 481 985 q 579 963 557 985 q 601 906 601 942 q 579 847 601 869 q 519 825 557 825 z "},"ë":{"ha":735,"x_min":67,"x_max":672,"o":"m 200 322 q 259 146 203 203 q 433 89 315 89 q 657 132 543 89 l 657 33 q 413 -21 557 -21 q 154 74 242 -21 q 67 353 67 168 q 154 627 67 529 q 399 725 242 725 q 601 651 531 725 q 672 440 672 576 q 661 322 672 375 l 200 322 m 392 621 q 256 569 304 621 q 200 414 207 517 l 546 414 q 547 450 547 425 q 508 578 547 535 q 392 621 468 621 m 231 825 q 171 847 193 825 q 149 906 149 869 q 171 963 149 942 q 231 985 193 985 q 292 963 269 985 q 314 906 314 942 q 292 847 314 869 q 231 825 269 825 m 531 825 q 469 847 492 825 q 447 906 447 869 q 469 963 447 942 q 531 985 492 985 q 590 963 568 985 q 613 906 613 942 q 590 847 613 869 q 531 825 568 825 z "},"ï":{"ha":354,"x_min":-56,"x_max":408,"o":"m 108 0 l 108 704 l 246 704 l 246 0 l 108 0 m 26 825 q -33 847 -11 825 q -56 906 -56 869 q -33 963 -56 942 q 26 985 -11 985 q 88 963 65 985 q 110 906 110 942 q 88 847 110 869 q 26 825 65 825 m 326 825 q 265 847 288 825 q 243 906 243 869 q 265 963 243 942 q 326 985 288 985 q 386 963 364 985 q 408 906 408 942 q 386 847 408 869 q 326 825 364 825 z "},"ö":{"ha":806,"x_min":67,"x_max":739,"o":"m 403 -21 q 156 78 244 -21 q 67 353 67 176 q 156 626 67 528 q 403 725 244 725 q 650 626 561 725 q 739 353 739 528 q 650 78 739 176 q 403 -21 561 -21 m 403 90 q 599 353 599 90 q 403 614 599 614 q 207 353 207 614 q 403 90 207 90 m 253 825 q 193 847 215 825 q 171 906 171 869 q 193 963 171 942 q 253 985 215 985 q 314 963 292 985 q 336 906 336 942 q 314 847 336 869 q 253 825 292 825 m 553 825 q 492 847 514 825 q 469 906 469 869 q 492 963 469 942 q 553 985 514 985 q 613 963 590 985 q 635 906 635 942 q 613 847 635 869 q 553 825 590 825 z "},"ü":{"ha":799,"x_min":97,"x_max":696,"o":"m 582 0 l 567 75 q 301 -21 438 -21 q 150 35 203 -21 q 97 192 97 90 l 97 704 l 235 704 l 235 236 q 264 126 235 161 q 357 90 293 90 q 558 157 457 90 l 558 704 l 696 704 l 696 0 l 582 0 m 246 825 q 186 847 208 825 q 164 906 164 869 q 186 963 164 942 q 246 985 208 985 q 307 963 285 985 q 329 906 329 942 q 307 847 329 869 q 246 825 285 825 m 546 825 q 485 847 507 825 q 463 906 463 869 q 485 963 463 942 q 546 985 507 985 q 606 963 583 985 q 628 906 628 942 q 606 847 628 869 q 546 825 583 825 z "},"ẅ":{"ha":1068,"x_min":13,"x_max":1056,"o":"m 681 0 l 531 551 l 382 0 l 243 0 l 13 704 l 157 704 l 315 140 l 465 704 l 603 704 l 753 133 l 915 704 l 1056 704 l 819 0 l 681 0 m 383 825 q 324 847 346 825 q 301 906 301 869 q 324 963 301 942 q 383 985 346 985 q 444 963 422 985 q 467 906 467 942 q 444 847 467 869 q 383 825 422 825 m 683 825 q 622 847 644 825 q 600 906 600 869 q 622 963 600 942 q 683 985 644 985 q 743 963 721 985 q 765 906 765 942 q 743 847 765 869 q 683 825 721 825 z "},"ÿ":{"ha":707,"x_min":10,"x_max":697,"o":"m 293 -7 l 10 704 l 157 704 l 360 128 l 556 704 l 697 704 l 376 -124 q 290 -261 340 -219 q 161 -303 239 -303 q 53 -283 103 -303 l 53 -185 q 132 -194 90 -194 q 213 -169 183 -194 q 267 -78 243 -143 l 293 -7 m 203 825 q 143 847 165 825 q 121 906 121 869 q 143 963 121 942 q 203 985 165 985 q 264 963 242 985 q 286 906 286 942 q 264 847 286 869 q 203 825 242 825 m 503 825 q 442 847 464 825 q 419 906 419 869 q 442 963 419 942 q 503 985 464 985 q 563 963 540 985 q 585 906 585 942 q 563 847 585 869 q 503 825 540 825 z "},"ă":{"ha":732,"x_min":58,"x_max":631,"o":"m 517 0 l 506 72 q 395 6 456 29 q 275 -18 335 -18 q 117 38 176 -18 q 58 189 58 94 q 131 351 58 290 q 325 411 203 411 q 500 388 406 411 l 500 479 q 466 585 500 554 q 350 615 432 615 q 106 572 232 615 l 106 669 q 228 710 156 696 q 374 725 300 725 q 568 670 506 725 q 631 503 631 615 l 631 0 l 517 0 m 308 86 q 500 157 403 86 l 500 299 q 353 317 428 317 q 196 196 196 317 q 225 115 196 143 q 308 86 254 86 m 369 832 q 223 878 276 832 q 169 1003 169 924 q 174 1042 169 1025 l 260 1042 l 264 1007 q 295 943 269 964 q 369 922 321 922 q 444 943 418 922 q 475 1007 469 964 l 479 1042 l 565 1042 q 569 1003 569 1025 q 516 878 569 924 q 369 832 463 832 z "},"ĕ":{"ha":735,"x_min":67,"x_max":672,"o":"m 200 322 q 259 146 203 203 q 433 89 315 89 q 657 132 543 89 l 657 33 q 413 -21 557 -21 q 154 74 242 -21 q 67 353 67 168 q 154 627 67 529 q 399 725 242 725 q 601 651 531 725 q 672 440 672 576 q 661 322 672 375 l 200 322 m 392 621 q 256 569 304 621 q 200 414 207 517 l 546 414 q 547 450 547 425 q 508 578 547 535 q 392 621 468 621 m 381 832 q 234 878 288 832 q 181 1003 181 924 q 185 1042 181 1025 l 271 1042 l 275 1007 q 306 943 281 964 q 381 922 332 922 q 455 943 429 922 q 486 1007 481 964 l 490 1042 l 576 1042 q 581 1003 581 1025 q 527 878 581 924 q 381 832 474 832 z "},"ğ":{"ha":806,"x_min":67,"x_max":703,"o":"m 567 96 q 465 34 519 56 q 356 13 411 13 q 206 54 271 13 q 103 176 140 96 q 67 363 67 256 q 146 627 67 529 q 358 725 225 725 q 576 639 483 725 l 588 704 l 703 704 l 703 43 q 615 -212 703 -122 q 364 -303 526 -303 q 124 -247 233 -303 l 124 -149 q 353 -192 251 -192 q 515 -138 464 -192 q 567 33 567 -85 l 567 96 m 396 124 q 567 188 482 124 l 567 553 q 482 599 525 585 q 388 614 439 614 q 207 368 207 614 q 255 185 207 247 q 396 124 303 124 m 408 832 q 262 878 315 832 q 208 1003 208 924 q 213 1042 208 1025 l 299 1042 l 303 1007 q 334 943 308 964 q 408 922 360 922 q 483 943 457 922 q 514 1007 508 964 l 518 1042 l 604 1042 q 608 1003 608 1025 q 555 878 608 924 q 408 832 501 832 z "},"ĭ":{"ha":354,"x_min":-24,"x_max":376,"o":"m 108 0 l 108 704 l 246 704 l 246 0 l 108 0 m 176 832 q 30 878 83 832 q -24 1003 -24 924 q -19 1042 -24 1025 l 67 1042 l 71 1007 q 102 943 76 964 q 176 922 128 922 q 251 943 225 922 q 282 1007 276 964 l 286 1042 l 372 1042 q 376 1003 376 1025 q 323 878 376 924 q 176 832 269 832 z "},"ŏ":{"ha":806,"x_min":67,"x_max":739,"o":"m 403 -21 q 156 78 244 -21 q 67 353 67 176 q 156 626 67 528 q 403 725 244 725 q 650 626 561 725 q 739 353 739 528 q 650 78 739 176 q 403 -21 561 -21 m 403 90 q 599 353 599 90 q 403 614 599 614 q 207 353 207 614 q 403 90 207 90 m 403 832 q 256 878 310 832 q 203 1003 203 924 q 207 1042 203 1025 l 293 1042 l 297 1007 q 328 943 303 964 q 403 922 354 922 q 477 943 451 922 q 508 1007 503 964 l 513 1042 l 599 1042 q 603 1003 603 1025 q 549 878 603 924 q 403 832 496 832 z "},"ŭ":{"ha":799,"x_min":97,"x_max":696,"o":"m 582 0 l 567 75 q 301 -21 438 -21 q 150 35 203 -21 q 97 192 97 90 l 97 704 l 235 704 l 235 236 q 264 126 235 161 q 357 90 293 90 q 558 157 457 90 l 558 704 l 696 704 l 696 0 l 582 0 m 396 832 q 249 878 303 832 q 196 1003 196 924 q 200 1042 196 1025 l 286 1042 l 290 1007 q 322 943 296 964 q 396 922 347 922 q 470 943 444 922 q 501 1007 496 964 l 506 1042 l 592 1042 q 596 1003 596 1025 q 542 878 596 924 q 396 832 489 832 z "},"̇":{"ha":0,"x_min":-86,"x_max":86,"o":"m 0 829 q -63 852 -40 829 q -86 913 -86 875 q -63 973 -86 950 q 0 996 -40 996 q 63 973 40 996 q 86 913 86 950 q 63 852 86 875 q 0 829 40 829 z "},"˙":{"ha":817,"x_min":322,"x_max":494,"o":"m 408 829 q 345 852 368 829 q 322 913 322 875 q 345 973 322 950 q 408 996 368 996 q 472 973 449 996 q 494 913 494 950 q 472 852 494 875 q 408 829 449 829 z "},"Ė":{"ha":779,"x_min":117,"x_max":715,"o":"m 117 0 l 117 963 l 715 963 l 715 849 l 258 849 l 258 553 l 642 553 l 642 439 l 258 439 l 258 114 l 715 114 l 715 0 l 117 0 m 415 1082 q 351 1105 374 1082 q 328 1167 328 1128 q 351 1228 328 1206 q 415 1251 374 1251 q 480 1228 457 1251 q 503 1167 503 1206 q 480 1105 503 1128 q 415 1082 457 1082 z "},"İ":{"ha":386,"x_min":106,"x_max":281,"o":"m 122 0 l 122 963 l 264 963 l 264 0 l 122 0 m 193 1082 q 128 1105 151 1082 q 106 1167 106 1128 q 128 1228 106 1206 q 193 1251 151 1251 q 258 1228 235 1251 q 281 1167 281 1206 q 258 1105 281 1128 q 193 1082 235 1082 z "},"Ċ":{"ha":843,"x_min":89,"x_max":794,"o":"m 794 26 q 551 -17 682 -17 q 206 109 324 -17 q 89 478 89 235 q 210 847 89 718 q 558 976 332 976 q 781 939 676 976 l 781 824 q 575 853 654 853 q 319 767 400 853 q 239 496 239 682 l 239 463 q 317 193 239 279 q 567 107 396 107 q 794 142 654 107 l 794 26 m 536 1082 q 472 1105 494 1082 q 449 1167 449 1128 q 472 1228 449 1206 q 536 1251 494 1251 q 601 1228 578 1251 q 624 1167 624 1206 q 601 1105 624 1128 q 536 1082 578 1082 z "},"Ġ":{"ha":961,"x_min":89,"x_max":861,"o":"m 581 103 q 728 118 663 103 l 728 400 l 513 400 l 513 510 l 861 510 l 861 51 q 721 1 801 18 q 553 -17 640 -17 q 207 108 325 -17 q 89 475 89 233 q 210 848 89 719 q 560 976 331 976 q 828 919 706 976 l 828 808 q 575 857 686 857 q 317 769 399 857 q 235 493 235 681 l 235 463 q 319 190 235 278 q 581 103 403 103 m 547 1082 q 483 1105 506 1082 q 460 1167 460 1128 q 483 1228 460 1206 q 547 1251 506 1251 q 612 1228 589 1251 q 635 1167 635 1206 q 612 1105 635 1128 q 547 1082 589 1082 z "},"Ż":{"ha":804,"x_min":58,"x_max":746,"o":"m 58 0 l 58 108 l 592 847 l 89 847 l 89 963 l 746 963 l 746 854 l 211 115 l 746 115 l 746 0 l 58 0 m 417 1082 q 352 1105 375 1082 q 329 1167 329 1128 q 352 1228 329 1206 q 417 1251 375 1251 q 481 1228 458 1251 q 504 1167 504 1206 q 481 1105 504 1128 q 417 1082 458 1082 z "},"ė":{"ha":735,"x_min":67,"x_max":672,"o":"m 200 322 q 259 146 203 203 q 433 89 315 89 q 657 132 543 89 l 657 33 q 413 -21 557 -21 q 154 74 242 -21 q 67 353 67 168 q 154 627 67 529 q 399 725 242 725 q 601 651 531 725 q 672 440 672 576 q 661 322 672 375 l 200 322 m 392 621 q 256 569 304 621 q 200 414 207 517 l 546 414 q 547 450 547 425 q 508 578 547 535 q 392 621 468 621 m 381 829 q 317 852 340 829 q 294 913 294 875 q 317 973 294 950 q 381 996 340 996 q 444 973 421 996 q 467 913 467 950 q 444 852 467 875 q 381 829 421 829 z "},"ċ":{"ha":640,"x_min":67,"x_max":590,"o":"m 590 26 q 404 -15 510 -15 q 153 78 240 -15 q 67 350 67 172 q 156 623 67 526 q 410 719 246 719 q 585 681 503 719 l 585 582 q 429 607 506 607 q 261 548 313 607 q 210 360 210 489 l 210 342 q 262 156 210 215 q 426 97 314 97 q 590 125 501 97 l 590 26 m 374 829 q 310 852 333 829 q 288 913 288 875 q 310 973 288 950 q 374 996 333 996 q 437 973 414 996 q 460 913 460 950 q 437 852 460 875 q 374 829 414 829 z "},"ġ":{"ha":806,"x_min":67,"x_max":703,"o":"m 567 96 q 465 34 519 56 q 356 13 411 13 q 206 54 271 13 q 103 176 140 96 q 67 363 67 256 q 146 627 67 529 q 358 725 225 725 q 576 639 483 725 l 588 704 l 703 704 l 703 43 q 615 -212 703 -122 q 364 -303 526 -303 q 124 -247 233 -303 l 124 -149 q 353 -192 251 -192 q 515 -138 464 -192 q 567 33 567 -85 l 567 96 m 396 124 q 567 188 482 124 l 567 553 q 482 599 525 585 q 388 614 439 614 q 207 368 207 614 q 255 185 207 247 q 396 124 303 124 m 408 829 q 345 852 368 829 q 322 913 322 875 q 345 973 322 950 q 408 996 368 996 q 472 973 449 996 q 494 913 494 950 q 472 852 494 875 q 408 829 449 829 z "},"ż":{"ha":663,"x_min":50,"x_max":611,"o":"m 50 0 l 50 106 l 454 596 l 64 596 l 64 704 l 607 704 l 607 600 l 197 108 l 611 108 l 611 0 l 50 0 m 335 829 q 272 852 294 829 q 249 913 249 875 q 272 973 249 950 q 335 996 294 996 q 398 973 375 996 q 421 913 421 950 q 398 852 421 875 q 335 829 375 829 z "},"̊":{"ha":0,"x_min":-164,"x_max":164,"o":"m 0 813 q -119 853 -74 813 q -164 961 -164 893 q -119 1068 -164 1028 q 0 1108 -74 1108 q 119 1068 74 1108 q 164 961 164 1028 q 119 853 164 893 q 0 813 74 813 m 0 885 q 53 905 33 885 q 72 961 72 925 q 53 1016 72 996 q 0 1036 33 1036 q -53 1016 -33 1036 q -72 961 -72 996 q -53 905 -72 925 q 0 885 -33 885 z "},"˚":{"ha":817,"x_min":244,"x_max":572,"o":"m 408 813 q 290 853 335 813 q 244 961 244 893 q 290 1068 244 1028 q 408 1108 335 1108 q 527 1068 482 1108 q 572 961 572 1028 q 527 853 572 893 q 408 813 482 813 m 408 885 q 461 905 442 885 q 481 961 481 925 q 461 1016 481 996 q 408 1036 442 1036 q 356 1016 375 1036 q 336 961 336 996 q 356 905 336 925 q 408 885 375 885 z "},"Å":{"ha":892,"x_min":14,"x_max":878,"o":"m 731 0 l 642 256 l 246 256 l 160 0 l 14 0 l 369 963 l 522 963 l 878 0 l 731 0 m 282 363 l 606 363 l 443 835 l 282 363 m 446 1024 q 335 1061 376 1024 q 293 1160 293 1099 q 335 1258 293 1221 q 446 1296 376 1296 q 557 1258 515 1296 q 599 1160 599 1221 q 557 1061 599 1099 q 446 1024 515 1024 m 446 1093 q 494 1110 476 1093 q 513 1160 513 1128 q 494 1209 513 1192 q 446 1226 476 1226 q 397 1209 415 1226 q 379 1160 379 1192 q 397 1110 379 1128 q 446 1093 415 1093 z "},"Ů":{"ha":981,"x_min":111,"x_max":869,"o":"m 728 963 l 869 963 l 869 351 q 772 74 869 171 q 490 -24 674 -24 q 209 73 307 -24 q 111 351 111 169 l 111 963 l 253 963 l 253 339 q 314 159 253 222 q 490 96 375 96 q 667 159 606 96 q 728 339 728 222 l 728 963 m 490 1024 q 379 1061 421 1024 q 338 1160 338 1099 q 379 1258 338 1221 q 490 1296 421 1296 q 601 1258 560 1296 q 643 1160 643 1221 q 601 1061 643 1099 q 490 1024 560 1024 m 490 1093 q 539 1110 521 1093 q 557 1160 557 1128 q 539 1209 557 1192 q 490 1226 521 1226 q 442 1209 460 1226 q 424 1160 424 1192 q 442 1110 424 1128 q 490 1093 460 1093 z "},"Ǻ":{"ha":892,"x_min":14,"x_max":878,"o":"m 731 0 l 642 256 l 246 256 l 160 0 l 14 0 l 349 886 q 289 999 289 922 q 331 1097 289 1060 q 442 1135 372 1135 q 553 1097 511 1135 q 594 999 594 1060 q 542 890 594 929 l 878 0 l 731 0 m 282 363 l 606 363 l 443 835 l 282 363 m 374 1182 l 507 1353 l 672 1353 l 496 1182 l 374 1182 m 442 932 q 490 949 472 932 q 508 999 508 967 q 490 1048 508 1031 q 442 1065 472 1065 q 393 1048 411 1065 q 375 999 375 1031 q 393 949 375 967 q 442 932 411 932 z "},"å":{"ha":732,"x_min":58,"x_max":631,"o":"m 517 0 l 506 72 q 395 6 456 29 q 275 -18 335 -18 q 117 38 176 -18 q 58 189 58 94 q 131 351 58 290 q 325 411 203 411 q 500 388 406 411 l 500 479 q 466 585 500 554 q 350 615 432 615 q 106 572 232 615 l 106 669 q 228 710 156 696 q 374 725 300 725 q 568 670 506 725 q 631 503 631 615 l 631 0 l 517 0 m 308 86 q 500 157 403 86 l 500 299 q 353 317 428 317 q 196 196 196 317 q 225 115 196 143 q 308 86 254 86 m 369 813 q 251 853 296 813 q 206 961 206 893 q 251 1068 206 1028 q 369 1108 296 1108 q 488 1068 443 1108 q 533 961 533 1028 q 488 853 533 893 q 369 813 443 813 m 369 885 q 422 905 403 885 q 442 961 442 925 q 422 1016 442 996 q 369 1036 403 1036 q 317 1016 336 1036 q 297 961 297 996 q 317 905 297 925 q 369 885 336 885 z "},"ů":{"ha":799,"x_min":97,"x_max":696,"o":"m 582 0 l 567 75 q 301 -21 438 -21 q 150 35 203 -21 q 97 192 97 90 l 97 704 l 235 704 l 235 236 q 264 126 235 161 q 357 90 293 90 q 558 157 457 90 l 558 704 l 696 704 l 696 0 l 582 0 m 396 813 q 277 853 322 813 q 232 961 232 893 q 277 1068 232 1028 q 396 1108 322 1108 q 515 1068 469 1108 q 560 961 560 1028 q 515 853 560 893 q 396 813 469 813 m 396 885 q 449 905 429 885 q 468 961 468 925 q 449 1016 468 996 q 396 1036 429 1036 q 343 1016 363 1036 q 324 961 324 996 q 343 905 324 925 q 396 885 363 885 z "},"ǻ":{"ha":732,"x_min":58,"x_max":631,"o":"m 517 0 l 506 72 q 395 6 456 29 q 275 -18 335 -18 q 117 38 176 -18 q 58 189 58 94 q 131 351 58 290 q 325 411 203 411 q 500 388 406 411 l 500 479 q 466 585 500 554 q 350 615 432 615 q 106 572 232 615 l 106 669 q 228 710 156 696 q 374 725 300 725 q 568 670 506 725 q 631 503 631 615 l 631 0 l 517 0 m 308 86 q 500 157 403 86 l 500 299 q 353 317 428 317 q 196 196 196 317 q 225 115 196 143 q 308 86 254 86 m 369 808 q 258 846 300 808 q 217 944 217 883 q 258 1043 217 1006 q 369 1081 300 1081 q 481 1043 439 1081 q 522 944 522 1006 q 481 846 522 883 q 369 808 439 808 m 369 878 q 418 895 400 878 q 436 944 436 913 q 418 994 436 976 q 369 1011 400 1011 q 321 994 339 1011 q 303 944 303 976 q 321 895 303 913 q 369 878 339 878 m 301 1128 l 435 1299 l 600 1299 l 424 1128 l 301 1128 z "},"А":{"ha":892,"x_min":14,"x_max":878,"o":"m 731 0 l 642 256 l 246 256 l 160 0 l 14 0 l 369 963 l 522 963 l 878 0 l 731 0 m 282 363 l 606 363 l 443 835 l 282 363 z "},"Б":{"ha":826,"x_min":117,"x_max":767,"o":"m 117 963 l 699 963 l 699 846 l 258 846 l 258 568 l 451 568 q 683 492 600 568 q 767 283 767 417 q 683 75 767 150 q 451 0 600 0 l 117 0 l 117 963 m 258 458 l 258 110 l 449 110 q 624 283 624 110 q 449 458 624 458 l 258 458 z "},"В":{"ha":851,"x_min":117,"x_max":788,"o":"m 117 0 l 117 963 l 435 963 q 651 893 569 963 q 733 708 733 824 q 700 584 733 636 q 604 504 667 532 q 740 417 693 478 q 788 268 788 357 q 701 73 788 146 q 471 0 615 0 l 117 0 m 251 439 l 251 108 l 468 108 q 644 274 644 108 q 599 397 644 356 q 465 439 554 439 l 251 439 m 251 854 l 251 544 l 421 544 q 593 699 593 544 q 551 815 593 775 q 425 854 508 854 l 251 854 z "},"Г":{"ha":701,"x_min":117,"x_max":681,"o":"m 117 0 l 117 963 l 681 963 l 681 846 l 258 846 l 258 0 l 117 0 z "},"Д":{"ha":1021,"x_min":33,"x_max":981,"o":"m 851 963 l 851 115 l 981 115 l 981 -244 l 851 -244 l 851 0 l 163 0 l 163 -244 l 33 -244 l 33 115 l 97 115 q 230 376 178 193 q 310 858 282 558 l 319 963 l 851 963 m 440 847 q 365 364 411 538 q 247 115 319 190 l 711 115 l 711 847 l 440 847 z "},"Е":{"ha":779,"x_min":117,"x_max":715,"o":"m 117 0 l 117 963 l 715 963 l 715 849 l 258 849 l 258 553 l 642 553 l 642 439 l 258 439 l 258 114 l 715 114 l 715 0 l 117 0 z "},"Ж":{"ha":1231,"x_min":10,"x_max":1221,"o":"m 10 0 l 415 503 l 38 963 l 194 963 l 547 519 l 547 963 l 683 963 l 683 519 l 1036 963 l 1193 963 l 814 503 l 1221 0 l 1054 0 l 683 472 l 683 0 l 547 0 l 547 472 l 176 0 l 10 0 z "},"З":{"ha":765,"x_min":49,"x_max":701,"o":"m 315 -19 q 49 32 175 -19 l 49 143 q 313 100 208 100 q 497 144 435 100 q 560 274 560 188 q 350 436 560 436 l 188 436 l 188 549 l 315 549 q 532 706 532 549 q 318 863 532 863 q 72 817 211 863 l 72 928 q 199 967 129 953 q 336 982 269 982 q 583 910 492 982 q 674 717 674 839 q 635 588 674 642 q 525 504 597 533 q 656 415 611 478 q 701 263 701 353 q 597 57 701 133 q 315 -19 492 -19 z "},"И":{"ha":1007,"x_min":117,"x_max":890,"o":"m 117 963 l 256 963 l 256 204 l 753 963 l 890 963 l 890 0 l 751 0 l 751 757 l 254 0 l 117 0 l 117 963 z "},"К":{"ha":857,"x_min":117,"x_max":858,"o":"m 117 0 l 117 963 l 258 963 l 258 519 l 654 963 l 821 963 l 400 504 l 858 0 l 685 0 l 258 472 l 258 0 l 117 0 z "},"Л":{"ha":956,"x_min":28,"x_max":839,"o":"m 697 0 l 697 847 l 432 847 q 377 398 406 563 q 310 146 349 233 q 221 24 272 58 q 96 -11 169 -11 q 28 -3 60 -11 l 28 113 q 60 111 39 111 q 172 183 129 111 q 243 417 214 256 q 299 869 272 579 l 307 963 l 839 963 l 839 0 l 697 0 z "},"М":{"ha":1167,"x_min":117,"x_max":1050,"o":"m 919 0 l 919 757 l 649 246 l 519 246 l 247 758 l 247 0 l 117 0 l 117 963 l 275 963 l 586 372 l 896 963 l 1050 963 l 1050 0 l 919 0 z "},"Н":{"ha":997,"x_min":117,"x_max":881,"o":"m 739 0 l 739 435 l 258 435 l 258 0 l 117 0 l 117 963 l 258 963 l 258 549 l 739 549 l 739 963 l 881 963 l 881 0 l 739 0 z "},"О":{"ha":1079,"x_min":89,"x_max":990,"o":"m 235 481 q 313 194 235 292 q 540 96 392 96 q 767 194 689 96 q 844 481 844 293 q 767 766 844 668 q 540 864 689 864 q 313 766 390 864 q 235 481 235 668 m 89 481 q 142 748 89 635 q 297 922 194 861 q 540 983 399 983 q 870 849 750 983 q 990 481 990 715 q 938 213 990 326 q 783 38 885 100 q 540 -24 682 -24 q 301 35 403 -24 q 144 208 200 94 q 89 481 89 322 z "},"П":{"ha":967,"x_min":117,"x_max":850,"o":"m 708 0 l 708 847 l 258 847 l 258 0 l 117 0 l 117 963 l 850 963 l 850 0 l 708 0 z "},"Р":{"ha":833,"x_min":117,"x_max":772,"o":"m 254 372 l 254 0 l 117 0 l 117 963 l 465 963 q 689 883 606 963 q 772 667 772 803 q 689 452 772 532 q 465 372 606 372 l 254 372 m 254 485 l 453 485 q 585 531 540 485 q 629 667 629 578 q 453 850 629 850 l 254 850 l 254 485 z "},"С":{"ha":843,"x_min":89,"x_max":794,"o":"m 794 26 q 551 -17 682 -17 q 206 109 324 -17 q 89 478 89 235 q 210 847 89 718 q 558 976 332 976 q 781 939 676 976 l 781 824 q 575 853 654 853 q 319 767 400 853 q 239 496 239 682 l 239 463 q 317 193 239 279 q 567 107 396 107 q 794 142 654 107 l 794 26 z "},"Т":{"ha":797,"x_min":21,"x_max":776,"o":"m 328 0 l 328 846 l 21 846 l 21 963 l 776 963 l 776 846 l 469 846 l 469 0 l 328 0 z "},"У":{"ha":840,"x_min":15,"x_max":833,"o":"m 150 101 q 211 99 178 99 q 319 129 278 99 q 389 228 361 160 l 15 963 l 171 963 l 450 371 l 681 963 l 833 963 l 504 196 q 390 29 454 79 q 225 -21 326 -21 q 150 -12 190 -21 l 150 101 z "},"Ф":{"ha":1169,"x_min":78,"x_max":1092,"o":"m 522 76 q 193 189 308 83 q 78 482 78 294 q 193 775 78 669 q 522 888 308 881 l 522 1004 l 647 1004 l 647 888 q 976 775 861 881 q 1092 482 1092 669 q 976 189 1092 294 q 647 76 861 83 l 647 -42 l 522 -42 l 522 76 m 214 482 q 292 262 214 338 q 522 181 371 186 l 522 783 q 292 702 371 778 q 214 482 214 626 m 647 181 q 877 262 799 186 q 956 482 956 338 q 877 702 956 626 q 647 783 799 778 l 647 181 z "},"Х":{"ha":839,"x_min":11,"x_max":828,"o":"m 665 0 l 415 397 l 168 0 l 11 0 l 339 497 l 32 963 l 193 963 l 422 601 l 649 963 l 806 963 l 499 501 l 828 0 l 665 0 z "},"Ц":{"ha":986,"x_min":117,"x_max":946,"o":"m 817 -244 l 817 0 l 117 0 l 117 963 l 258 963 l 258 115 l 675 115 l 675 963 l 817 963 l 817 115 l 946 115 l 946 -244 l 817 -244 z "},"Ч":{"ha":921,"x_min":89,"x_max":804,"o":"m 663 397 q 388 358 532 358 q 166 422 243 358 q 89 606 89 485 l 89 963 l 231 963 l 231 636 q 276 511 231 550 q 424 472 322 472 q 663 503 546 472 l 663 963 l 804 963 l 804 0 l 663 0 l 663 397 z "},"Ш":{"ha":1361,"x_min":117,"x_max":1244,"o":"m 117 0 l 117 963 l 256 963 l 256 115 l 611 115 l 611 963 l 750 963 l 750 115 l 1106 115 l 1106 963 l 1244 963 l 1244 0 l 117 0 z "},"Щ":{"ha":1389,"x_min":117,"x_max":1349,"o":"m 1219 -244 l 1219 0 l 117 0 l 117 963 l 256 963 l 256 115 l 599 115 l 599 963 l 738 963 l 738 115 l 1081 115 l 1081 963 l 1219 963 l 1219 115 l 1349 115 l 1349 -244 l 1219 -244 z "},"Ъ":{"ha":983,"x_min":21,"x_max":924,"o":"m 286 846 l 21 846 l 21 963 l 428 963 l 428 576 l 607 576 q 839 499 754 576 q 924 289 924 422 q 839 77 924 154 q 607 0 754 0 l 286 0 l 286 846 m 601 110 q 737 154 693 110 q 781 289 781 199 q 737 423 781 379 q 601 467 693 467 l 428 467 l 428 110 l 601 110 z "},"Ы":{"ha":1119,"x_min":117,"x_max":1003,"o":"m 117 963 l 258 963 l 258 576 l 422 576 q 653 499 568 576 q 739 289 739 422 q 653 77 739 154 q 422 0 568 0 l 117 0 l 117 963 m 863 963 l 1003 963 l 1003 0 l 863 0 l 863 963 m 258 467 l 258 110 l 415 110 q 551 153 507 110 q 596 289 596 197 q 551 423 596 379 q 415 467 507 467 l 258 467 z "},"Ь":{"ha":847,"x_min":117,"x_max":788,"o":"m 117 963 l 258 963 l 258 576 l 471 576 q 702 499 617 576 q 788 289 788 422 q 702 77 788 154 q 471 0 617 0 l 117 0 l 117 963 m 258 467 l 258 110 l 464 110 q 600 153 556 110 q 644 289 644 197 q 600 423 644 379 q 464 467 556 467 l 258 467 z "},"Э":{"ha":856,"x_min":49,"x_max":767,"o":"m 308 -17 q 49 29 165 -17 l 49 142 q 294 107 188 107 q 540 185 463 107 q 619 433 617 263 l 178 433 l 178 549 l 618 549 q 530 780 610 707 q 288 853 450 853 q 64 822 186 853 l 64 935 q 180 965 114 954 q 303 976 246 976 q 649 850 531 976 q 767 479 767 724 q 308 -17 767 -17 z "},"Ю":{"ha":1417,"x_min":117,"x_max":1328,"o":"m 117 963 l 257 963 l 257 549 l 465 549 q 528 781 475 683 q 674 931 582 879 q 893 983 767 983 q 1213 850 1097 983 q 1328 481 1328 717 q 1213 110 1328 244 q 893 -24 1097 -24 q 588 97 700 -24 q 464 435 475 218 l 257 435 l 257 0 l 117 0 l 117 963 m 893 96 q 1109 194 1035 96 q 1183 481 1183 292 q 1109 766 1183 668 q 893 864 1035 864 q 678 766 751 864 q 604 481 604 668 q 678 194 604 292 q 893 96 751 96 z "},"Я":{"ha":847,"x_min":13,"x_max":731,"o":"m 275 414 q 136 511 185 442 q 88 679 88 581 q 172 885 88 808 q 403 963 257 963 l 731 963 l 731 0 l 594 0 l 594 396 l 407 396 l 182 0 l 13 0 l 275 414 m 240 678 q 428 504 240 504 l 594 504 l 594 851 l 421 851 q 240 678 240 851 z "},"а":{"ha":736,"x_min":58,"x_max":631,"o":"m 517 0 l 506 72 q 395 6 456 29 q 275 -18 335 -18 q 117 38 176 -18 q 58 189 58 94 q 131 351 58 290 q 325 411 203 411 q 500 388 406 411 l 500 479 q 466 585 500 554 q 350 615 432 615 q 106 572 232 615 l 106 669 q 228 710 156 696 q 374 725 300 725 q 568 670 506 725 q 631 503 631 615 l 631 0 l 517 0 m 308 86 q 500 157 403 86 l 500 299 q 353 317 428 317 q 196 196 196 317 q 225 115 196 143 q 308 86 254 86 z "},"б":{"ha":804,"x_min":72,"x_max":738,"o":"m 410 -21 q 154 83 236 -21 q 72 408 72 186 q 111 724 72 604 q 234 909 150 844 q 456 997 318 974 l 683 1036 l 683 917 l 461 881 q 310 833 357 864 q 244 743 264 801 q 217 582 224 685 q 334 637 269 617 q 456 657 399 657 q 738 325 738 657 q 649 72 738 165 q 410 -21 561 -21 m 433 553 q 322 535 381 553 q 213 489 263 518 l 213 407 q 233 219 213 288 q 296 120 253 150 q 410 90 339 90 q 549 151 501 90 q 597 325 597 211 q 559 500 597 447 q 433 553 521 553 z "},"в":{"ha":750,"x_min":108,"x_max":689,"o":"m 108 704 l 431 704 q 592 652 531 704 q 654 517 654 600 q 629 428 654 465 q 557 369 604 390 q 655 306 621 350 q 689 197 689 261 q 623 54 689 108 q 446 0 557 0 l 108 0 l 108 704 m 233 314 l 233 96 l 436 96 q 531 123 501 96 q 561 206 561 150 q 531 288 561 261 q 436 314 500 314 l 233 314 m 233 608 l 233 406 l 411 406 q 526 507 526 406 q 413 608 526 608 l 233 608 z "},"г":{"ha":564,"x_min":108,"x_max":540,"o":"m 108 0 l 108 704 l 540 704 l 540 592 l 246 592 l 246 0 l 108 0 z "},"д":{"ha":811,"x_min":22,"x_max":792,"o":"m 22 108 l 75 108 q 134 181 110 138 q 176 288 158 224 q 208 437 194 351 q 233 633 222 522 l 240 704 l 686 704 l 686 108 l 792 108 l 792 -228 l 669 -228 l 669 0 l 144 0 l 144 -228 l 22 -228 l 22 108 m 356 596 q 295 266 329 378 q 208 108 261 154 l 554 108 l 554 596 l 356 596 z "},"е":{"ha":735,"x_min":67,"x_max":672,"o":"m 200 322 q 259 146 203 203 q 433 89 315 89 q 657 132 543 89 l 657 33 q 413 -21 557 -21 q 154 74 242 -21 q 67 353 67 168 q 154 627 67 529 q 399 725 242 725 q 601 651 531 725 q 672 440 672 576 q 661 322 672 375 l 200 322 m 392 621 q 256 569 304 621 q 200 414 207 517 l 546 414 q 547 450 547 425 q 508 578 547 535 q 392 621 468 621 z "},"ж":{"ha":1042,"x_min":10,"x_max":1032,"o":"m 10 0 l 336 358 l 33 704 l 188 704 l 458 378 l 458 704 l 583 704 l 583 378 l 854 704 l 1008 704 l 706 358 l 1032 0 l 872 0 l 583 328 l 583 0 l 458 0 l 458 328 l 169 0 l 10 0 z "},"з":{"ha":647,"x_min":50,"x_max":586,"o":"m 279 -21 q 50 21 160 -21 l 50 119 q 276 86 185 86 q 456 204 456 86 q 292 311 456 311 l 181 311 l 181 406 l 272 406 q 432 513 432 406 q 278 618 432 618 q 74 588 192 618 l 74 686 q 181 715 121 704 q 297 725 240 725 q 492 672 421 725 q 563 525 563 619 q 534 430 563 469 q 451 369 506 390 q 551 305 517 350 q 586 192 586 260 q 503 37 586 94 q 279 -21 419 -21 z "},"и":{"ha":839,"x_min":108,"x_max":731,"o":"m 243 183 l 596 704 l 731 704 l 731 0 l 596 0 l 596 522 l 243 0 l 108 0 l 108 704 l 243 704 l 243 183 z "},"к":{"ha":736,"x_min":108,"x_max":735,"o":"m 108 0 l 108 704 l 246 704 l 246 382 l 544 704 l 713 704 l 379 358 l 735 0 l 561 0 l 246 318 l 246 0 l 108 0 z "},"л":{"ha":785,"x_min":19,"x_max":676,"o":"m 539 0 l 539 596 l 343 596 q 285 219 318 347 q 201 40 251 92 q 69 -11 150 -11 q 19 -7 51 -11 l 19 107 l 35 107 q 120 157 88 107 q 175 319 153 207 q 217 631 197 431 l 224 704 l 676 704 l 676 0 l 539 0 z "},"м":{"ha":958,"x_min":108,"x_max":850,"o":"m 728 0 l 728 521 l 533 144 l 426 144 l 231 521 l 231 0 l 108 0 l 108 704 l 254 704 l 482 261 l 710 704 l 850 704 l 850 0 l 728 0 z "},"н":{"ha":831,"x_min":108,"x_max":722,"o":"m 585 0 l 585 306 l 246 306 l 246 0 l 108 0 l 108 704 l 246 704 l 246 414 l 585 414 l 585 704 l 722 704 l 722 0 l 585 0 z "},"о":{"ha":806,"x_min":67,"x_max":739,"o":"m 403 -21 q 156 78 244 -21 q 67 353 67 176 q 156 626 67 528 q 403 725 244 725 q 650 626 561 725 q 739 353 739 528 q 650 78 739 176 q 403 -21 561 -21 m 403 90 q 599 353 599 90 q 403 614 599 614 q 207 353 207 614 q 403 90 207 90 z "},"п":{"ha":815,"x_min":108,"x_max":707,"o":"m 569 0 l 569 596 l 246 596 l 246 0 l 108 0 l 108 704 l 707 704 l 707 0 l 569 0 z "},"р":{"ha":828,"x_min":108,"x_max":761,"o":"m 108 -286 l 108 704 l 224 704 l 236 632 q 471 725 342 725 q 683 627 606 725 q 761 361 761 529 q 679 88 761 190 q 461 -15 597 -15 q 246 67 336 -15 l 246 -286 l 108 -286 m 432 614 q 246 550 333 614 l 246 163 q 429 96 336 96 q 621 354 621 96 q 574 550 621 486 q 432 614 528 614 z "},"с":{"ha":640,"x_min":67,"x_max":590,"o":"m 590 26 q 404 -15 510 -15 q 153 78 240 -15 q 67 350 67 172 q 156 623 67 526 q 410 719 246 719 q 585 681 503 719 l 585 582 q 429 607 506 607 q 261 548 313 607 q 210 360 210 489 l 210 342 q 262 156 210 215 q 426 97 314 97 q 590 125 501 97 l 590 26 z "},"т":{"ha":629,"x_min":21,"x_max":608,"o":"m 246 0 l 246 592 l 21 592 l 21 704 l 608 704 l 608 592 l 383 592 l 383 0 l 246 0 z "},"у":{"ha":707,"x_min":10,"x_max":697,"o":"m 293 -7 l 10 704 l 157 704 l 360 128 l 556 704 l 697 704 l 376 -124 q 290 -261 340 -219 q 161 -303 239 -303 q 53 -283 103 -303 l 53 -185 q 132 -194 90 -194 q 213 -169 183 -194 q 267 -78 243 -143 l 293 -7 z "},"ф":{"ha":1050,"x_min":67,"x_max":983,"o":"m 461 -19 q 254 28 343 -17 q 116 156 165 74 q 67 349 67 238 q 114 540 67 457 q 251 669 161 622 q 461 719 340 717 l 461 1028 l 589 1028 l 589 719 q 795 672 706 717 q 934 544 885 626 q 983 350 983 463 q 936 160 983 242 q 799 31 889 78 q 589 -19 710 -17 l 589 -286 l 461 -286 l 461 -19 m 461 614 q 269 541 336 610 q 201 349 201 472 q 269 158 201 226 q 461 86 338 89 l 461 614 m 849 350 q 781 542 849 474 q 589 614 713 610 l 589 86 q 781 158 713 89 q 849 350 849 226 z "},"х":{"ha":668,"x_min":10,"x_max":658,"o":"m 506 0 l 329 269 l 156 0 l 10 0 l 258 361 l 24 704 l 175 704 l 336 458 l 496 704 l 640 704 l 407 369 l 658 0 l 506 0 z "},"ц":{"ha":825,"x_min":108,"x_max":806,"o":"m 683 -228 l 683 0 l 108 0 l 108 704 l 246 704 l 246 108 l 563 108 l 563 704 l 700 704 l 700 108 l 806 108 l 806 -228 l 683 -228 z "},"ч":{"ha":767,"x_min":72,"x_max":658,"o":"m 521 0 l 521 288 q 293 253 417 253 q 128 306 185 253 q 72 461 72 358 l 72 704 l 210 704 l 210 497 q 241 391 210 424 q 343 358 272 358 q 521 382 432 358 l 521 704 l 658 704 l 658 0 l 521 0 z "},"ш":{"ha":1115,"x_min":108,"x_max":1007,"o":"m 1007 704 l 1007 0 l 108 0 l 108 704 l 243 704 l 243 108 l 490 108 l 490 704 l 625 704 l 625 108 l 872 108 l 872 704 l 1007 704 z "},"щ":{"ha":1121,"x_min":108,"x_max":1101,"o":"m 996 704 l 996 108 l 1101 108 l 1101 -228 l 979 -228 l 979 0 l 108 0 l 108 704 l 243 704 l 243 108 l 485 108 l 485 704 l 619 704 l 619 108 l 861 108 l 861 704 l 996 704 z "},"ъ":{"ha":835,"x_min":19,"x_max":797,"o":"m 19 704 l 372 704 l 372 447 l 553 447 q 731 388 665 447 q 797 224 797 328 q 731 60 797 119 q 553 0 665 0 l 239 0 l 239 594 l 19 594 l 19 704 m 372 347 l 372 100 l 539 100 q 663 224 663 100 q 539 347 663 347 l 372 347 z "},"ы":{"ha":1006,"x_min":108,"x_max":897,"o":"m 242 447 l 406 447 q 584 388 518 447 q 650 224 650 328 q 584 60 650 119 q 406 0 518 0 l 108 0 l 108 704 l 242 704 l 242 447 m 760 704 l 897 704 l 897 0 l 760 0 l 760 704 m 242 347 l 242 100 l 392 100 q 515 224 515 100 q 392 347 515 347 l 242 347 z "},"ь":{"ha":722,"x_min":108,"x_max":685,"o":"m 242 447 l 440 447 q 619 388 553 447 q 685 224 685 328 q 619 60 685 119 q 440 0 553 0 l 108 0 l 108 704 l 242 704 l 242 447 m 242 347 l 242 100 l 426 100 q 550 224 550 100 q 426 347 550 347 l 242 347 z "},"э":{"ha":661,"x_min":50,"x_max":594,"o":"m 250 -15 q 50 26 138 -15 l 50 122 q 236 94 149 94 q 367 116 319 94 q 436 184 414 138 q 461 310 458 231 l 133 310 l 133 407 l 460 407 q 432 527 456 483 q 362 590 408 571 q 238 610 315 610 q 57 585 143 610 l 57 681 q 149 709 97 699 q 253 719 201 719 q 509 627 424 719 q 594 354 594 535 q 506 78 594 172 q 250 -15 418 -15 z "},"ю":{"ha":1115,"x_min":108,"x_max":1049,"o":"m 735 -21 q 517 65 599 -21 q 425 306 436 150 l 240 306 l 240 0 l 108 0 l 108 704 l 240 704 l 240 414 l 426 414 q 521 644 440 563 q 735 725 601 725 q 965 626 882 725 q 1049 353 1049 528 q 965 78 1049 176 q 735 -21 882 -21 m 735 89 q 867 156 822 89 q 913 353 913 222 q 867 549 913 483 q 735 615 822 615 q 601 549 646 615 q 556 353 556 483 q 601 156 556 222 q 735 89 646 89 z "},"я":{"ha":726,"x_min":33,"x_max":618,"o":"m 228 303 q 122 374 160 324 q 85 493 85 424 q 149 648 85 592 q 322 704 213 704 l 618 704 l 618 0 l 486 0 l 486 283 l 342 283 l 186 0 l 33 0 l 228 303 m 221 493 q 255 406 221 438 q 350 375 289 375 l 486 375 l 486 613 l 351 613 q 254 582 288 613 q 221 493 221 551 z "},"Є":{"ha":857,"x_min":89,"x_max":808,"o":"m 563 -17 q 89 478 89 -17 q 212 848 89 719 q 568 976 335 976 q 793 939 689 976 l 793 824 q 585 853 667 853 q 331 780 414 853 q 239 549 247 707 l 678 549 l 678 433 l 238 433 q 322 185 240 263 q 578 107 404 107 q 808 142 675 107 l 808 26 q 563 -17 696 -17 z "},"І":{"ha":386,"x_min":122,"x_max":264,"o":"m 122 0 l 122 963 l 264 963 l 264 0 l 122 0 z "},"Ј":{"ha":607,"x_min":36,"x_max":496,"o":"m 36 122 q 193 96 115 96 q 317 140 279 96 q 354 283 354 183 l 354 963 l 496 963 l 496 286 q 206 -24 496 -24 q 36 13 124 -24 l 36 122 z "},"Ѕ":{"ha":792,"x_min":81,"x_max":718,"o":"m 297 457 q 132 561 183 500 q 81 715 81 622 q 119 853 81 793 q 231 949 158 914 q 403 983 304 983 q 660 933 528 983 l 660 821 q 413 864 519 864 q 273 827 322 864 q 224 722 224 790 q 257 634 224 667 q 381 568 290 601 l 507 521 q 669 420 619 479 q 718 268 718 361 q 623 56 718 135 q 367 -24 528 -24 q 89 33 207 -24 l 89 144 q 364 96 235 96 q 519 139 463 96 q 575 256 575 182 q 542 341 575 307 q 432 406 510 375 l 297 457 z "},"Љ":{"ha":1343,"x_min":28,"x_max":1283,"o":"m 660 847 l 432 847 q 377 398 406 563 q 310 146 349 233 q 221 24 272 58 q 96 -11 169 -11 q 28 -3 60 -11 l 28 113 q 60 111 39 111 q 172 183 129 111 q 243 417 214 256 q 299 869 272 579 l 307 963 l 801 963 l 801 576 l 967 576 q 1198 499 1113 576 q 1283 289 1283 422 q 1198 77 1283 154 q 967 0 1113 0 l 660 0 l 660 847 m 801 467 l 801 110 l 960 110 q 1096 153 1051 110 q 1140 289 1140 197 q 1096 423 1140 379 q 960 467 1051 467 l 801 467 z "},"Њ":{"ha":1350,"x_min":117,"x_max":1290,"o":"m 810 564 l 974 564 q 1204 488 1118 564 q 1290 282 1290 413 q 1204 76 1290 151 q 974 0 1118 0 l 668 0 l 668 435 l 258 435 l 258 0 l 117 0 l 117 963 l 258 963 l 258 549 l 668 549 l 668 963 l 810 963 l 810 564 m 810 454 l 810 110 l 967 110 q 1147 282 1147 110 q 967 454 1147 454 l 810 454 z "},"Ћ":{"ha":1097,"x_min":21,"x_max":1004,"o":"m 431 565 q 707 593 569 593 q 928 530 853 593 q 1004 347 1004 467 l 1004 0 l 863 0 l 863 319 q 816 442 863 404 q 668 481 769 481 q 431 460 563 481 l 431 0 l 289 0 l 289 846 l 21 846 l 21 963 l 763 963 l 763 846 l 431 846 l 431 565 z "},"Ђ":{"ha":1065,"x_min":21,"x_max":1006,"o":"m 664 94 q 815 141 768 96 q 863 288 863 186 q 808 431 863 385 q 639 478 754 478 q 431 461 538 478 l 431 0 l 289 0 l 289 846 l 21 846 l 21 963 l 763 963 l 763 846 l 431 846 l 431 565 q 672 590 553 590 q 922 514 838 590 q 1006 289 1006 438 q 924 63 1006 142 q 689 -17 842 -17 q 568 1 626 -17 l 568 103 q 664 94 621 94 z "},"Џ":{"ha":949,"x_min":117,"x_max":832,"o":"m 410 -244 l 410 0 l 117 0 l 117 963 l 258 963 l 258 115 l 690 115 l 690 963 l 832 963 l 832 0 l 539 0 l 539 -244 l 410 -244 z "},"Ґ":{"ha":701,"x_min":117,"x_max":681,"o":"m 117 0 l 117 963 l 556 963 l 556 1153 l 681 1153 l 681 846 l 258 846 l 258 0 l 117 0 z "},"Ѣ":{"ha":928,"x_min":21,"x_max":868,"o":"m 225 0 l 225 747 l 21 747 l 21 857 l 225 857 l 225 1014 l 367 1014 l 367 857 l 667 857 l 667 747 l 367 747 l 367 547 l 553 547 q 783 473 697 547 q 868 274 868 399 q 783 74 868 147 q 553 0 699 0 l 225 0 m 367 438 l 367 110 l 549 110 q 725 274 725 110 q 549 438 725 438 l 367 438 z "},"Ѳ":{"ha":1089,"x_min":89,"x_max":1000,"o":"m 544 -24 q 209 109 329 -24 q 89 481 89 242 q 209 851 89 718 q 544 983 329 983 q 880 851 760 983 q 1000 481 1000 718 q 880 109 1000 242 q 544 -24 760 -24 m 544 96 q 858 435 840 96 l 231 435 q 544 96 247 96 m 544 864 q 232 549 257 864 l 857 549 q 544 864 831 864 z "},"Ѵ":{"ha":929,"x_min":14,"x_max":942,"o":"m 368 0 l 14 963 l 169 963 l 447 143 l 646 772 q 731 929 681 883 q 869 975 781 975 q 942 964 908 975 l 942 854 q 899 857 917 857 q 844 848 863 857 q 813 817 826 839 q 786 754 800 796 l 521 0 l 368 0 z "},"є":{"ha":661,"x_min":67,"x_max":611,"o":"m 200 310 q 257 144 204 194 q 429 94 310 94 q 611 122 513 94 l 611 26 q 414 -15 526 -15 q 154 77 242 -15 q 67 350 67 169 q 157 625 67 531 q 419 719 247 719 q 604 681 518 719 l 604 585 q 432 610 519 610 q 260 563 314 610 q 201 407 207 515 l 528 407 l 528 310 l 200 310 z "},"і":{"ha":365,"x_min":97,"x_max":269,"o":"m 114 0 l 114 704 l 251 704 l 251 0 l 114 0 m 183 829 q 120 852 143 829 q 97 913 97 875 q 120 973 97 950 q 183 996 143 996 q 247 973 224 996 q 269 913 269 950 q 247 852 269 875 q 183 829 224 829 z "},"ј":{"ha":365,"x_min":-42,"x_max":269,"o":"m 114 704 l 251 704 l 251 -118 q 207 -256 251 -208 q 76 -303 163 -303 q -42 -285 18 -303 l -42 -186 q 40 -192 -10 -192 q 97 -177 79 -192 q 114 -129 114 -162 l 114 704 m 183 829 q 120 852 143 829 q 97 913 97 875 q 120 973 97 950 q 183 996 143 996 q 247 973 224 996 q 269 913 269 950 q 247 852 269 875 q 183 829 224 829 z "},"ѕ":{"ha":600,"x_min":53,"x_max":561,"o":"m 433 189 q 412 243 433 222 q 333 285 390 264 l 215 329 q 61 524 61 386 q 131 669 61 614 q 315 725 201 725 q 522 681 425 725 l 522 583 q 322 618 414 618 q 189 528 189 618 q 211 471 189 492 q 299 425 233 450 l 407 383 q 525 308 489 351 q 561 194 561 264 q 488 38 561 96 q 292 -21 414 -21 q 53 32 154 -21 l 53 129 q 294 86 183 86 q 398 113 363 86 q 433 189 433 139 z "},"љ":{"ha":1097,"x_min":19,"x_max":1060,"o":"m 651 704 l 651 449 l 813 449 q 994 389 929 449 q 1060 224 1060 329 q 994 60 1060 119 q 815 0 928 0 l 517 0 l 517 596 l 343 596 q 285 219 318 347 q 201 40 251 92 q 69 -11 150 -11 q 19 -7 51 -11 l 19 107 l 35 107 q 121 157 88 107 q 176 320 154 207 q 217 631 199 433 l 224 704 l 651 704 m 651 349 l 651 100 l 801 100 q 925 225 925 100 q 893 317 925 285 q 801 349 861 349 l 651 349 z "},"њ":{"ha":1124,"x_min":108,"x_max":1086,"o":"m 675 436 l 842 436 q 1020 378 954 436 q 1086 218 1086 319 q 1020 58 1086 117 q 842 0 954 0 l 542 0 l 542 335 l 246 335 l 246 0 l 108 0 l 108 704 l 246 704 l 246 436 l 542 436 l 542 704 l 675 704 l 675 436 m 675 335 l 675 101 l 829 101 q 953 218 953 101 q 829 335 953 335 l 675 335 z "},"ћ":{"ha":832,"x_min":-7,"x_max":732,"o":"m 594 0 l 594 371 q 565 479 594 444 q 471 514 535 514 q 256 443 361 514 l 256 0 l 118 0 l 118 781 l -7 781 l -7 876 l 118 876 l 118 1028 l 256 1028 l 256 876 l 504 876 l 504 781 l 256 781 l 256 532 q 525 625 388 625 q 679 572 626 625 q 732 417 732 518 l 732 0 l 594 0 z "},"ђ":{"ha":811,"x_min":-7,"x_max":733,"o":"m 435 -303 q 338 -285 386 -303 l 338 -187 q 417 -194 382 -194 q 553 -103 513 -194 q 594 204 594 -11 q 579 396 594 331 q 529 488 564 461 q 433 514 494 514 q 346 497 393 514 q 256 451 299 481 l 256 0 l 118 0 l 118 781 l -7 781 l -7 876 l 118 876 l 118 1028 l 256 1028 l 256 876 l 504 876 l 504 781 l 256 781 l 256 540 q 370 603 311 581 q 485 625 429 625 q 633 583 579 625 q 710 449 688 540 q 733 207 733 358 q 661 -179 733 -56 q 435 -303 589 -303 z "},"џ":{"ha":817,"x_min":108,"x_max":708,"o":"m 347 -228 l 347 0 l 108 0 l 108 704 l 246 704 l 246 108 l 571 108 l 571 704 l 708 704 l 708 0 l 469 0 l 469 -228 l 347 -228 z "},"ґ":{"ha":575,"x_min":108,"x_max":551,"o":"m 108 0 l 108 704 l 433 704 l 433 879 l 551 879 l 551 592 l 246 592 l 246 0 l 108 0 z "},"ѣ":{"ha":807,"x_min":15,"x_max":769,"o":"m 15 710 l 199 710 l 199 874 l 332 874 l 332 710 l 578 710 l 578 614 l 332 614 l 332 442 l 525 442 q 703 383 638 442 q 769 221 769 324 q 703 59 769 118 q 525 0 638 0 l 199 0 l 199 614 l 15 614 l 15 710 m 332 342 l 332 100 l 511 100 q 603 131 572 100 q 635 221 635 163 q 603 310 635 279 q 511 342 572 342 l 332 342 z "},"ѳ":{"ha":806,"x_min":67,"x_max":739,"o":"m 67 353 q 155 627 67 529 q 403 725 243 725 q 651 627 563 725 q 739 353 739 529 q 651 77 739 175 q 403 -21 563 -21 q 155 77 243 -21 q 67 353 67 175 m 403 90 q 549 144 500 90 q 606 311 599 199 l 200 311 q 256 144 207 199 q 403 90 306 90 m 403 614 q 259 563 308 614 q 200 403 210 511 l 604 403 q 547 563 596 511 q 403 614 497 614 z "},"ѵ":{"ha":750,"x_min":11,"x_max":746,"o":"m 282 0 l 11 704 l 158 704 l 350 126 l 493 550 q 561 681 525 644 q 660 717 597 717 q 746 703 700 717 l 746 604 q 693 608 715 608 q 654 594 667 608 q 624 535 642 581 l 417 0 l 282 0 z "},"Ё":{"ha":779,"x_min":117,"x_max":715,"o":"m 117 0 l 117 963 l 715 963 l 715 849 l 258 849 l 258 553 l 642 553 l 642 439 l 258 439 l 258 114 l 715 114 l 715 0 l 117 0 m 268 1082 q 207 1104 231 1082 q 183 1163 183 1126 q 206 1221 183 1199 q 268 1243 229 1243 q 329 1221 306 1243 q 353 1163 353 1199 q 330 1104 353 1126 q 268 1082 307 1082 m 563 1082 q 501 1104 525 1082 q 478 1163 478 1126 q 501 1221 478 1199 q 563 1243 524 1243 q 624 1221 600 1243 q 647 1163 647 1199 q 624 1104 647 1126 q 563 1082 601 1082 z "},"Ї":{"ha":386,"x_min":-39,"x_max":425,"o":"m 122 0 l 122 963 l 264 963 l 264 0 l 122 0 m 46 1082 q -15 1104 8 1082 q -39 1163 -39 1126 q -16 1221 -39 1199 q 46 1243 7 1243 q 107 1221 83 1243 q 131 1163 131 1199 q 108 1104 131 1126 q 46 1082 85 1082 m 340 1082 q 279 1104 303 1082 q 256 1163 256 1126 q 278 1221 256 1199 q 340 1243 301 1243 q 401 1221 378 1243 q 425 1163 425 1199 q 402 1104 425 1126 q 340 1082 379 1082 z "},"Ѓ":{"ha":701,"x_min":117,"x_max":681,"o":"m 117 0 l 117 963 l 681 963 l 681 846 l 258 846 l 258 0 l 117 0 m 338 1068 l 471 1239 l 636 1239 l 460 1068 l 338 1068 z "},"Ќ":{"ha":857,"x_min":117,"x_max":858,"o":"m 117 0 l 117 963 l 258 963 l 258 519 l 654 963 l 821 963 l 400 504 l 858 0 l 685 0 l 258 472 l 258 0 l 117 0 m 367 1068 l 500 1239 l 665 1239 l 489 1068 l 367 1068 z "},"Ѐ":{"ha":779,"x_min":117,"x_max":715,"o":"m 117 0 l 117 963 l 715 963 l 715 849 l 258 849 l 258 553 l 642 553 l 642 439 l 258 439 l 258 114 l 715 114 l 715 0 l 117 0 m 354 1068 l 178 1239 l 343 1239 l 476 1068 l 354 1068 z "},"Ѝ":{"ha":1007,"x_min":117,"x_max":890,"o":"m 117 963 l 256 963 l 256 204 l 753 963 l 890 963 l 890 0 l 751 0 l 751 757 l 254 0 l 117 0 l 117 963 m 438 1068 l 261 1239 l 426 1239 l 560 1068 l 438 1068 z "},"ё":{"ha":735,"x_min":67,"x_max":672,"o":"m 200 322 q 259 146 203 203 q 433 89 315 89 q 657 132 543 89 l 657 33 q 413 -21 557 -21 q 154 74 242 -21 q 67 353 67 168 q 154 627 67 529 q 399 725 242 725 q 601 651 531 725 q 672 440 672 576 q 661 322 672 375 l 200 322 m 392 621 q 256 569 304 621 q 200 414 207 517 l 546 414 q 547 450 547 425 q 508 578 547 535 q 392 621 468 621 m 231 825 q 171 847 193 825 q 149 906 149 869 q 171 963 149 942 q 231 985 193 985 q 292 963 269 985 q 314 906 314 942 q 292 847 314 869 q 231 825 269 825 m 531 825 q 469 847 492 825 q 447 906 447 869 q 469 963 447 942 q 531 985 492 985 q 590 963 568 985 q 613 906 613 942 q 590 847 613 869 q 531 825 568 825 z "},"ї":{"ha":365,"x_min":-50,"x_max":414,"o":"m 114 0 l 114 704 l 251 704 l 251 0 l 114 0 m 32 825 q -28 847 -6 825 q -50 906 -50 869 q -28 963 -50 942 q 32 985 -6 985 q 93 963 71 985 q 115 906 115 942 q 93 847 115 869 q 32 825 71 825 m 332 825 q 271 847 293 825 q 249 906 249 869 q 271 963 249 942 q 332 985 293 985 q 392 963 369 985 q 414 906 414 942 q 392 847 414 869 q 332 825 369 825 z "},"ѓ":{"ha":564,"x_min":108,"x_max":558,"o":"m 108 0 l 108 704 l 540 704 l 540 592 l 246 592 l 246 0 l 108 0 m 271 835 l 397 1057 l 558 1057 l 382 835 l 271 835 z "},"ќ":{"ha":736,"x_min":108,"x_max":735,"o":"m 108 0 l 108 704 l 246 704 l 246 382 l 544 704 l 713 704 l 379 358 l 735 0 l 561 0 l 246 318 l 246 0 l 108 0 m 329 835 l 456 1057 l 617 1057 l 440 835 l 329 835 z "},"ѐ":{"ha":735,"x_min":67,"x_max":672,"o":"m 200 322 q 259 146 203 203 q 433 89 315 89 q 657 132 543 89 l 657 33 q 413 -21 557 -21 q 154 74 242 -21 q 67 353 67 168 q 154 627 67 529 q 399 725 242 725 q 601 651 531 725 q 672 440 672 576 q 661 322 672 375 l 200 322 m 392 621 q 256 569 304 621 q 200 414 207 517 l 546 414 q 547 450 547 425 q 508 578 547 535 q 392 621 468 621 m 325 835 l 149 1057 l 310 1057 l 436 835 l 325 835 z "},"ѝ":{"ha":839,"x_min":108,"x_max":731,"o":"m 243 183 l 596 704 l 731 704 l 731 0 l 596 0 l 596 522 l 243 0 l 108 0 l 108 704 l 243 704 l 243 183 m 364 835 l 188 1057 l 349 1057 l 475 835 l 364 835 z "},"Й":{"ha":1007,"x_min":117,"x_max":890,"o":"m 117 963 l 256 963 l 256 204 l 753 963 l 890 963 l 890 0 l 751 0 l 751 757 l 254 0 l 117 0 l 117 963 m 499 1063 q 338 1112 399 1063 q 278 1242 278 1161 q 283 1281 278 1269 l 378 1281 l 381 1246 q 415 1176 385 1200 q 499 1151 446 1151 q 582 1176 551 1151 q 617 1246 613 1200 l 619 1281 l 714 1281 q 719 1242 719 1269 q 659 1112 719 1161 q 499 1063 599 1063 z "},"Ў":{"ha":840,"x_min":15,"x_max":833,"o":"m 150 101 q 211 99 178 99 q 319 129 278 99 q 389 228 361 160 l 15 963 l 171 963 l 450 371 l 681 963 l 833 963 l 504 196 q 390 29 454 79 q 225 -21 326 -21 q 150 -12 190 -21 l 150 101 m 433 1063 q 273 1112 333 1063 q 213 1242 213 1161 q 218 1281 213 1269 l 313 1281 l 315 1246 q 350 1176 319 1200 q 433 1151 381 1151 q 517 1176 486 1151 q 551 1246 547 1200 l 554 1281 l 649 1281 q 654 1242 654 1269 q 594 1112 654 1161 q 433 1063 533 1063 z "},"й":{"ha":839,"x_min":108,"x_max":731,"o":"m 243 183 l 596 704 l 731 704 l 731 0 l 596 0 l 596 522 l 243 0 l 108 0 l 108 704 l 243 704 l 243 183 m 419 831 q 258 882 317 831 q 199 1022 199 933 q 204 1065 199 1053 l 296 1065 l 299 1028 q 419 918 307 918 q 540 1028 532 918 l 543 1065 l 635 1065 q 640 1022 640 1053 q 581 882 640 933 q 419 831 522 831 z "},"ў":{"ha":707,"x_min":10,"x_max":697,"o":"m 293 -7 l 10 704 l 157 704 l 360 128 l 556 704 l 697 704 l 376 -124 q 290 -261 340 -219 q 161 -303 239 -303 q 53 -283 103 -303 l 53 -185 q 132 -194 90 -194 q 213 -169 183 -194 q 267 -78 243 -143 l 293 -7 m 353 831 q 191 882 250 831 q 132 1022 132 933 q 138 1065 132 1053 l 229 1065 l 232 1028 q 353 918 240 918 q 474 1028 465 918 l 476 1065 l 568 1065 q 574 1022 574 1053 q 515 882 574 933 q 353 831 456 831 z "},"Α":{"ha":892,"x_min":14,"x_max":878,"o":"m 731 0 l 642 256 l 246 256 l 160 0 l 14 0 l 369 963 l 522 963 l 878 0 l 731 0 m 282 363 l 606 363 l 443 835 l 282 363 z "},"Β":{"ha":851,"x_min":117,"x_max":788,"o":"m 117 0 l 117 963 l 435 963 q 651 893 569 963 q 733 708 733 824 q 700 584 733 636 q 604 504 667 532 q 740 417 693 478 q 788 268 788 357 q 701 73 788 146 q 471 0 615 0 l 117 0 m 251 439 l 251 108 l 468 108 q 644 274 644 108 q 599 397 644 356 q 465 439 554 439 l 251 439 m 251 854 l 251 544 l 421 544 q 593 699 593 544 q 551 815 593 775 q 425 854 508 854 l 251 854 z "},"Γ":{"ha":701,"x_min":117,"x_max":681,"o":"m 117 0 l 117 963 l 681 963 l 681 846 l 258 846 l 258 0 l 117 0 z "},"Δ":{"ha":890,"x_min":43,"x_max":847,"o":"m 43 0 l 43 108 l 365 963 l 525 963 l 847 108 l 847 0 l 43 0 m 444 843 l 186 110 l 696 110 l 444 843 z "},"Ε":{"ha":779,"x_min":117,"x_max":715,"o":"m 117 0 l 117 963 l 715 963 l 715 849 l 258 849 l 258 553 l 642 553 l 642 439 l 258 439 l 258 114 l 715 114 l 715 0 l 117 0 z "},"Ζ":{"ha":804,"x_min":58,"x_max":746,"o":"m 58 0 l 58 108 l 592 847 l 89 847 l 89 963 l 746 963 l 746 854 l 211 115 l 746 115 l 746 0 l 58 0 z "},"Η":{"ha":997,"x_min":117,"x_max":881,"o":"m 739 0 l 739 435 l 258 435 l 258 0 l 117 0 l 117 963 l 258 963 l 258 549 l 739 549 l 739 963 l 881 963 l 881 0 l 739 0 z "},"Θ":{"ha":1079,"x_min":89,"x_max":990,"o":"m 358 428 l 358 543 l 721 543 l 721 428 l 358 428 m 235 481 q 313 194 235 292 q 540 96 392 96 q 767 194 689 96 q 844 481 844 293 q 767 766 844 668 q 540 864 689 864 q 313 766 390 864 q 235 481 235 668 m 89 481 q 142 748 89 635 q 297 922 194 861 q 540 983 399 983 q 870 849 750 983 q 990 481 990 715 q 938 213 990 326 q 783 38 885 100 q 540 -24 682 -24 q 301 35 403 -24 q 144 208 200 94 q 89 481 89 322 z "},"Ι":{"ha":386,"x_min":122,"x_max":264,"o":"m 122 0 l 122 963 l 264 963 l 264 0 l 122 0 z "},"Κ":{"ha":857,"x_min":117,"x_max":858,"o":"m 117 0 l 117 963 l 258 963 l 258 532 l 654 963 l 821 963 l 393 503 l 858 0 l 685 0 l 258 460 l 258 0 l 117 0 z "},"Λ":{"ha":879,"x_min":14,"x_max":865,"o":"m 713 0 l 436 807 l 163 0 l 14 0 l 365 963 l 515 963 l 865 0 l 713 0 z "},"Μ":{"ha":1167,"x_min":117,"x_max":1050,"o":"m 919 0 l 919 757 l 649 246 l 519 246 l 247 758 l 247 0 l 117 0 l 117 963 l 275 963 l 586 372 l 896 963 l 1050 963 l 1050 0 l 919 0 z "},"Ν":{"ha":992,"x_min":117,"x_max":875,"o":"m 247 765 l 247 0 l 117 0 l 117 963 l 271 963 l 744 193 l 744 963 l 875 963 l 875 0 l 719 0 l 247 765 z "},"Ξ":{"ha":793,"x_min":56,"x_max":738,"o":"m 56 0 l 56 121 l 738 121 l 738 0 l 56 0 m 72 842 l 72 963 l 721 963 l 721 842 l 72 842 m 138 429 l 138 550 l 656 550 l 656 429 l 138 429 z "},"Ο":{"ha":1079,"x_min":89,"x_max":990,"o":"m 235 481 q 313 194 235 292 q 540 96 392 96 q 767 194 689 96 q 844 481 844 293 q 767 766 844 668 q 540 864 689 864 q 313 766 390 864 q 235 481 235 668 m 89 481 q 142 748 89 635 q 297 922 194 861 q 540 983 399 983 q 870 849 750 983 q 990 481 990 715 q 938 213 990 326 q 783 38 885 100 q 540 -24 682 -24 q 301 35 403 -24 q 144 208 200 94 q 89 481 89 322 z "},"Π":{"ha":967,"x_min":117,"x_max":850,"o":"m 708 0 l 708 847 l 258 847 l 258 0 l 117 0 l 117 963 l 850 963 l 850 0 l 708 0 z "},"Ρ":{"ha":833,"x_min":117,"x_max":772,"o":"m 254 372 l 254 0 l 117 0 l 117 963 l 465 963 q 689 883 606 963 q 772 667 772 803 q 689 452 772 532 q 465 372 606 372 l 254 372 m 254 485 l 453 485 q 585 531 540 485 q 629 667 629 578 q 453 850 629 850 l 254 850 l 254 485 z "},"Σ":{"ha":781,"x_min":53,"x_max":744,"o":"m 236 847 l 511 494 l 211 115 l 744 115 l 744 0 l 53 0 l 53 107 l 356 492 l 72 856 l 72 963 l 733 963 l 733 847 l 236 847 z "},"Τ":{"ha":797,"x_min":21,"x_max":776,"o":"m 328 0 l 328 846 l 21 846 l 21 963 l 776 963 l 776 846 l 469 846 l 469 0 l 328 0 z "},"Υ":{"ha":839,"x_min":19,"x_max":819,"o":"m 347 0 l 347 354 l 19 963 l 176 963 l 419 469 l 667 963 l 819 963 l 486 351 l 486 0 l 347 0 z "}}}
